<?xml version="1.0" encoding="utf-8"?>
<!-- Generator: Adobe Illustrator 27.5.0, SVG Export Plug-In . SVG Version: 6.00 Build 0)  -->
<svg version="1.1" xmlns="http://www.w3.org/2000/svg" xmlns:xlink="http://www.w3.org/1999/xlink" x="0px" y="0px"
	 viewBox="0 0 1410 2250" style="enable-background:new 0 0 1410 2250;" xml:space="preserve">
<g id="BACKGROUND">
	<rect x="0" style="fill:#FFFFFF;" width="1410" height="2250"/>
</g>
<g id="OBJECTS">
	<g>
		<defs>
			<rect id="SVGID_1_" x="0" width="1410" height="2250"/>
		</defs>
		<clipPath id="SVGID_00000097478165949380019010000005168828580186520503_">
			<use xlink:href="#SVGID_1_"  style="overflow:visible;"/>
		</clipPath>
		<g style="clip-path:url(#SVGID_00000097478165949380019010000005168828580186520503_);">
			<text transform="matrix(1 0 0 1 381.1078 814.6176)"><tspan x="0" y="0" style="fill:#1F1E21; font-family:'Montserrat-ExtraBold'; font-size:302px;">DES</tspan><tspan x="34.729" y="277.815" style="fill:#1F1E21; font-family:'Montserrat-ExtraBold'; font-size:302px;">IGN</tspan></text>
		</g>
		<g style="clip-path:url(#SVGID_00000097478165949380019010000005168828580186520503_);">
			<text transform="matrix(1 0 0 1 405.1576 521.5121)" style="fill:#1F1E21; font-family:'Montserrat-Medium'; font-size:65px;">THE BEST TIPS OF</text>
		</g>
		<g style="clip-path:url(#SVGID_00000097478165949380019010000005168828580186520503_);">
			<text transform="matrix(1 0 0 1 396.6425 1785.2308)" style="fill:#1F1E21; font-family:'Montserrat-Medium'; font-size:65px;">BY DANI MURDOR</text>
		</g>
		<g style="clip-path:url(#SVGID_00000097478165949380019010000005168828580186520503_);">
			<text transform="matrix(1 0 0 1 512.1136 2115.3481)" style="fill:#1F1E21; font-family:'Montserrat-Black'; font-size:48px;">RIB EDITORIAL</text>
		</g>
		<g style="clip-path:url(#SVGID_00000097478165949380019010000005168828580186520503_);">
			<path style="fill:#F2D822;" d="M62.55,1682.327c-2.916-4.789-6.256-9.35-10.105-13.637
				c-66.739-74.327-151.664-4.386-217.118,25.588c-47.815,21.896-41.817-22.885-80.09-36.69
				c-35.407-12.771-73.697,20.103-78.718,54.445c-4.88,33.381,12.888,66.849,37.925,89.461
				c30.792,27.81,103.819,38.454,115.922,79.353c13.249,44.771-32.021,55.756-52.409,85.274
				c-19.726,28.56-26.153,79.37-25.124,112.594c1.047,33.829,15.595,69.202,44.792,86.321
				c39.865,23.375,91.476,5.792,129.623-20.293s71.826-60.771,115.774-75.061c47.042-15.296,98.499-4.664,145.407,11.036
				c46.908,15.7,92.816,36.521,141.989,41.891c49.174,5.37,104.254-8.282,132.749-48.717
				c36.167-51.323,13.986-126.084-45.132-147.146c-87.086-31.025-192.163-5.518-274.359-51.039
				C71.55,1835.763,99.991,1743.801,62.55,1682.327z"/>
			<g>
				<path style="fill:#8D80E5;" d="M384.543,2384.117c-31.668,0.179-63.877-3.263-93.93-3.919
					c-109.427-2.385-218.78-2.262-327.994-10.385c-141.165-10.499-275.196-87.176-270.085-246.73
					c2.11-65.866,35.752-139.675,91.018-178.084c32.77-22.77,117.035-41.231,154.257-24.356
					c23.293,10.56,41.078,30.121,58.016,49.283c16.938,19.161,34.364,38.944,57.328,50.2c44.791,21.956,97.916,6.49,145.804-7.474
					c47.889-13.963,103.497-24.97,144.431,3.539c53.016,36.923,53.685,121.378,106.174,159.046
					c30.5,21.888,71.453,22.299,108.47,16.045c37.017-6.254,73.385-18.291,110.926-18.258
					c46.127,0.041,91.939,19.331,124.201,52.298c24.267,24.798,40.632,57.093,46.845,91.203
					c3.268,17.941-10.663,34.504-28.898,34.513c-0.107,0-0.213,0-0.32,0c-52.667,0-105.334-0.003-158.001,0
					c-38.459,0.003-71.282-0.896-109.68,7.291C490.724,2369.497,438.487,2383.811,384.543,2384.117z"/>
			</g>
			<g>
				<path style="fill:#1F1E21;" d="M1137.906,2261.529c-53.254-32.849-90.099-81.521-125.73-128.592
					c-43.835-57.905-89.161-117.781-165.033-146.567c-113.647-43.116-253.691-31.264-374.614,31.701
					c-28.383,14.778-53.808,34.897-78.395,54.353c-19.433,15.377-39.526,31.277-61.074,44.568
					c-23.423,14.447-48.48,23.846-72.464,27.18c-28.026,3.896-52.666-0.61-73.233-13.391
					c-36.598-22.743-54.494-54.262-54.709-96.359c-0.188-36.725,12.795-76.646,25.352-115.254
					c10.259-31.542,19.948-61.335,22.29-88.088c4.7-53.685-14.285-95.563-53.457-117.922c-36.422-20.78-77.751-18.164-121.51-15.394
					c-35.31,2.235-71.821,4.547-105.769-6.494c-42.315-13.761-80.357-42.459-107.118-80.807
					c-27.241-39.037-40.279-84.794-36.713-128.84l5.98,0.484c-7.108,87.776,52.952,175.244,139.706,203.457
					c32.857,10.685,68.789,8.409,103.534,6.211c42.714-2.704,86.881-5.501,124.863,16.171
					c41.325,23.587,61.376,67.502,56.46,123.656c-2.401,27.434-12.194,57.543-22.561,89.42
					c-25.005,76.886-50.862,156.389,26.818,204.661c42.975,26.705,100.177,10.381,139.381-13.801
					c21.249-13.106,41.203-28.896,60.5-44.166c24.807-19.63,50.458-39.928,79.347-54.97
					c122.418-63.743,264.292-75.699,379.514-31.988c77.485,29.396,123.341,89.973,167.688,148.555
					c35.299,46.63,71.799,94.847,124.098,127.105L1137.906,2261.529z"/>
			</g>
			<path style="fill:#C1BDF9;" d="M140.8,1811.083c-16.525-18.709-20.371-49.832-3.542-68.269
				c9.62-10.54,24.403-15.478,38.668-15.079c14.265,0.4,28.043,5.683,40.318,12.961c15.464,9.168,29.375,22.182,35.803,38.971
				c10.651,27.818-6.028,60.755-37.168,63.906C191.334,1845.956,155.899,1828.178,140.8,1811.083z"/>
		</g>
		<g style="clip-path:url(#SVGID_00000097478165949380019010000005168828580186520503_);">
			<circle style="fill:#F2D822;" cx="705" cy="1345.253" r="106.979"/>
			<g>
				<g>
					<g>
						<path style="fill:#1F1E21;" d="M718.814,1455.31h-27.628c-1.931,0-3.591-1.366-3.964-3.26
							c-4.746-24.172-21.949-41.866-52.597-54.095c-1.557-0.622-2.569-2.14-2.542-3.815s1.086-3.162,2.662-3.733
							c42.191-15.302,62.049-70.372,66.235-112.882c0.204-2.07,1.942-3.645,4.02-3.645s3.817,1.575,4.02,3.645
							c4.188,42.51,24.046,97.58,66.235,112.882c1.576,0.571,2.635,2.057,2.662,3.733s-0.985,3.194-2.542,3.815
							c-30.648,12.228-47.851,29.922-52.597,54.095C722.405,1453.944,720.745,1455.31,718.814,1455.31z M694.432,1447.232h21.137
							c5.56-22.718,21.746-40.522,48.203-53.037c-32.156-16.504-50.685-54.745-58.771-90.934
							c-8.085,36.189-26.613,74.427-58.771,90.934C672.686,1406.71,688.871,1424.514,694.432,1447.232z"/>
					</g>
					<g>
						<path style="fill:#1F1E21;" d="M718.814,1499.238h-27.628c-2.231,0-4.039-1.808-4.039-4.039v-43.927
							c0-2.231,1.808-4.039,4.039-4.039h27.628c2.231,0,4.039,1.808,4.039,4.039v43.927
							C722.853,1497.429,721.045,1499.238,718.814,1499.238z M695.225,1491.159h19.549v-35.849h-19.549V1491.159z"/>
					</g>
					<g>
						<path style="fill:#1F1E21;" d="M705,1377.289c-2.231,0-4.039-1.808-4.039-4.039v-95.33c0-2.231,1.808-4.039,4.039-4.039
							s4.039,1.808,4.039,4.039v95.33C709.039,1375.481,707.231,1377.289,705,1377.289z"/>
					</g>
					<g>
						<path style="fill:#1F1E21;" d="M705,1397.268c-7.247,0-13.143-5.895-13.143-13.143c0-7.249,5.896-13.143,13.143-13.143
							s13.143,5.895,13.143,13.143C718.143,1391.373,712.247,1397.268,705,1397.268z M705,1379.06c-2.793,0-5.065,2.272-5.065,5.065
							c0,2.793,2.272,5.065,5.065,5.065s5.065-2.272,5.065-5.065C710.065,1381.332,707.793,1379.06,705,1379.06z"/>
					</g>
					<g>
						<circle style="fill:#1F1E21;" cx="829.651" cy="1233.746" r="9.104"/>
						<path style="fill:#1F1E21;" d="M829.651,1246.891c-7.247,0-13.142-5.895-13.142-13.143c0-7.249,5.895-13.143,13.142-13.143
							s13.143,5.895,13.143,13.143C842.794,1240.996,836.898,1246.891,829.651,1246.891z M829.651,1228.682
							c-2.791,0-5.063,2.272-5.063,5.065c0,2.793,2.272,5.065,5.063,5.065c2.793,0,5.065-2.272,5.065-5.065
							C834.716,1230.954,832.444,1228.682,829.651,1228.682z"/>
					</g>
					<g>
						<circle style="fill:#1F1E21;" cx="580.349" cy="1233.746" r="9.104"/>
						<path style="fill:#1F1E21;" d="M580.349,1246.891c-7.247,0-13.143-5.895-13.143-13.143c0-7.249,5.896-13.143,13.143-13.143
							s13.143,5.895,13.143,13.143C593.492,1240.996,587.596,1246.891,580.349,1246.891z M580.349,1228.682
							c-2.793,0-5.065,2.272-5.065,5.065c0,2.793,2.272,5.065,5.065,5.065s5.065-2.272,5.065-5.065
							C585.414,1230.954,583.142,1228.682,580.349,1228.682z"/>
					</g>
					<g>
						<path style="fill:#1F1E21;" d="M820.548,1353.332c-2.231,0-4.039-1.808-4.039-4.039c0-61.485-50.022-111.506-111.509-111.506
							c-61.485,0-111.508,50.021-111.508,111.506c0,2.231-1.808,4.039-4.039,4.039s-4.039-1.808-4.039-4.039
							c0-65.938,53.647-119.584,119.586-119.584c65.941,0,119.588,53.646,119.588,119.584
							C824.588,1351.523,822.779,1353.332,820.548,1353.332z"/>
					</g>
					<g>
						<path style="fill:#1F1E21;" d="M820.548,1237.786H589.453c-2.231,0-4.039-1.808-4.039-4.039s1.808-4.039,4.039-4.039h231.095
							c2.231,0,4.039,1.808,4.039,4.039S822.779,1237.786,820.548,1237.786z"/>
					</g>
					<g>
						<rect x="695.896" y="1224.642" style="fill:#1F1E21;" width="18.207" height="18.208"/>
						<path style="fill:#1F1E21;" d="M714.104,1246.891h-18.208c-2.231,0-4.039-1.808-4.039-4.039v-18.208
							c0-2.231,1.808-4.039,4.039-4.039h18.208c2.231,0,4.039,1.808,4.039,4.039v18.208
							C718.143,1245.082,716.335,1246.891,714.104,1246.891z M699.935,1238.812h10.13v-10.13h-10.13V1238.812z"/>
					</g>
					<g>
						<rect x="580.349" y="1349.294" style="fill:#1F1E21;" width="18.208" height="18.208"/>
						<path style="fill:#1F1E21;" d="M598.556,1371.54h-18.207c-2.231,0-4.039-1.808-4.039-4.039v-18.208
							c0-2.231,1.808-4.039,4.039-4.039h18.207c2.231,0,4.039,1.808,4.039,4.039v18.208
							C602.595,1369.732,600.787,1371.54,598.556,1371.54z M584.388,1363.461h10.128v-10.13h-10.128V1363.461z"/>
					</g>
					<g>
						<rect x="811.444" y="1349.294" style="fill:#1F1E21;" width="18.208" height="18.208"/>
						<path style="fill:#1F1E21;" d="M829.651,1371.54h-18.207c-2.231,0-4.039-1.808-4.039-4.039v-18.208
							c0-2.231,1.808-4.039,4.039-4.039h18.207c2.231,0,4.039,1.808,4.039,4.039v18.208
							C833.69,1369.732,831.882,1371.54,829.651,1371.54z M815.483,1363.461h10.128v-10.13h-10.128V1363.461z"/>
					</g>
				</g>
			</g>
		</g>
		<g style="clip-path:url(#SVGID_00000097478165949380019010000005168828580186520503_);">
			<path style="fill:#F2D822;" d="M835.923-33.369c-61.494-5.837-126.404-5.957-163.125-30.887
				c-73.157-49.668-144.645-85.938-211.562,4.341c-92.169,124.352,31.741,303.981,157.111,342.963
				c98.316,30.57,229.617-13.072,306.684-78.003c41.079-34.61,69.765-87.885,62.745-141.145
				C977.867-11.287,909.329-26.401,835.923-33.369z"/>
			<path style="fill:#C1BDF9;" d="M897.372,32.966c-24.091,43.895-113.414,60.144-142.737,91.052
				c-29.783,31.393-37.214,88.181-3.648,115.493c21.864,17.791,53.411,17.733,80.785,11.007c27.374-6.726,53.302-19.15,81.165-23.42
				c27.863-4.27,60,1.771,76.406,24.693c19.4,27.105,9.56,65.541,21.734,96.57c9.838,25.075,35.016,43.375,61.903,44.992
				c26.888,1.617,54.077-13.534,66.849-37.249c13.188-24.488,10.945-54.286,5.407-81.543c-5.537-27.254-14.055-54.47-12.278-82.224
				c3.809-59.462,41.416-58.397,85.618-70.46c37.707-10.29,89.355-60.627,58.958-102.308
				c-21.909-30.042-78.241-22.319-110.25-24.871c-94.732-7.553-82.894-95.152-109.124-160.327
				c-32.071-79.686-126.5-55.094-159.438,9.983c-21.272,42.028-22.177,93.805-2.386,136.551
				C906.112,2.019,905.086,18.91,897.372,32.966z"/>
			<g>
				<path style="fill:#8D80E5;" d="M1812.408-97.968c-22.027,27.897-47.609,53.732-69.235,79.628
					c-33.251,39.347-81.419,82.17-106.763,126.544c-22.009,38.534-8.194,89.902-5.164,133.824
					c6.225,90.24,10.501,188.173-40.362,262.973c-32.68,48.061-97.594,81.532-149.62,55.624
					c-102.362-50.973-102.531-191.755-221.947-225.972c-39.933-11.443-83.32-9.809-121.613-25.912
					c-140.64-59.145-93.596-376.982,48.622-296.175c30.039,17.071,45.55,50.787,65.519,78.982
					c19.97,28.195,53.455,54.144,86.323,43.492c17.243-5.588,30.208-20.543,37.46-37.156c40.878-93.64,4.717-195.743,89.239-273.99
					c33.35-30.874,69.199-36.711,112.79-24.554c27.415,7.645,55.186,18.339,83.441,14.851
					c68.787-8.501,130.575-127.723,206.438-85.593c30.731,17.066,39.8,59.177,29.839,92.889
					C1848.67-149.057,1831.936-122.701,1812.408-97.968z"/>
			</g>
			<path style="fill:#F2D822;" d="M1230.925,428.084c-12.412-5.766-24.776-12.556-33.578-23.036
				c-8.802-10.479-13.432-25.404-8.564-38.196c3.719-9.772,12.073-16.558,21.744-21.048c4.651-2.159,9.605-3.786,14.494-4.959
				c33.882-8.127,118.19,1.238,110.526,51.041C1329.175,433.3,1260.128,441.65,1230.925,428.084z"/>
			<path style="fill:#5B1CCA;" d="M1270.577,528.541c-16.181,14.522-9.851,45.933,10.69,53.055
				c20.541,7.123,44.957-13.628,41.24-35.049c-3.718-21.421-33.698-32.731-50.638-19.104"/>
			<g>
				<path style="fill:#1F1E21;" d="M-39.676,309.275c-26.868,0-54.171-9.391-75.004-26.156
					c-19.159-15.418-30.515-35.137-32.84-57.025l5.967-0.634c2.152,20.266,12.746,38.588,30.635,52.984
					c22.469,18.082,54.232,27.351,82.885,24.197c56.113-6.181,102.103-46.484,131.814-76.262
					c9.353-9.375,18.643-19.229,27.626-28.76c26.666-28.29,54.239-57.542,87.624-78.728c23.301-14.786,50.106-24.54,75.477-27.464
					c28.583-3.297,54.996,1.949,76.383,15.165c15.356,9.49,27.826,22.777,39.886,35.627c8.818,9.396,17.937,19.113,28.042,27.158
					c49.771,39.626,130.072,35.349,175.352-9.339c45.28-44.687,50.614-124.926,11.647-175.214l4.743-3.675
					c19.839,25.604,29.489,58.913,27.17,93.791c-2.318,34.878-16.292,66.616-39.346,89.369
					c-23.055,22.753-54.974,36.308-89.879,38.167c-34.909,1.862-68.084-8.228-93.425-28.403
					c-10.446-8.317-19.716-18.194-28.68-27.747c-11.792-12.565-23.985-25.557-38.665-34.628
					c-47.179-29.154-107.861-11.617-145.491,12.261c-32.75,20.782-60.061,49.756-86.472,77.776
					c-9.012,9.562-18.332,19.448-27.746,28.883c-30.351,30.419-77.409,71.599-135.404,77.988
					C-31.449,309.054-35.559,309.275-39.676,309.275z"/>
			</g>
		</g>
	</g>
</g>
</svg>
