<?xml version="1.0" encoding="utf-8"?>
<!-- Generator: Adobe Illustrator 27.5.0, SVG Export Plug-In . SVG Version: 6.00 Build 0)  -->
<svg version="1.1" id="PRINT" xmlns="http://www.w3.org/2000/svg" xmlns:xlink="http://www.w3.org/1999/xlink" x="0px" y="0px"
	 viewBox="0 0 595.276 841.89" style="enable-background:new 0 0 595.276 841.89;" xml:space="preserve">
<g>
	<defs>
		<rect id="SVGID_1_" x="-8.504" y="-8.504" width="612.283" height="858.898"/>
	</defs>
	<clipPath id="SVGID_00000152233774522065556060000011127507475913806727_">
		<use xlink:href="#SVGID_1_"  style="overflow:visible;"/>
	</clipPath>
	
		<rect x="-8.504" y="-8.504" style="clip-path:url(#SVGID_00000152233774522065556060000011127507475913806727_);fill:#FFFFFF;stroke:#000000;stroke-miterlimit:10;" width="612.283" height="858.898"/>
	<g style="clip-path:url(#SVGID_00000152233774522065556060000011127507475913806727_);">
		<path style="fill:#F2E4C1;" d="M-23.596,26.796c-3.831,0.081-14.157,25.864-13.501,27.663
			c0.656,1.799,158.461,77.339,158.461,77.339s17.259-28.293,14.473-29.653C133.05,100.785-21.661,26.755-23.596,26.796z"/>
		<path style="fill:#394871;" d="M-25.897,23.455c-0.745,1.172-2.474,3.841-2.135,4.375c0.338,0.534,164.844,77.73,164.844,77.73
			l1.998-4.094L-25.897,23.455z"/>
		<path style="fill:#394871;" d="M123.259,132.704c0.743-1.173,2.468-3.843,2.135-4.375c-0.333-0.532-163.102-76.88-163.102-76.88
			l-1.998,4.094L123.259,132.704z"/>
		<path style="fill:#FBF5E2;" d="M-28.61,37.954c0,0,157.092,72.563,156.867,73.521C128.031,112.433-28.61,37.954-28.61,37.954z"/>
		<path style="fill:#FBF5E2;" d="M-29.449,41.77c0,0,157.092,72.563,156.867,73.521C127.192,116.25-29.449,41.77-29.449,41.77z"/>
		<path style="fill:#FBF5E2;" d="M-31.718,44.322c5.19,2.779,157.309,73.61,156.147,74.996
			C123.267,120.704-31.718,44.322-31.718,44.322z"/>
		<path style="fill:#FBF5E2;" d="M130.608,106.658c-5.19-2.779-157.308-73.61-156.147-74.996
			C-24.378,30.277,130.608,106.658,130.608,106.658z"/>
	</g>
	<g style="clip-path:url(#SVGID_00000152233774522065556060000011127507475913806727_);">
		<path style="fill:#C65B32;" d="M-24.3,570.969c1.385,1.127,13.912,11.078,15.322,10.153c1.41-0.925,91.378-138.695,90.824-139.062
			c-0.554-0.367-16.429-10.887-16.429-10.887S-25.498,569.994-24.3,570.969z"/>
		<path style="fill:#FFFFFF;" d="M-16.423,569.614c0.457,0.303,4.888,3.239,4.888,3.239s70.734-107.943,70.41-108.356
			c-0.324-0.414-4.707-3.119-4.707-3.119L-16.423,569.614z"/>
		<path style="fill:#FFFFFF;" d="M56.477,457.527c0.458,0.303,4.888,3.239,4.888,3.239s6.228-8.888,5.82-9.175
			c-0.408-0.287-4.707-3.119-4.707-3.119L56.477,457.527z"/>
	</g>
	<g style="clip-path:url(#SVGID_00000152233774522065556060000011127507475913806727_);">
		<path style="fill:#80A4EE;" d="M468.427,363.171c-6.537,9.79,15.176,36.884,17.063,36.74c1.887-0.144,158.664-76.86,158.664-76.86
			s-13.039-34.648-14.711-35.093C627.772,287.514,470.299,360.367,468.427,363.171z"/>
		<path style="fill:#8EC9B7;" d="M508.393,360.133c0.115,0.249,1.235,2.659,1.235,2.659s100.051-46.831,100.075-47.117
			s-1.189-2.561-1.189-2.561L508.393,360.133z"/>
		<path style="fill:#8EC9B7;" d="M510.601,365.798c0.116,0.249,1.235,2.659,1.235,2.659s100.051-46.831,100.074-47.117
			c0.024-0.286-1.189-2.561-1.189-2.561L510.601,365.798z"/>
		<path style="fill:#E9D587;" d="M474.935,361.919c0,0,14.477,32.837,15.519,32.766c1.043-0.07,2.913-1.2,2.913-1.2l-15.173-32.909
			L474.935,361.919z"/>
		<path style="fill:#E9D587;" d="M495.607,352.711c0,0,14.477,32.837,15.519,32.766c1.043-0.07,2.913-1.2,2.913-1.2l-15.173-32.909
			L495.607,352.711z"/>
		<path style="fill:#E9D587;" d="M610.283,297.411c0,0,14.476,32.837,15.519,32.766c1.043-0.07,2.913-1.2,2.913-1.2l-15.173-32.909
			L610.283,297.411z"/>
		<path style="fill:#E9D587;" d="M605.462,299.65c0,0,14.477,32.837,15.519,32.766c1.043-0.07,2.913-1.2,2.913-1.2l-15.173-32.909
			L605.462,299.65z"/>
		<path style="fill:#8EC9B7;" d="M481.414,363.533c1.157-0.663,14.078-7.146,14.311-6.646c0.232,0.5,2.75,5.923,2.75,5.923
			s-14.402,7.238-14.311,6.646S481.414,363.533,481.414,363.533z"/>
		<path style="fill:#8EC9B7;" d="M485.888,373.167c1.157-0.663,14.079-7.146,14.311-6.646c0.232,0.5,2.75,5.922,2.75,5.922
			s-14.402,7.238-14.311,6.646C488.73,378.498,485.888,373.167,485.888,373.167z"/>
		<path style="fill:#8EC9B7;" d="M490.362,382.801c1.157-0.663,14.079-7.146,14.311-6.646c0.232,0.5,2.751,5.923,2.751,5.923
			s-14.402,7.238-14.311,6.646S490.362,382.801,490.362,382.801z"/>
	</g>
	<g style="clip-path:url(#SVGID_00000152233774522065556060000011127507475913806727_);">
		<path style="fill:#F2E4C1;" d="M521.237,666.417c2.114,3.483,9.879,17.915,11.597,18.538
			c1.718,0.623,154.721-85.319,154.721-85.319l-10.543-19.119C677.012,580.516,520.628,665.412,521.237,666.417z"/>
		<path style="fill:#394871;" d="M519.728,666.653c-0.098-0.177,3.376,3.645,3.376,3.645l155.406-87.063l-0.645-5.382
			L519.728,666.653z"/>
		<path style="fill:#394871;" d="M531.087,687.25c0.098,0.177-1.281-4.801-1.281-4.801l156.562-84.968l4.208,3.417L531.087,687.25z"
			/>
		<path style="fill:#FBF5E2;" d="M527.708,672.701c0,0,146.692-85.445,147.38-84.641
			C675.776,588.865,527.708,672.701,527.708,672.701z"/>
		<path style="fill:#FBF5E2;" d="M677.936,591.345c0,0-147.013,84.892-147.698,84.084
			C529.554,674.622,677.936,591.345,677.936,591.345z"/>
		<path style="fill:#FBF5E2;" d="M531.406,679.406c5.169-2.577,147.695-84.955,148.236-83.088
			C680.182,598.184,531.406,679.406,531.406,679.406z"/>
	</g>
	<g style="clip-path:url(#SVGID_00000152233774522065556060000011127507475913806727_);">
		<path style="fill:#E9D587;" d="M494.601,710.918c-1.989,3.556-10.716,17.428-10.417,19.225
			c0.299,1.798,149.646,92.012,149.646,92.012l11.436-18.599C645.266,803.557,495.175,709.892,494.601,710.918z"/>
		<path style="fill:#394871;" d="M627.624,794.044c0,0-10.506,15.869-9.963,16.203c0.543,0.334,5.059,3.953,5.435,3.342
			c0.376-0.611,10.856-16.286,9.963-16.203C632.165,797.468,627.624,794.044,627.624,794.044z"/>
		<path style="fill:#394871;" d="M619.805,789.424c0,0-10.506,15.869-9.963,16.203c0.544,0.334,5.059,3.953,5.435,3.342
			c0.376-0.612,10.856-16.286,9.963-16.203C624.347,792.849,619.805,789.424,619.805,789.424z"/>
		<path style="fill:#394871;" d="M501.451,716.451c-1.404,1.256-10.22,16.621-10.22,16.621l2.446,1.504l10.136-16.485
			L501.451,716.451z"/>
		<path style="fill:#394871;" d="M508.069,732.067c0,0,40.736,18.713,53.114,26.674c12.379,7.961,45.352,32.974,45.293,33.834
			c-0.058,0.859-49.171-26.156-50.177-26.576C555.294,765.58,508.069,732.067,508.069,732.067z"/>
	</g>
	<g style="clip-path:url(#SVGID_00000152233774522065556060000011127507475913806727_);">
		<path style="fill:#C65B32;" d="M665.995,10.952c2.223-12.523-31.011-29.918-32.816-28.958
			c-1.805,0.96-123.681,144.86-123.681,144.86s27.928,28.633,29.774,28.348C541.119,154.917,665.358,14.538,665.995,10.952z"/>
		<path style="fill:#394871;" d="M627.763,31.288c-0.222-0.196-2.375-2.096-2.375-2.096s-78.7,89.728-78.599,90.021
			c0.1,0.293,2.287,2.018,2.287,2.018L627.763,31.288z"/>
		<path style="fill:#394871;" d="M623.121,26.64c-0.222-0.196-2.375-2.096-2.375-2.096s-78.7,89.727-78.6,90.021
			c0.1,0.293,2.287,2.018,2.287,2.018L623.121,26.64z"/>
		<path style="fill:#E9D587;" d="M660.097,15.012c0,0-28.565-26.217-29.566-25.695c-1.002,0.522-2.362,2.45-2.362,2.45
			l29.285,25.986L660.097,15.012z"/>
		<path style="fill:#E9D587;" d="M643.633,33.089c0,0-28.565-26.217-29.566-25.695c-1.001,0.522-2.362,2.45-2.362,2.45L640.99,35.83
			L643.633,33.089z"/>
		<path style="fill:#E9D587;" d="M554.133,137.539c0,0-28.565-26.217-29.566-25.695c-1.001,0.522-2.362,2.45-2.362,2.45
			l29.285,25.986L554.133,137.539z"/>
		<path style="fill:#E9D587;" d="M557.933,133.233c0,0-28.564-26.217-29.566-25.695c-1.002,0.522-2.362,2.45-2.362,2.45
			l29.285,25.986L557.933,133.233z"/>
	</g>
	<g style="clip-path:url(#SVGID_00000152233774522065556060000011127507475913806727_);">
		<path style="fill:#E9D587;" d="M-10.074,193.699c-3.626-1.997-27.234,16.527-27.594,18.564
			C-38.027,214.3,68.67,370.328,68.67,370.328s31.449-17.12,29.579-19.899C96.38,347.649-8.241,194.708-10.074,193.699z"/>
		<path style="fill:#D98968;" d="M4.617,240.415c-0.122,0.082-1.298,0.873-1.298,0.873s58.735,86.988,58.92,87.025
			c0.186,0.038,1.25-0.841,1.25-0.841L4.617,240.415z"/>
		<path style="fill:#C65B32;" d="M-1.246,218.333c0,0-16.138,10.088-15.782,10.617c0.356,0.529,2.966,5.694,3.561,5.294
			c0.595-0.401,16.629-10.322,15.782-10.617C1.468,223.332-1.246,218.333-1.246,218.333z"/>
		<path style="fill:#C65B32;" d="M83.043,329.542c0,0-28.224,18.345-27.932,19.422c0.292,1.076,1.774,2.905,1.774,2.905
			l28.143-19.076L83.043,329.542z"/>
		<path style="fill:#D98968;" d="M90.241,340.978c0,0-28.224,18.346-27.932,19.422c0.292,1.076,1.774,2.905,1.774,2.905
			l28.143-19.076L90.241,340.978z"/>
		<path style="fill:#C65B32;" d="M79.866,324.76c0,0-28.224,18.345-27.932,19.422c0.292,1.076,1.774,2.905,1.774,2.905
			l28.143-19.076L79.866,324.76z"/>
		<path style="fill:#D98968;" d="M-20.926,206.393c5.311-3.572,14.49,1.072,13.668,6.6c-0.823,5.528-7.921,10.087-13.429,6.078
			C-24.363,216.397-25.591,209.532-20.926,206.393z"/>
	</g>
	<g style="clip-path:url(#SVGID_00000152233774522065556060000011127507475913806727_);">
		<path style="fill:#FBF5E2;" d="M430.431,815.53c-3.734,2.846-9.214,39.902-7.475,41.031
			c1.739,1.129,189.966,39.965,189.966,39.965s7.969-39.493,6.809-40.992C618.57,854.035,433.37,813.291,430.431,815.53z"/>
		<path style="fill:#E9D587;" d="M428.591,812.609c0,0-2.768,6.336-1.627,7.375c1.141,1.039,194.005,40.075,194.005,40.075
			s2.529-6.649,1.516-6.872C621.473,852.963,428.591,812.609,428.591,812.609z"/>
		<path style="fill:#E9D587;" d="M419.747,858.505c0,0,0.073-6.913,1.54-7.393c1.466-0.48,193.379,42.997,193.379,42.997
			s-0.419,7.101-1.435,6.89C612.215,900.786,419.747,858.505,419.747,858.505z"/>
		<path style="fill:#F2E4C1;" d="M427.371,828.274c0,0,189.024,37.568,189.034,38.647C616.415,868,427.371,828.274,427.371,828.274z
			"/>
		<path style="fill:#F2E4C1;" d="M425.698,835.857c6.346,1.649,189.535,38.63,188.647,40.403S425.698,835.857,425.698,835.857z"/>
		<path style="fill:#F2E4C1;" d="M612.675,883.822c-3.133-0.443-186.174-38.095-186.174-38.095l0.627-2.844L612.675,883.822z"/>
	</g>
	<g style="clip-path:url(#SVGID_00000152233774522065556060000011127507475913806727_);">
		<path style="fill:#FBF5E2;" d="M79.475-51.091C75.741-48.245,70.261-11.189,72-10.06c1.739,1.129,189.966,39.965,189.966,39.965
			s7.969-39.493,6.809-40.992C267.614-12.585,82.413-53.33,79.475-51.091z"/>
		<path style="fill:#E9D587;" d="M77.635-54.012c0,0-2.768,6.336-1.627,7.375c1.141,1.039,194.005,40.075,194.005,40.075
			s2.529-6.649,1.516-6.872C270.516-13.658,77.635-54.012,77.635-54.012z"/>
		<path style="fill:#E9D587;" d="M68.79-8.116c0,0,0.073-6.913,1.54-7.393c1.466-0.48,193.379,42.997,193.379,42.997
			s-0.419,7.101-1.435,6.89C261.259,34.166,68.79-8.116,68.79-8.116z"/>
		<path style="fill:#F2E4C1;" d="M76.415-38.347c0,0,189.023,37.568,189.034,38.647C265.459,1.379,76.415-38.347,76.415-38.347z"/>
		<path style="fill:#F2E4C1;" d="M74.741-30.764c6.346,1.649,189.535,38.63,188.647,40.403
			C262.499,11.412,74.741-30.764,74.741-30.764z"/>
		<path style="fill:#F2E4C1;" d="M261.719,17.202c-3.133-0.443-186.174-38.095-186.174-38.095l0.627-2.844L261.719,17.202z"/>
	</g>
	<g style="clip-path:url(#SVGID_00000152233774522065556060000011127507475913806727_);">
		<path style="fill:#FBF5E2;" d="M-40.59,896.534c0.72,2.319,7.413,23.025,9.707,23.039s207.951-88.266,207.6-89.099
			c-0.351-0.833-10.408-24.705-10.408-24.705S-41.213,894.528-40.59,896.534z"/>
		<path style="fill:#C65B32;" d="M-43.618,894.215c0.549,1.806,1.772,5.949,2.571,6.102c0.799,0.153,209.807-92.008,209.807-92.008
			l-2.406-5.71L-43.618,894.215z"/>
		<path style="fill:#C65B32;" d="M178.026,831.204c-0.549-1.806-1.772-5.949-2.571-6.102
			c-0.799-0.153-209.807,92.008-209.807,92.008l2.406,5.71L178.026,831.204z"/>
		<path style="fill:#F2E4C1;" d="M-38.155,900.2c6.999-2.622,201.64-89.153,202.057-86.738S-38.155,900.2-38.155,900.2z"/>
		<path style="fill:#F2E4C1;" d="M167.635,822.322c-3.197,1.674-198.17,87.414-198.17,87.414l-1.403-3.331L167.635,822.322z"/>
	</g>
	<g style="clip-path:url(#SVGID_00000152233774522065556060000011127507475913806727_);">
		
			<text transform="matrix(1 0 0 1 117.5975 251.9131)" style="fill:#C65B32; font-family:'RubikRoman-Black'; font-size:67.6344px;">BOOK DAY</text>
	</g>
	<g style="clip-path:url(#SVGID_00000152233774522065556060000011127507475913806727_);">
		
			<text transform="matrix(1 0 0 1 172.9891 176.8389)" style="fill:#C65B32; font-family:'RubikRoman-Black'; font-size:67.6344px;">WORLD</text>
	</g>
	<g style="clip-path:url(#SVGID_00000152233774522065556060000011127507475913806727_);">
		<text transform="matrix(1 0 0 1 136.5178 298.2626)"><tspan x="0" y="0" style="fill:#394871; font-family:'Rubik-Light'; font-size:18.9356px;">Lorem ipsum dolor sit amet, consectetur </tspan><tspan x="39.604" y="22.723" style="fill:#394871; font-family:'Rubik-Light'; font-size:18.9356px;">adipiscing elit, sed do eiusmod</tspan></text>
	</g>
	<g style="clip-path:url(#SVGID_00000152233774522065556060000011127507475913806727_);">
		<g>
			<path style="fill:#E9D587;" d="M104.099,498.491c-2.652,0.705-5.471,20.394-4.71,21.535s123.355,26.981,123.355,26.981
				s7.218-22.609,5.049-23.084C225.625,523.448,105.439,498.135,104.099,498.491z"/>
			<path style="fill:#D98968;" d="M132.541,514.135c-0.021,0.095-0.222,1.013-0.222,1.013s67.988,14.75,68.095,14.683
				c0.106-0.067,0.214-0.976,0.214-0.976L132.541,514.135z"/>
			<path style="fill:#C65B32;" d="M119.615,506.245c0,0-3.107,12.226-2.694,12.317c0.413,0.09,4.03,1.368,4.131,0.904
				c0.102-0.465,3.235-12.564,2.694-12.317C123.205,507.395,119.615,506.245,119.615,506.245z"/>
			<path style="fill:#C65B32;" d="M210.94,520.887c0,0-5.112,21.719-4.479,22.1c0.633,0.382,2.18,0.579,2.18,0.579l4.738-22.032
				L210.94,520.887z"/>
			<path style="fill:#D98968;" d="M219.628,523.066c0,0-5.112,21.719-4.479,22.1c0.633,0.382,2.18,0.578,2.18,0.578l4.738-22.031
				L219.628,523.066z"/>
			<path style="fill:#C65B32;" d="M207.228,520.052c0,0-5.112,21.719-4.479,22.1c0.633,0.382,2.18,0.579,2.18,0.579l4.738-22.032
				L207.228,520.052z"/>
			<path style="fill:#D98968;" d="M104.718,509.544c0.907-4.144,7.431-6.126,9.57-3.102c2.139,3.025,0.828,8.46-3.647,9.064
				C107.655,515.91,103.921,513.184,104.718,509.544z"/>
		</g>
		<g>
			<path style="fill:#80A4EE;" d="M169.25,419.605c-7.412-1.703-18.798,17.622-18.278,18.729
				c0.519,1.107,82.798,78.208,82.798,78.208s17.937-15.819,17.823-16.93C251.478,498.5,171.373,420.093,169.25,419.605z"/>
			<path style="fill:#8EC9B7;" d="M180.248,443.047c-0.124,0.127-1.323,1.355-1.323,1.355s51.223,49.691,51.401,49.64
				c0.178-0.051,1.274-1.305,1.274-1.305L180.248,443.047z"/>
			<path style="fill:#8EC9B7;" d="M177.333,445.68c-0.124,0.127-1.323,1.355-1.323,1.355s51.223,49.691,51.401,49.64
				c0.178-0.051,1.274-1.305,1.274-1.305L177.333,445.68z"/>
			<path style="fill:#E9D587;" d="M171.498,423.249c0,0-16.513,16.272-16.232,16.885c0.282,0.614,1.393,1.484,1.393,1.484
				l16.397-16.709L171.498,423.249z"/>
			<path style="fill:#E9D587;" d="M181.799,433.624c0,0-16.514,16.272-16.232,16.885c0.282,0.614,1.393,1.484,1.393,1.484
				l16.398-16.709L181.799,433.624z"/>
			<path style="fill:#E9D587;" d="M241.491,490.206c0,0-16.514,16.272-16.232,16.886c0.282,0.614,1.393,1.484,1.393,1.484
				l16.398-16.709L241.491,490.206z"/>
			<path style="fill:#E9D587;" d="M239.033,487.808c0,0-16.514,16.272-16.232,16.886c0.282,0.614,1.393,1.484,1.393,1.484
				l16.397-16.709L239.033,487.808z"/>
			<path style="fill:#8EC9B7;" d="M172.009,427.532c0.665,0.547,7.544,6.865,7.295,7.12c-0.249,0.255-2.947,3.019-2.947,3.019
				s-7.673-7.039-7.295-7.12C169.441,430.471,172.009,427.532,172.009,427.532z"/>
			<path style="fill:#8EC9B7;" d="M167.216,432.443c0.666,0.547,7.544,6.865,7.295,7.12c-0.249,0.255-2.947,3.019-2.947,3.019
				s-7.673-7.039-7.295-7.12C164.648,435.382,167.216,432.443,167.216,432.443z"/>
			<path style="fill:#8EC9B7;" d="M162.423,437.354c0.666,0.547,7.544,6.865,7.295,7.119c-0.249,0.255-2.946,3.019-2.946,3.019
				s-7.673-7.039-7.295-7.119C159.855,440.293,162.423,437.354,162.423,437.354z"/>
		</g>
		<g>
			<path style="fill:#FBF5E2;" d="M136.856,464.837c-2.21,1.028-9.111,19.207-8.355,19.973c0.756,0.766,91.876,41.398,91.876,41.398
				s8.434-19.138,8.013-20.027C227.968,505.292,138.595,464.028,136.856,464.837z"/>
			<path style="fill:#E9D587;" d="M136.248,463.151c0,0-2.108,2.905-1.646,3.558c0.463,0.654,93.912,41.903,93.912,41.903
				s2.022-3.09,1.533-3.316C229.559,505.071,136.248,463.151,136.248,463.151z"/>
			<path style="fill:#E9D587;" d="M126.658,485.438c0,0,0.806-3.497,1.603-3.577c0.797-0.08,93.269,43.315,93.269,43.315
				s-1.003,3.554-1.494,3.334S126.658,485.438,126.658,485.438z"/>
			<path style="fill:#F2E4C1;" d="M133.887,470.958c0,0,91.665,40.078,91.55,40.626
				C225.322,512.132,133.887,470.958,133.887,470.958z"/>
			<path style="fill:#F2E4C1;" d="M132.195,474.617c3.034,1.542,91.806,40.673,91.158,41.473
				C222.705,516.89,132.195,474.617,132.195,474.617z"/>
			<path style="fill:#F2E4C1;" d="M221.665,519.739c-1.539-0.573-90.161-40.028-90.161-40.028l0.635-1.372L221.665,519.739z"/>
		</g>
		<g>
			<path style="fill:#E9D587;" d="M250.728,472.467c3.128-2.065,15.958-10.002,16.696-11.208c0.738-1.206-49.119-78.37-49.119-78.37
				l-17.03,10.674C201.274,393.563,249.825,473.062,250.728,472.467z"/>
			<path style="fill:#394871;" d="M207.756,401.935c0,0,15.015-9.014,14.837-9.299c-0.178-0.285-1.224-3.197-1.784-2.846
				c-0.56,0.351-15.457,9.242-14.837,9.299C206.593,399.146,207.756,401.935,207.756,401.935z"/>
			<path style="fill:#394871;" d="M210.42,405.907c0,0,15.015-9.014,14.837-9.299c-0.178-0.285-1.224-3.197-1.784-2.846
				c-0.56,0.351-15.457,9.242-14.837,9.299C209.256,403.118,210.42,405.907,210.42,405.907z"/>
			<path style="fill:#394871;" d="M249.164,468.021c1.559-0.643,15.219-9.539,15.219-9.539l-0.803-1.281l-15.094,9.461
				L249.164,468.021z"/>
			<path style="fill:#394871;" d="M252.972,457.048c0,0-16.652-17.216-20.534-23.926s-12.25-27.059-11.767-27.611
				c0.483-0.551,18.252,23.1,18.685,23.498C239.79,429.406,252.972,457.048,252.972,457.048z"/>
		</g>
		<g>
			<path style="fill:#C65B32;" d="M118.446,552.846c-5.942,3.087-2.551,22.544-1.571,22.989c0.98,0.446,100.151,5.204,100.151,5.204
				s3.003-20.843,2.292-21.523C218.607,558.836,120.148,551.962,118.446,552.846z"/>
			<path style="fill:#394871;" d="M139.198,562.291c-0.011,0.156-0.114,1.664-0.114,1.664s62.705,4.097,62.795,3.961
				c0.09-0.136,0.109-1.602,0.109-1.602L139.198,562.291z"/>
			<path style="fill:#394871;" d="M138.745,565.72c-0.011,0.156-0.114,1.664-0.114,1.664s62.705,4.097,62.795,3.961
				c0.09-0.136,0.11-1.602,0.11-1.602L138.745,565.72z"/>
			<path style="fill:#E9D587;" d="M122.033,554.007c0,0-1.79,20.335-1.251,20.586c0.539,0.251,1.781,0.201,1.781,0.201l1.463-20.562
				L122.033,554.007z"/>
			<path style="fill:#E9D587;" d="M134.861,555.086c0,0-1.79,20.335-1.251,20.586c0.539,0.251,1.781,0.201,1.781,0.201l1.463-20.562
				L134.861,555.086z"/>
			<path style="fill:#E9D587;" d="M207.177,558.973c0,0-1.79,20.335-1.251,20.586c0.539,0.251,1.781,0.201,1.781,0.201l1.462-20.562
				L207.177,558.973z"/>
			<path style="fill:#E9D587;" d="M204.161,558.766c0,0-1.79,20.335-1.251,20.586c0.539,0.251,1.781,0.201,1.781,0.201l1.462-20.562
				L204.161,558.766z"/>
		</g>
		<g>
			<path style="fill:#8EC9B7;" d="M227.383,371.018c2.868-9.203,31.299-9.329,32.179-8.054
				c0.88,1.275,32.759,140.601,32.759,140.601s-28.775,9.538-29.919,8.703C261.258,511.433,226.561,373.654,227.383,371.018z"/>
			<path style="fill:#394871;" d="M246.027,398.029c0.218-0.055,2.329-0.583,2.329-0.583s21.699,87.818,21.529,87.981
				c-0.17,0.163-2.243,0.561-2.243,0.561L246.027,398.029z"/>
			<path style="fill:#394871;" d="M250.771,396.518c0.218-0.055,2.329-0.583,2.329-0.583s21.699,87.818,21.529,87.981
				c-0.17,0.162-2.243,0.561-2.243,0.561L250.771,396.518z"/>
		</g>
		<g>
			<path style="fill:#F2E4C1;" d="M107.711,526.641c-2.597,0.885-4.059,20.721-3.222,21.807
				c0.838,1.086,124.916,18.455,124.916,18.455s5.65-23.051,3.454-23.376S109.023,526.194,107.711,526.641z"/>
			<path style="fill:#80A4EE;" d="M105.416,524.86c-0.255,0.961-0.856,3.157-0.51,3.449c0.347,0.291,129.357,17.339,129.357,17.339
				l0.477-3.227L105.416,524.86z"/>
			<path style="fill:#80A4EE;" d="M230.895,567.111c0.253-0.962,0.852-3.158,0.51-3.449c-0.343-0.291-127.984-17.136-127.984-17.136
				l-0.477,3.227L230.895,567.111z"/>
			<path style="fill:#FBF5E2;" d="M106.706,535.343c0,0,122.946,15.492,123,16.195C229.76,552.241,106.706,535.343,106.706,535.343z
				"/>
			<path style="fill:#FBF5E2;" d="M106.96,538.13c0,0,122.946,15.492,123,16.195C230.014,555.028,106.96,538.13,106.96,538.13z"/>
			<path style="fill:#FBF5E2;" d="M105.964,540.364c4.144,0.773,123.321,16.16,122.829,17.357
				C228.3,558.918,105.964,540.364,105.964,540.364z"/>
			<path style="fill:#FBF5E2;" d="M230.268,547.741c-4.145-0.773-123.321-16.16-122.829-17.357
				C107.932,529.186,230.268,547.741,230.268,547.741z"/>
		</g>
		<g>
			<path style="fill:#FBF5E2;" d="M251.637,508.249c3.068,0.037,20.801-16.839,20.36-18.121c-0.441-1.281-81.74-97.021-81.74-97.021
				s-19.996,17.13-20.001,18.369C170.25,412.715,249.223,508.22,251.637,508.249z"/>
			<path style="fill:#C65B32;" d="M251.409,510.494c0,0,3.975-2.149,3.805-3.143c-0.169-0.994-83.776-98.703-83.776-98.703
				s-3.978,2.406-3.546,2.928C168.324,412.1,251.409,510.494,251.409,510.494z"/>
			<path style="fill:#C65B32;" d="M274.432,490.419c0,0-2.82,3.531-3.768,3.188c-0.948-0.343-82.277-99.955-82.277-99.955
				s3.073-3.488,3.511-2.97C192.335,391.199,274.432,490.419,274.432,490.419z"/>
			<path style="fill:#F2E4C1;" d="M258.341,502.919c0,0-82.219-95.407-81.79-95.967C176.98,406.392,258.341,502.919,258.341,502.919
				z"/>
			<path style="fill:#F2E4C1;" d="M262.254,499.687c-2.604-3.403-82.055-96.16-80.884-96.715
				C182.54,402.416,262.254,499.687,262.254,499.687z"/>
			<path style="fill:#F2E4C1;" d="M185.272,399.749c1.435,1.489,80.54,94.532,80.54,94.532l-1.467,1.212L185.272,399.749z"/>
		</g>
		<g>
			<path style="fill:#8EC9B7;" d="M116.545,478.781c-0.797,2.58-4.533,12.78-4.09,13.904c0.443,1.124,109.74,38.924,109.74,38.924
				l4.838-13.639C227.032,517.97,116.775,478.037,116.545,478.781z"/>
			<path style="fill:#394871;" d="M214.279,514.246c0,0-4.613,11.741-4.215,11.882c0.398,0.141,3.827,1.862,3.986,1.414
				c0.159-0.448,4.782-12.06,4.215-11.882C217.697,515.837,214.279,514.246,214.279,514.246z"/>
			<path style="fill:#394871;" d="M208.572,512.335c0,0-4.613,11.741-4.215,11.882c0.399,0.141,3.827,1.862,3.986,1.414
				c0.159-0.448,4.782-12.06,4.215-11.882C211.99,513.925,208.572,512.335,208.572,512.335z"/>
			<path style="fill:#394871;" d="M121.751,481.419c-0.736,1.009-4.323,12.189-4.323,12.189l1.794,0.636l4.288-12.089
				L121.751,481.419z"/>
			<path style="fill:#394871;" d="M128.203,490.625c0,0,28.996,6.49,38.122,9.936c9.126,3.446,33.962,15.095,34.043,15.66
				c0.081,0.565-35.494-10.147-36.204-10.279C163.454,505.81,128.203,490.625,128.203,490.625z"/>
		</g>
		<g>
			<path style="fill:#394871;" d="M228.106,521.591c2.726,0.311,12.536-16.991,12.244-18.331
				c-0.292-1.34-105.003-70.135-105.003-70.135s-14.971,18.416-13.124,19.65C124.068,454.008,226.728,521.434,228.106,521.591z"/>
			<path style="fill:#D98968;" d="M207.334,496.648c0.054-0.081,0.576-0.863,0.576-0.863s-57.917-38.543-58.041-38.52
				c-0.123,0.024-0.555,0.831-0.555,0.831L207.334,496.648z"/>
			<path style="fill:#C65B32;" d="M216.49,508.71c0,0,7.354-10.249,7.003-10.484c-0.352-0.235-3.252-2.745-3.517-2.349
				c-0.264,0.396-7.596,10.517-7.003,10.484S216.49,508.71,216.49,508.71z"/>
			<path style="fill:#C65B32;" d="M136.805,461.752c0,0,12.685-18.355,12.235-18.942s-1.819-1.334-1.819-1.334l-12.451,18.783
				L136.805,461.752z"/>
			<path style="fill:#D98968;" d="M129.511,456.553c0,0,12.685-18.356,12.235-18.942c-0.45-0.586-1.819-1.334-1.819-1.334
				l-12.451,18.783L129.511,456.553z"/>
			<path style="fill:#C65B32;" d="M139.957,463.884c0,0,12.685-18.356,12.235-18.942s-1.819-1.334-1.819-1.334l-12.451,18.783
				L139.957,463.884z"/>
			<path style="fill:#D98968;" d="M231.563,511.075c-2.357,3.528-9.154,2.992-10.042-0.605c-0.888-3.596,2.316-8.179,6.703-7.109
				C231.151,504.076,233.633,507.976,231.563,511.075z"/>
		</g>
		<g>
			<path style="fill:#E9D587;" d="M339.697,363.799c-0.979-2.563-20.855-3.305-21.909-2.429
				c-1.055,0.876-13.914,125.503-13.914,125.503s23.241,4.81,23.486,2.604C327.604,487.27,340.191,365.094,339.697,363.799z"/>
			<path style="fill:#D98968;" d="M327.118,393.722c-0.096-0.011-1.031-0.114-1.031-0.114s-7.549,69.159-7.471,69.258
				c0.078,0.099,0.993,0.11,0.993,0.11L327.118,393.722z"/>
			<path style="fill:#C65B32;" d="M333.611,380.041c0,0-12.484-1.81-12.531-1.389c-0.047,0.42-0.939,4.151-0.466,4.203
				c0.473,0.052,12.833,1.901,12.531,1.389C332.842,383.732,333.611,380.041,333.611,380.041z"/>
			<path style="fill:#C65B32;" d="M328.613,472.398c0,0-22.135-2.809-22.448-2.14c-0.313,0.67-0.347,2.229-0.347,2.229l22.407,2.405
				L328.613,472.398z"/>
			<path style="fill:#D98968;" d="M327.356,481.266c0,0-22.135-2.809-22.448-2.14c-0.313,0.669-0.347,2.229-0.347,2.229
				l22.407,2.405L327.356,481.266z"/>
			<path style="fill:#C65B32;" d="M329.055,468.618c0,0-22.135-2.809-22.448-2.14s-0.347,2.229-0.347,2.229l22.407,2.405
				L329.055,468.618z"/>
			<path style="fill:#D98968;" d="M328.77,365.572c4.217,0.468,6.871,6.749,4.087,9.193c-2.784,2.444-8.327,1.709-9.396-2.677
				C322.746,369.16,325.066,365.161,328.77,365.572z"/>
		</g>
		<g>
			<path style="fill:#80A4EE;" d="M425.641,418.831c0.918-7.549-19.494-16.849-20.54-16.216
				c-1.046,0.632-69.107,90.533-69.107,90.533s17.61,16.182,18.704,15.951C355.791,508.869,425.378,420.993,425.641,418.831z"/>
			<path style="fill:#8EC9B7;" d="M403.479,432.223c-0.139-0.11-1.486-1.174-1.486-1.174s-44.053,56.145-43.984,56.317
				c0.069,0.172,1.432,1.13,1.432,1.13L403.479,432.223z"/>
			<path style="fill:#8EC9B7;" d="M400.556,429.599c-0.139-0.11-1.487-1.174-1.487-1.174s-44.053,56.145-43.984,56.317
				c0.069,0.172,1.432,1.13,1.432,1.13L400.556,429.599z"/>
			<path style="fill:#E9D587;" d="M422.252,421.448c0,0-17.912-14.719-18.493-14.374c-0.581,0.344-1.33,1.54-1.33,1.54
				l18.335,14.557L422.252,421.448z"/>
			<path style="fill:#E9D587;" d="M413.013,432.779c0,0-17.912-14.719-18.493-14.374c-0.581,0.344-1.33,1.54-1.33,1.54
				l18.335,14.557L413.013,432.779z"/>
			<path style="fill:#E9D587;" d="M362.993,498.068c0,0-17.912-14.719-18.493-14.374c-0.581,0.344-1.33,1.54-1.33,1.54
				l18.335,14.557L362.993,498.068z"/>
			<path style="fill:#E9D587;" d="M365.121,495.373c0,0-17.912-14.719-18.493-14.374c-0.581,0.344-1.33,1.54-1.33,1.54
				l18.335,14.557L365.121,495.373z"/>
			<path style="fill:#8EC9B7;" d="M418.046,422.404c-0.474,0.719-6.037,8.221-6.316,8.001c-0.279-0.221-3.311-2.614-3.311-2.614
				s6.197-8.368,6.316-8C414.855,420.158,418.046,422.404,418.046,422.404z"/>
			<path style="fill:#8EC9B7;" d="M412.66,418.152c-0.474,0.719-6.037,8.221-6.316,8s-3.311-2.614-3.311-2.614s6.197-8.368,6.316-8
				C409.469,415.906,412.66,418.152,412.66,418.152z"/>
			<path style="fill:#8EC9B7;" d="M407.274,413.9c-0.474,0.719-6.037,8.221-6.316,8c-0.279-0.221-3.311-2.614-3.311-2.614
				s6.197-8.368,6.316-8C404.083,411.654,407.274,413.9,407.274,413.9z"/>
		</g>
		<g>
			<path style="fill:#FBF5E2;" d="M374.394,400.75c-1.253-2.09-20.056-7.05-20.738-6.217c-0.683,0.832-31.549,95.706-31.549,95.706
				s19.917,6.384,20.756,5.871C343.703,495.598,375.38,402.395,374.394,400.75z"/>
			<path style="fill:#E9D587;" d="M376.007,399.969c0,0-3.109-1.793-3.711-1.264c-0.602,0.529-31.838,97.784-31.838,97.784
				s3.285,1.687,3.458,1.178C344.089,497.157,376.007,399.969,376.007,399.969z"/>
			<path style="fill:#E9D587;" d="M352.837,392.765c0,0,3.563,0.436,3.726,1.22c0.163,0.784-33.309,97.292-33.309,97.292
				s-3.639-0.625-3.472-1.137C319.949,489.629,352.837,392.765,352.837,392.765z"/>
			<path style="fill:#F2E4C1;" d="M367.995,398.438c0,0-30.258,95.358-30.815,95.301
				C336.623,493.682,367.995,398.438,367.995,398.438z"/>
			<path style="fill:#F2E4C1;" d="M364.179,397.139c-1.216,3.179-30.835,95.561-31.699,95
				C331.617,491.578,364.179,397.139,364.179,397.139z"/>
			<path style="fill:#F2E4C1;" d="M328.675,490.843c0.409-1.591,30.366-93.857,30.366-93.857l1.431,0.487L328.675,490.843z"/>
		</g>
		<g>
			<path style="fill:#E9D587;" d="M383.442,498.392c2.381,2.895,11.618,14.823,12.894,15.43s72.795-57.057,72.795-57.057
				l-12.399-15.819C456.732,440.947,382.755,497.557,383.442,498.392z"/>
			<path style="fill:#394871;" d="M449.085,448.27c0,0,10.537,13.988,10.802,13.781c0.264-0.207,3.051-1.552,2.644-2.072
				c-0.408-0.52-10.81-14.404-10.802-13.781C451.737,446.821,449.085,448.27,449.085,448.27z"/>
			<path style="fill:#394871;" d="M445.414,451.336c0,0,10.537,13.988,10.802,13.781c0.264-0.207,3.052-1.552,2.644-2.072
				c-0.408-0.52-10.81-14.404-10.802-13.781C448.066,449.886,445.414,451.336,445.414,451.336z"/>
			<path style="fill:#394871;" d="M387.699,496.371c0.802,1.483,11.08,14.137,11.08,14.137l1.19-0.932l-10.989-14.021
				L387.699,496.371z"/>
			<path style="fill:#394871;" d="M399.011,499.01c0,0,15.377-18.363,21.643-22.927c6.267-4.564,25.628-15.016,26.227-14.594
				c0.599,0.423-21.062,20.571-21.412,21.044C425.12,483.005,399.011,499.01,399.011,499.01z"/>
		</g>
		<g>
			<path style="fill:#394871;" d="M367.577,518.16c0.625,3.109,2.49,15.728,3.577,16.64c1.087,0.911,135.053-21.377,135.053-21.377
				l-2.657-16.785C503.549,496.637,367.396,517.263,367.577,518.16z"/>
			<path style="fill:#E9D587;" d="M488.303,499.946c0,0,1.824,14.701,2.315,14.623c0.491-0.078,4.992-0.225,4.905-0.776
				c-0.087-0.552-1.828-15.124-2.315-14.623C492.722,499.671,488.303,499.946,488.303,499.946z"/>
			<path style="fill:#E9D587;" d="M481.342,501.174c0,0,1.824,14.701,2.315,14.623c0.491-0.078,4.992-0.225,4.905-0.776
				c-0.087-0.552-1.828-15.124-2.315-14.623C485.761,500.899,481.342,501.174,481.342,501.174z"/>
			<path style="fill:#E9D587;" d="M374.427,517.962c-0.194,1.454,2.374,15,2.374,15l2.207-0.349l-2.355-14.877L374.427,517.962z"/>
			<path style="fill:#E9D587;" d="M386.247,523.843c0,0,33.556-9.563,44.905-11.125c11.349-1.562,43.506-3.47,43.906-2.932
				c0.4,0.538-42.312,9.435-43.119,9.696C431.132,519.743,386.247,523.843,386.247,523.843z"/>
		</g>
		<g>
			<path style="fill:#C65B32;" d="M286.554,391.755c-3.692-5.587-22.687-0.176-23.027,0.845
				c-0.341,1.021,5.313,100.146,5.313,100.146s21.043,0.804,21.645,0.025C291.087,491.992,287.612,393.355,286.554,391.755z"/>
			<path style="fill:#394871;" d="M279.334,413.381c-0.156,0.006-1.667,0.061-1.667,0.061s2.493,62.789,2.637,62.865
				c0.145,0.076,1.605-0.059,1.605-0.059L279.334,413.381z"/>
			<path style="fill:#394871;" d="M275.876,413.29c-0.156,0.006-1.667,0.061-1.667,0.061s2.493,62.789,2.637,62.865
				c0.145,0.076,1.605-0.059,1.605-0.059L275.876,413.29z"/>
			<path style="fill:#E9D587;" d="M285.775,395.444c0,0-20.41,0.35-20.603,0.912c-0.193,0.562-0.013,1.792-0.013,1.792l20.602-0.699
				L285.775,395.444z"/>
			<path style="fill:#E9D587;" d="M286.045,408.314c0,0-20.41,0.35-20.604,0.912c-0.193,0.562-0.013,1.792-0.013,1.792l20.602-0.699
				L286.045,408.314z"/>
			<path style="fill:#E9D587;" d="M289.754,480.639c0,0-20.41,0.35-20.604,0.912c-0.193,0.562-0.013,1.792-0.013,1.792l20.602-0.699
				L289.754,480.639z"/>
			<path style="fill:#E9D587;" d="M289.643,477.618c0,0-20.41,0.35-20.603,0.912c-0.193,0.562-0.013,1.792-0.013,1.792l20.602-0.699
				L289.643,477.618z"/>
		</g>
		<g>
			<path style="fill:#8EC9B7;" d="M488.893,456.911c9.453,1.888,12.556,30.15,11.379,31.158
				c-1.176,1.009-136.397,47.304-136.397,47.304s-12.5-27.618-11.789-28.843C352.798,505.305,486.186,456.37,488.893,456.911z"/>
			<path style="fill:#394871;" d="M463.983,478.281c0.077,0.211,0.824,2.255,0.824,2.255s-85.063,30.776-85.242,30.624
				c-0.179-0.152-0.793-2.172-0.793-2.172L463.983,478.281z"/>
			<path style="fill:#394871;" d="M465.982,482.841c0.077,0.211,0.823,2.255,0.823,2.255s-85.063,30.776-85.242,30.624
				c-0.179-0.152-0.793-2.172-0.793-2.172L465.982,482.841z"/>
		</g>
		<g>
			<path style="fill:#F2E4C1;" d="M314.587,361.835c-1.152-2.49-21.033-1.867-22.024-0.92c-0.992,0.947-5.272,126.161-5.272,126.161
				s23.516,3.205,23.609,0.986S315.17,363.094,314.587,361.835z"/>
			<path style="fill:#80A4EE;" d="M316.119,359.367c-0.983-0.152-3.23-0.521-3.483-0.146c-0.254,0.375-3.697,130.462-3.697,130.462
				l3.26,0.136L316.119,359.367z"/>
			<path style="fill:#80A4EE;" d="M287.241,488.58c0.983,0.151,3.23,0.517,3.483,0.146s3.639-129.075,3.639-129.075l-3.259-0.136
				L287.241,488.58z"/>
			<path style="fill:#FBF5E2;" d="M305.828,361.747c0,0-2.531,123.893-3.225,124.02C301.91,485.895,305.828,361.747,305.828,361.747
				z"/>
			<path style="fill:#FBF5E2;" d="M303.083,362.292c0,0-2.531,123.893-3.224,124.02
				C299.165,486.439,303.083,362.292,303.083,362.292z"/>
			<path style="fill:#FBF5E2;" d="M300.758,361.536c-0.334,4.203-3.156,124.335-4.398,123.971
				C295.117,485.142,300.758,361.536,300.758,361.536z"/>
			<path style="fill:#FBF5E2;" d="M306.439,485.928c0.334-4.203,3.156-124.335,4.398-123.971
				C312.08,362.322,306.439,485.928,306.439,485.928z"/>
		</g>
		<g>
			<path style="fill:#F2E4C1;" d="M372.845,528.699c-2.38,1.365-0.028,21.115,1.001,22.021c1.029,0.906,126.141-5.735,126.141-5.735
				s1.145-23.706-1.073-23.605C496.697,521.48,374.048,528.009,372.845,528.699z"/>
			<path style="fill:#80A4EE;" d="M370.253,527.388c-0.066,0.992-0.238,3.263,0.158,3.483c0.396,0.22,130.288-7.679,130.288-7.679
				l-0.148-3.259L370.253,527.388z"/>
			<path style="fill:#80A4EE;" d="M501.49,544.904c0.065-0.992,0.234-3.263-0.158-3.483c-0.392-0.22-128.901,7.616-128.901,7.616
				l0.148,3.259L501.49,544.904z"/>
			<path style="fill:#FBF5E2;" d="M373.521,537.433c0,0,123.642-8.268,123.829-7.588
				C497.537,530.524,373.521,537.433,373.521,537.433z"/>
			<path style="fill:#FBF5E2;" d="M374.302,540.12c0,0,123.642-8.268,123.829-7.588C498.319,533.211,374.302,540.12,374.302,540.12z
				"/>
			<path style="fill:#FBF5E2;" d="M373.751,542.502c4.216-0.033,124.138-7.684,123.883-6.414
				C497.379,537.357,373.751,542.502,373.751,542.502z"/>
			<path style="fill:#FBF5E2;" d="M497.176,526.01c-4.216,0.033-124.138,7.684-123.883,6.414
				C373.548,531.155,497.176,526.01,497.176,526.01z"/>
		</g>
		<g>
			<path style="fill:#FBF5E2;" d="M347.951,503.044c0.284,3.055,18.925,18.923,20.153,18.35
				c1.228-0.573,87.927-91.451,87.927-91.451s-19.13-18.092-20.362-17.967C434.436,412.1,347.727,500.64,347.951,503.044z"/>
			<path style="fill:#C65B32;" d="M345.695,503.053c0,0,2.553,3.728,3.524,3.455c0.971-0.272,89.387-93.652,89.387-93.652
				s-2.809-3.704-3.284-3.22C434.847,410.12,345.695,503.053,345.695,503.053z"/>
			<path style="fill:#C65B32;" d="M368.07,523.846c0,0-3.806-2.434-3.565-3.413c0.242-0.979,90.789-92.293,90.789-92.293
				s3.79,2.691,3.322,3.181C458.148,431.81,368.07,523.846,368.07,523.846z"/>
			<path style="fill:#F2E4C1;" d="M353.955,509.153c0,0,86.272-91.759,86.874-91.391C441.43,418.13,353.955,509.153,353.955,509.153
				z"/>
			<path style="fill:#F2E4C1;" d="M357.578,512.706c3.111-2.946,87.038-91.675,87.713-90.568
				C445.966,423.244,357.578,512.706,357.578,512.706z"/>
			<path style="fill:#F2E4C1;" d="M448.905,425.681c-1.33,1.583-85.577,89.997-85.577,89.997l-1.359-1.332L448.905,425.681z"/>
		</g>
		<g>
			<path style="fill:#8EC9B7;" d="M357.894,378.181c-2.65-0.522-13.185-3.17-14.256-2.612
				c-1.071,0.558-27.217,113.213-27.217,113.213l14.071,3.383C330.491,492.165,358.658,378.332,357.894,378.181z"/>
			<path style="fill:#394871;" d="M332.859,479.092c0,0-12.16-3.358-12.258-2.947c-0.099,0.411-1.451,4.001-0.989,4.112
				c0.463,0.111,12.494,3.493,12.259,2.947C331.635,482.658,332.859,479.092,332.859,479.092z"/>
			<path style="fill:#394871;" d="M334.163,473.216c0,0-12.16-3.358-12.259-2.947c-0.099,0.411-1.451,4.001-0.988,4.112
				c0.463,0.111,12.494,3.493,12.258,2.947C332.938,476.782,334.163,473.216,334.163,473.216z"/>
			<path style="fill:#394871;" d="M355.816,383.635c-1.08-0.627-12.575-3.023-12.575-3.023l-0.445,1.85l12.471,2.998
				L355.816,383.635z"/>
			<path style="fill:#394871;" d="M347.336,391.016c0,0-3.418,29.516-5.889,38.953c-2.472,9.437-11.456,35.357-12.009,35.496
				c-0.553,0.14,6.374-36.362,6.431-37.082C335.926,427.663,347.336,391.016,347.336,391.016z"/>
		</g>
		<g>
			<path style="fill:#394871;" d="M328.522,489.684c-0.024,2.744,18.211,10.688,19.512,10.257
				c1.302-0.431,58.752-111.771,58.752-111.771s-19.883-12.96-20.916-10.995C384.838,379.14,328.535,488.297,328.522,489.684z"/>
			<path style="fill:#D98968;" d="M351.153,466.414c0.086,0.045,0.918,0.483,0.918,0.483s32.266-61.635,32.23-61.756
				c-0.036-0.12-0.884-0.465-0.884-0.465L351.153,466.414z"/>
			<path style="fill:#C65B32;" d="M340.116,476.782c0,0,10.963,6.241,11.16,5.866c0.197-0.374,2.389-3.522,1.968-3.743
				c-0.421-0.221-11.254-6.453-11.16-5.866C342.178,473.626,340.116,476.782,340.116,476.782z"/>
			<path style="fill:#C65B32;" d="M378.471,392.618c0,0,19.583,10.693,20.119,10.184c0.536-0.509,1.137-1.949,1.137-1.949
				l-19.984-10.415L378.471,392.618z"/>
			<path style="fill:#D98968;" d="M382.878,384.82c0,0,19.583,10.693,20.119,10.184c0.536-0.509,1.137-1.949,1.137-1.949
				l-19.984-10.415L382.878,384.82z"/>
			<path style="fill:#C65B32;" d="M376.681,395.976c0,0,19.583,10.693,20.119,10.184c0.536-0.509,1.137-1.949,1.137-1.949
				l-19.984-10.415L376.681,395.976z"/>
			<path style="fill:#D98968;" d="M339.343,492.02c-3.755-1.974-3.934-8.791-0.45-10.05c3.484-1.259,8.377,1.447,7.771,5.922
				C346.26,490.878,342.641,493.755,339.343,492.02z"/>
		</g>
		<g>
			<path style="fill:#E9D587;" d="M487.969,622.925c2.678-0.597,6.293-20.156,5.579-21.326
				c-0.714-1.17-122.161-31.955-122.161-31.955s-8.128,22.299-5.98,22.86C367.555,593.067,486.616,623.227,487.969,622.925z"/>
			<path style="fill:#D98968;" d="M460.185,606.143c0.025-0.094,0.263-1.004,0.263-1.004s-67.335-17.492-67.444-17.429
				c-0.109,0.063-0.253,0.966-0.253,0.966L460.185,606.143z"/>
			<path style="fill:#C65B32;" d="M472.781,614.55c0,0,3.6-12.09,3.191-12.197c-0.409-0.107-3.971-1.53-4.091-1.07
				c-0.12,0.46-3.741,12.422-3.191,12.197S472.781,614.55,472.781,614.55z"/>
			<path style="fill:#C65B32;" d="M382.123,596.221c0,0,5.987-21.494,5.37-21.901c-0.617-0.407-2.155-0.666-2.155-0.666
				l-5.627,21.821L382.123,596.221z"/>
			<path style="fill:#D98968;" d="M373.531,593.692c0,0,5.987-21.494,5.37-21.901c-0.617-0.407-2.155-0.666-2.155-0.666
				l-5.627,21.822L373.531,593.692z"/>
			<path style="fill:#C65B32;" d="M385.799,597.205c0,0,5.987-21.494,5.37-21.901c-0.617-0.407-2.155-0.666-2.155-0.666
				l-5.627,21.822L385.799,597.205z"/>
			<path style="fill:#D98968;" d="M487.799,611.857c-1.074,4.104-7.673,5.82-9.688,2.711c-2.014-3.109-0.485-8.487,4.011-8.909
				C485.122,605.377,488.742,608.251,487.799,611.857z"/>
		</g>
		<g>
			<path style="fill:#E9D587;" d="M295.32,753.063c1.187,2.474,21.057,1.571,22.035,0.61c0.979-0.961,3.495-126.223,3.495-126.223
				s-23.559-2.874-23.621-0.654C297.169,629.015,294.72,751.813,295.32,753.063z"/>
			<path style="fill:#D98968;" d="M305.383,722.203c0.097,0.003,1.037,0.029,1.037,0.029s1.808-69.547,1.723-69.638
				c-0.086-0.092-0.999-0.028-0.999-0.028L305.383,722.203z"/>
			<path style="fill:#C65B32;" d="M300.043,736.373c0,0,12.591,0.772,12.603,0.349c0.012-0.423,0.593-4.214,0.117-4.227
				c-0.476-0.013-12.946-0.834-12.603-0.349C300.504,732.631,300.043,736.373,300.043,736.373z"/>
			<path style="fill:#C65B32;" d="M297.392,643.919c0,0,22.291,0.971,22.548,0.278c0.257-0.693,0.162-2.25,0.162-2.25l-22.529-0.545
				L297.392,643.919z"/>
			<path style="fill:#D98968;" d="M297.912,634.978c0,0,22.291,0.971,22.548,0.278c0.257-0.693,0.162-2.25,0.162-2.25l-22.529-0.545
				L297.912,634.978z"/>
			<path style="fill:#C65B32;" d="M297.264,647.722c0,0,22.291,0.971,22.548,0.277c0.257-0.693,0.162-2.25,0.162-2.25l-22.529-0.545
				L297.264,647.722z"/>
			<path style="fill:#D98968;" d="M306.064,750.393c-4.241-0.118-7.405-6.158-4.832-8.823c2.573-2.666,8.157-2.392,9.586,1.892
				C311.77,746.32,309.789,750.497,306.064,750.393z"/>
		</g>
		<g>
			<path style="fill:#80A4EE;" d="M421.064,699.987c7.337,2.002,19.496-16.846,19.022-17.973
				c-0.474-1.127-79.563-81.497-79.563-81.497s-18.563,15.079-18.494,16.195C342.099,617.826,418.962,699.413,421.064,699.987z"/>
			<path style="fill:#8EC9B7;" d="M411.024,676.118c0.129-0.122,1.377-1.301,1.377-1.301s-49.168-51.725-49.349-51.681
				c-0.18,0.044-1.326,1.253-1.326,1.253L411.024,676.118z"/>
			<path style="fill:#8EC9B7;" d="M414.044,673.606c0.129-0.122,1.377-1.301,1.377-1.301s-49.168-51.725-49.349-51.681
				c-0.18,0.044-1.326,1.253-1.326,1.253L414.044,673.606z"/>
			<path style="fill:#E9D587;" d="M418.965,696.255c0,0,17.159-15.59,16.903-16.214c-0.257-0.625-1.331-1.539-1.331-1.539
				l-17.061,16.031L418.965,696.255z"/>
			<path style="fill:#E9D587;" d="M409.093,685.472c0,0,17.159-15.59,16.903-16.214c-0.257-0.625-1.331-1.539-1.331-1.539
				l-17.061,16.031L409.093,685.472z"/>
			<path style="fill:#E9D587;" d="M351.742,626.518c0,0,17.159-15.59,16.903-16.214c-0.257-0.625-1.331-1.539-1.331-1.539
				l-17.061,16.031L351.742,626.518z"/>
			<path style="fill:#E9D587;" d="M354.1,629.013c0,0,17.159-15.59,16.903-16.214c-0.257-0.625-1.331-1.539-1.331-1.539
				l-17.061,16.031L354.1,629.013z"/>
			<path style="fill:#8EC9B7;" d="M418.628,691.954c-0.643-0.573-7.259-7.165-7.001-7.409c0.259-0.244,3.066-2.897,3.066-2.897
				s7.382,7.344,7.001,7.409C421.313,689.122,418.628,691.954,418.628,691.954z"/>
			<path style="fill:#8EC9B7;" d="M423.616,687.242c-0.643-0.574-7.259-7.165-7.001-7.409c0.259-0.244,3.066-2.897,3.066-2.897
				s7.382,7.344,7.001,7.409C426.301,684.409,423.616,687.242,423.616,687.242z"/>
			<path style="fill:#8EC9B7;" d="M428.604,682.529c-0.643-0.574-7.259-7.165-7.001-7.409c0.259-0.244,3.066-2.897,3.066-2.897
				s7.382,7.344,7.001,7.409C431.289,679.697,428.604,682.529,428.604,682.529z"/>
		</g>
		<g>
			<path style="fill:#FBF5E2;" d="M446.38,651.901c2.25-0.937,9.882-18.822,9.157-19.618c-0.724-0.796-90.124-45.085-90.124-45.085
				s-9.203,18.781-8.817,19.687C356.981,607.789,444.61,652.639,446.38,651.901z"/>
			<path style="fill:#E9D587;" d="M446.919,653.61c0,0,2.224-2.817,1.788-3.489c-0.436-0.672-92.137-45.673-92.137-45.673
				s-2.146,3.005-1.666,3.251C355.383,607.945,446.919,653.61,446.919,653.61z"/>
			<path style="fill:#E9D587;" d="M457.405,631.729c0,0-0.947,3.462-1.747,3.51s-91.438-47.057-91.438-47.057
				s1.146-3.51,1.628-3.271C366.329,585.151,457.405,631.729,457.405,631.729z"/>
			<path style="fill:#F2E4C1;" d="M449.595,645.905c0,0-89.966-43.758-89.829-44.301
				C359.903,601.061,449.595,645.905,449.595,645.905z"/>
			<path style="fill:#F2E4C1;" d="M451.434,642.318c-2.969-1.664-90.083-44.358-89.403-45.131
				C362.71,596.413,451.434,642.318,451.434,642.318z"/>
			<path style="fill:#F2E4C1;" d="M363.864,593.609c1.515,0.635,88.466,43.647,88.466,43.647l-0.69,1.345L363.864,593.609z"/>
		</g>
		<g>
			<path style="fill:#E9D587;" d="M348.457,646.703c-3.21,1.937-16.35,9.347-17.136,10.522
				c-0.786,1.175,45.905,80.295,45.905,80.295l17.448-9.975C394.675,727.545,349.383,646.144,348.457,646.703z"/>
			<path style="fill:#394871;" d="M388.537,718.917c0,0-15.368,8.399-15.201,8.69c0.167,0.292,1.094,3.244,1.667,2.916
				c0.574-0.328,15.819-8.608,15.201-8.69C389.587,721.752,388.537,718.917,388.537,718.917z"/>
			<path style="fill:#394871;" d="M386.036,714.841c0,0-15.368,8.399-15.201,8.691c0.167,0.292,1.094,3.244,1.667,2.916
				c0.574-0.328,15.819-8.608,15.201-8.69S386.036,714.841,386.036,714.841z"/>
			<path style="fill:#394871;" d="M349.84,651.209c-1.584,0.579-15.593,8.915-15.593,8.915l0.75,1.312l15.465-8.841L349.84,651.209z
				"/>
			<path style="fill:#394871;" d="M345.59,662.018c0,0,15.941,17.876,19.548,24.738c3.607,6.862,11.144,27.533,10.639,28.065
				c-0.505,0.531-17.301-23.821-17.718-24.235C357.642,690.171,345.59,662.018,345.59,662.018z"/>
		</g>
		<g>
			<path style="fill:#C65B32;" d="M468.01,566.293c6.063-2.844,3.462-22.422,2.501-22.907c-0.961-0.485-99.858-9.256-99.858-9.256
				s-3.845,20.705-3.162,21.413C368.174,556.25,466.274,567.107,468.01,566.293z"/>
			<path style="fill:#394871;" d="M447.659,556.014c0.017-0.155,0.181-1.658,0.181-1.658s-62.488-6.633-62.583-6.501
				s-0.174,1.597-0.174,1.597L447.659,556.014z"/>
			<path style="fill:#394871;" d="M448.25,552.607c0.017-0.155,0.181-1.658,0.181-1.658s-62.487-6.633-62.583-6.501
				c-0.096,0.132-0.174,1.597-0.174,1.597L448.25,552.607z"/>
			<path style="fill:#E9D587;" d="M464.473,564.987c0,0,2.612-20.246,2.084-20.518c-0.529-0.273-1.771-0.273-1.771-0.273
				l-2.294,20.486L464.473,564.987z"/>
			<path style="fill:#E9D587;" d="M451.7,563.389c0,0,2.612-20.246,2.084-20.518c-0.528-0.273-1.771-0.273-1.771-0.273
				l-2.294,20.486L451.7,563.389z"/>
			<path style="fill:#E9D587;" d="M379.6,556.577c0,0,2.612-20.246,2.084-20.518c-0.529-0.273-1.771-0.273-1.771-0.273
				l-2.294,20.486L379.6,556.577z"/>
			<path style="fill:#E9D587;" d="M382.606,556.905c0,0,2.612-20.246,2.084-20.518c-0.528-0.273-1.771-0.273-1.771-0.273
				l-2.294,20.486L382.606,556.905z"/>
		</g>
		<g>
			<path style="fill:#8EC9B7;" d="M364.468,746.013c-3.238,9.08-31.651,8.054-32.479,6.744
				c-0.828-1.31-27.038-141.813-27.038-141.813s29.138-8.365,30.247-7.484C336.308,604.34,365.396,743.412,364.468,746.013z"/>
			<path style="fill:#394871;" d="M346.933,718.268c-0.22,0.046-2.351,0.488-2.351,0.488s-18.124-88.625-17.948-88.781
				c0.176-0.155,2.264-0.47,2.264-0.47L346.933,718.268z"/>
			<path style="fill:#394871;" d="M342.131,719.585c-0.22,0.046-2.35,0.488-2.35,0.488s-18.124-88.625-17.948-88.78
				c0.176-0.156,2.264-0.47,2.264-0.47L342.131,719.585z"/>
		</g>
		<g>
			<path style="fill:#F2E4C1;" d="M493.551,598.366c2.631-0.779,4.895-20.54,4.102-21.659
				c-0.793-1.119-124.066-23.499-124.066-23.499s-6.579,22.804-4.398,23.217C371.372,576.838,492.222,598.76,493.551,598.366z"/>
			<path style="fill:#80A4EE;" d="M495.771,600.239c0.293-0.95,0.984-3.12,0.649-3.425c-0.335-0.305-128.549-22.564-128.549-22.564
				l-0.607,3.205L495.771,600.239z"/>
			<path style="fill:#80A4EE;" d="M372.108,552.94c-0.292,0.951-0.979,3.121-0.649,3.425c0.331,0.304,127.185,22.306,127.185,22.306
				l0.607-3.205L372.108,552.94z"/>
			<path style="fill:#FBF5E2;" d="M494.908,589.711c0,0-122.218-20.459-122.243-21.164
				C372.639,567.844,494.908,589.711,494.908,589.711z"/>
			<path style="fill:#FBF5E2;" d="M494.767,586.917c0,0-122.218-20.459-122.243-21.164
				C372.498,565.049,494.767,586.917,494.767,586.917z"/>
			<path style="fill:#FBF5E2;" d="M495.852,584.725c-4.11-0.94-122.565-21.142-122.025-22.318
				C374.368,561.231,495.852,584.725,495.852,584.725z"/>
			<path style="fill:#FBF5E2;" d="M371.949,572.319c4.11,0.94,122.565,21.142,122.025,22.318
				C493.434,595.814,371.949,572.319,371.949,572.319z"/>
		</g>
		<g>
			<path style="fill:#FBF5E2;" d="M348.998,610.913c-3.064-0.161-21.466,15.983-21.077,17.281
				c0.389,1.298,77.743,100.252,77.743,100.252s20.673-16.306,20.729-17.544C426.448,709.665,351.409,611.04,348.998,610.913z"/>
			<path style="fill:#C65B32;" d="M349.317,608.679c0,0-4.059,1.986-3.93,2.986s79.709,102.015,79.709,102.015
				s4.072-2.243,3.662-2.783C428.348,710.358,349.317,608.679,349.317,608.679z"/>
			<path style="fill:#C65B32;" d="M325.5,627.805c0,0,2.96-3.413,3.894-3.032s78.161,103.206,78.161,103.206
				s-3.212,3.36-3.629,2.826C403.51,730.27,325.5,627.805,325.5,627.805z"/>
			<path style="fill:#F2E4C1;" d="M342.084,615.968c0,0,78.288,98.659,77.836,99.201
				C419.469,715.711,342.084,615.968,342.084,615.968z"/>
			<path style="fill:#F2E4C1;" d="M338.043,619.038c2.464,3.505,78.093,99.404,76.901,99.912
				C413.751,719.458,338.043,619.038,338.043,619.038z"/>
			<path style="fill:#F2E4C1;" d="M410.914,722.012c-1.374-1.545-76.645-97.716-76.645-97.716l1.515-1.151L410.914,722.012z"/>
		</g>
		<g>
			<path style="fill:#8EC9B7;" d="M471.102,638.846c0.901-2.546,5.047-12.586,4.65-13.727
				c-0.397-1.141-108.073-43.337-108.073-43.337l-5.386,13.432C362.293,595.214,470.842,639.581,471.102,638.846z"/>
			<path style="fill:#394871;" d="M374.884,599.451c0,0,5.085-11.544,4.692-11.702c-0.392-0.157-3.748-2.016-3.925-1.574
				c-0.177,0.442-5.267,11.856-4.692,11.702C371.533,597.723,374.884,599.451,374.884,599.451z"/>
			<path style="fill:#394871;" d="M380.51,601.593c0,0,5.085-11.544,4.692-11.702c-0.393-0.157-3.748-2.016-3.925-1.574
				c-0.177,0.442-5.267,11.856-4.693,11.702C377.159,599.865,380.51,601.593,380.51,601.593z"/>
			<path style="fill:#394871;" d="M466.007,636c0.777-0.978,4.814-12.004,4.814-12.004l-1.766-0.708l-4.774,11.905L466.007,636z"/>
			<path style="fill:#394871;" d="M459.933,626.54c0,0-28.709-7.659-37.688-11.472c-8.979-3.813-33.323-16.458-33.381-17.026
				c-0.058-0.568,35.054,11.576,35.758,11.737C425.326,609.94,459.933,626.54,459.933,626.54z"/>
		</g>
		<g>
			<path style="fill:#394871;" d="M365.033,593.626c-2.712-0.421-13.214,16.47-12.976,17.82c0.238,1.35,102.076,74.33,102.076,74.33
				s15.704-17.795,13.91-19.102S366.404,593.839,365.033,593.626z"/>
			<path style="fill:#D98968;" d="M384.777,619.39c-0.057,0.079-0.611,0.839-0.611,0.839s56.309,40.857,56.433,40.839
				c0.124-0.018,0.588-0.808,0.588-0.808L384.777,619.39z"/>
			<path style="fill:#C65B32;" d="M376.118,606.966c0,0-7.763,9.943-7.422,10.192c0.342,0.249,3.139,2.874,3.419,2.489
				c0.28-0.385,8.016-10.2,7.422-10.192C378.942,609.464,376.118,606.966,376.118,606.966z"/>
			<path style="fill:#C65B32;" d="M453.835,657.114c0,0-13.418,17.827-12.992,18.431c0.426,0.604,1.764,1.407,1.764,1.407
				l13.202-18.263L453.835,657.114z"/>
			<path style="fill:#D98968;" d="M460.912,662.604c0,0-13.418,17.827-12.992,18.431c0.426,0.604,1.763,1.407,1.763,1.407
				l13.202-18.263L460.912,662.604z"/>
			<path style="fill:#C65B32;" d="M450.772,654.856c0,0-13.418,17.827-12.992,18.431c0.426,0.604,1.763,1.407,1.763,1.407
				l13.202-18.264L450.772,654.856z"/>
			<path style="fill:#D98968;" d="M361.153,603.993c2.497-3.429,9.268-2.619,10.009,1.011c0.741,3.63-2.646,8.078-6.985,6.831
				C361.281,611.003,358.959,607.006,361.153,603.993z"/>
		</g>
		<g>
			<path style="fill:#E9D587;" d="M210.091,732.08c0.203,2.737,19.031,9.147,20.293,8.61c1.262-0.537,49.321-116.241,49.321-116.241
				s-20.885-11.273-21.753-9.23C257.085,617.264,209.988,730.697,210.091,732.08z"/>
			<path style="fill:#D98968;" d="M230.723,707.021c0.089,0.038,0.955,0.405,0.955,0.405s27.066-64.089,27.019-64.206
				c-0.046-0.117-0.92-0.39-0.92-0.39L230.723,707.021z"/>
			<path style="fill:#C65B32;" d="M220.579,718.265c0,0,11.441,5.314,11.606,4.924c0.165-0.389,2.09-3.707,1.652-3.893
				c-0.438-0.186-11.749-5.502-11.606-4.924C222.373,714.95,220.579,718.265,220.579,718.265z"/>
			<path style="fill:#C65B32;" d="M251.853,631.221c0,0,20.399,9.039,20.891,8.487c0.492-0.551,0.972-2.036,0.972-2.036
				l-20.776-8.73L251.853,631.221z"/>
			<path style="fill:#D98968;" d="M255.6,623.086c0,0,20.399,9.039,20.891,8.488c0.492-0.552,0.972-2.036,0.972-2.036l-20.776-8.729
				L255.6,623.086z"/>
			<path style="fill:#C65B32;" d="M250.346,634.715c0,0,20.399,9.039,20.891,8.488c0.492-0.552,0.972-2.036,0.972-2.036
				l-20.776-8.73L250.346,634.715z"/>
			<path style="fill:#D98968;" d="M221.067,733.515c-3.905-1.657-4.647-8.436-1.279-9.979c3.368-1.543,8.468,0.75,8.234,5.26
				C227.866,731.805,224.498,734.971,221.067,733.515z"/>
		</g>
		<g>
			<path style="fill:#80A4EE;" d="M143.539,654.713c-3.044,6.969,13.843,21.731,15.027,21.426
				c1.184-0.306,92.167-66.912,92.167-66.912s-12.23-20.553-13.343-20.645C236.276,588.488,144.411,652.717,143.539,654.713z"/>
			<path style="fill:#8EC9B7;" d="M168.61,648.238c0.102,0.145,1.087,1.551,1.087,1.551s58.305-41.153,58.287-41.338
				c-0.017-0.184-1.047-1.493-1.047-1.493L168.61,648.238z"/>
			<path style="fill:#8EC9B7;" d="M170.659,651.59c0.102,0.145,1.087,1.551,1.087,1.551s58.305-41.153,58.287-41.338
				c-0.017-0.185-1.047-1.493-1.047-1.493L170.659,651.59z"/>
			<path style="fill:#E9D587;" d="M147.536,653.177c0,0,12.938,19.237,13.594,19.074c0.655-0.163,1.716-1.094,1.716-1.094
				l-13.39-19.204L147.536,653.177z"/>
			<path style="fill:#E9D587;" d="M159.636,644.971c0,0,12.938,19.237,13.594,19.074c0.655-0.163,1.716-1.094,1.716-1.094
				l-13.39-19.204L159.636,644.971z"/>
			<path style="fill:#E9D587;" d="M226.279,596.77c0,0,12.938,19.237,13.594,19.074c0.655-0.163,1.716-1.094,1.716-1.094
				l-13.389-19.204L226.279,596.77z"/>
			<path style="fill:#E9D587;" d="M223.467,598.742c0,0,12.938,19.237,13.594,19.074c0.655-0.163,1.716-1.094,1.716-1.094
				l-13.389-19.204L223.467,598.742z"/>
			<path style="fill:#8EC9B7;" d="M151.839,653.467c0.661-0.553,8.141-6.144,8.345-5.853c0.204,0.291,2.422,3.454,2.422,3.454
				s-8.336,6.24-8.345,5.853C154.253,656.534,151.839,653.467,151.839,653.467z"/>
			<path style="fill:#8EC9B7;" d="M155.78,659.085c0.661-0.553,8.141-6.144,8.345-5.853c0.204,0.291,2.422,3.454,2.422,3.454
				s-8.336,6.24-8.346,5.853C158.193,662.152,155.78,659.085,155.78,659.085z"/>
			<path style="fill:#8EC9B7;" d="M159.72,664.703c0.661-0.553,8.141-6.144,8.345-5.853c0.204,0.291,2.422,3.454,2.422,3.454
				s-8.336,6.24-8.346,5.853C162.133,667.77,159.72,664.703,159.72,664.703z"/>
		</g>
		<g>
			<path style="fill:#FBF5E2;" d="M187.448,686.73c0.601,2.362,17.191,12.505,18.084,11.904c0.893-0.601,57.67-82.638,57.67-82.638
				s-17.249-11.827-18.201-11.577C244.05,604.668,186.975,684.872,187.448,686.73z"/>
			<path style="fill:#E9D587;" d="M185.679,687.016c0,0,2.465,2.609,3.193,2.275c0.728-0.334,58.543-84.546,58.543-84.546
				s-2.663-2.558-2.975-2.12C244.127,603.064,185.679,687.016,185.679,687.016z"/>
			<path style="fill:#E9D587;" d="M205.809,700.562c0,0-3.288-1.439-3.219-2.237c0.068-0.798,59.812-83.653,59.812-83.653
				s3.307,1.642,3,2.085C265.094,617.198,205.809,700.562,205.809,700.562z"/>
			<path style="fill:#F2E4C1;" d="M192.915,690.78c0,0,56.334-82.675,56.851-82.461C250.284,608.534,192.915,690.78,192.915,690.78z
				"/>
			<path style="fill:#F2E4C1;" d="M196.198,693.12c2.076-2.697,56.945-82.704,57.611-81.919
				C254.476,611.985,196.198,693.12,196.198,693.12z"/>
			<path style="fill:#F2E4C1;" d="M257.083,613.534c-0.848,1.407-56.007,81.206-56.007,81.206l-1.231-0.877L257.083,613.534z"/>
		</g>
		<g>
			<path style="fill:#E9D587;" d="M206.782,590.595c-1.451-3.456-6.879-17.532-7.928-18.48c-1.049-0.948-86.1,33.784-86.1,33.784
				l7.341,18.71C120.096,624.608,207.201,591.592,206.782,590.595z"/>
			<path style="fill:#394871;" d="M129.522,619.786c0,0-6.083-16.423-6.396-16.3c-0.313,0.123-3.368,0.612-3.127,1.227
				c0.241,0.615,6.225,16.899,6.396,16.3C126.565,620.414,129.522,619.786,129.522,619.786z"/>
			<path style="fill:#394871;" d="M133.918,617.902c0,0-6.083-16.423-6.396-16.3c-0.313,0.123-3.368,0.612-3.127,1.227
				c0.241,0.615,6.225,16.899,6.396,16.3C130.962,618.53,133.918,617.902,133.918,617.902z"/>
			<path style="fill:#394871;" d="M202.124,591.31c-0.343-1.651-6.561-16.721-6.561-16.721l-1.407,0.552l6.507,16.583
				L202.124,591.31z"/>
			<path style="fill:#394871;" d="M192.044,585.538c0,0-19.997,13.182-27.309,15.757c-7.312,2.575-28.858,7.036-29.31,6.459
				c-0.453-0.576,26.077-13.666,26.547-14.019C162.442,593.383,192.044,585.538,192.044,585.538z"/>
		</g>
		<g>
			<path style="fill:#C65B32;" d="M269.018,720.539c1.935,6.411,21.683,6.675,22.302,5.794c0.619-0.88,23.63-97.463,23.63-97.463
				s-19.929-6.805-20.729-6.232C293.423,623.212,268.464,718.703,269.018,720.539z"/>
			<path style="fill:#394871;" d="M282.137,701.891c0.151,0.039,1.614,0.419,1.614,0.419s15.619-60.867,15.502-60.98
				c-0.117-0.114-1.554-0.404-1.554-0.404L282.137,701.891z"/>
			<path style="fill:#394871;" d="M285.423,702.97c0.151,0.039,1.614,0.419,1.614,0.419s15.619-60.867,15.502-60.98
				c-0.117-0.114-1.554-0.404-1.554-0.404L285.423,702.97z"/>
			<path style="fill:#E9D587;" d="M270.822,717.228c0,0,19.653,5.518,20,5.035c0.346-0.483,0.527-1.713,0.527-1.713l-19.937-5.239
				L270.822,717.228z"/>
			<path style="fill:#E9D587;" d="M274.255,704.821c0,0,19.653,5.518,20,5.035c0.346-0.483,0.526-1.713,0.526-1.713l-19.937-5.239
				L274.255,704.821z"/>
			<path style="fill:#E9D587;" d="M291.444,634.47c0,0,19.653,5.518,20,5.035c0.346-0.483,0.526-1.713,0.526-1.713l-19.937-5.239
				L291.444,634.47z"/>
			<path style="fill:#E9D587;" d="M290.684,637.396c0,0,19.653,5.518,20,5.035c0.346-0.483,0.526-1.713,0.526-1.713l-19.937-5.239
				L290.684,637.396z"/>
		</g>
		<g>
			<path style="fill:#8EC9B7;" d="M93.864,600.092c-8.514-4.52-3.382-32.484-1.966-33.113c1.416-0.629,144.234-6.2,144.234-6.2
				s4.054,30.043,3.022,31.012C238.121,592.76,96.302,601.387,93.864,600.092z"/>
			<path style="fill:#394871;" d="M123.856,586.763c-0.013-0.224-0.142-2.396-0.142-2.396s90.316-5.089,90.444-4.892
				c0.128,0.197,0.137,2.308,0.137,2.308L123.856,586.763z"/>
			<path style="fill:#394871;" d="M123.249,581.821c-0.013-0.224-0.142-2.396-0.142-2.396s90.316-5.089,90.444-4.892
				c0.128,0.197,0.137,2.308,0.137,2.308L123.249,581.821z"/>
		</g>
		<g>
			<path style="fill:#F2E4C1;" d="M233.582,741.162c0.39,2.716,19.614,7.82,20.835,7.198c1.222-0.622,41.231-119.35,41.231-119.35
				s-21.609-9.814-22.334-7.716C272.589,623.392,233.385,739.789,233.582,741.162z"/>
			<path style="fill:#80A4EE;" d="M231.407,743.087c0.898,0.428,2.945,1.425,3.295,1.138c0.35-0.287,40.956-123.922,40.956-123.922
				l-3.084-1.065L231.407,743.087z"/>
			<path style="fill:#80A4EE;" d="M296.128,627.584c-0.898-0.427-2.946-1.421-3.295-1.138c-0.349,0.283-40.502,122.61-40.502,122.61
				l3.083,1.065L296.128,627.584z"/>
			<path style="fill:#FBF5E2;" d="M241.948,743.758c0,0,37.955-117.963,38.656-117.886S241.948,743.758,241.948,743.758z"/>
			<path style="fill:#FBF5E2;" d="M244.734,744.024c0,0,37.955-117.963,38.656-117.886
				C284.091,626.215,244.734,744.024,244.734,744.024z"/>
			<path style="fill:#FBF5E2;" d="M246.745,745.415c1.526-3.93,38.681-118.208,39.767-117.502
				C287.597,628.618,246.745,745.415,246.745,745.415z"/>
			<path style="fill:#FBF5E2;" d="M276.976,624.619c-1.525,3.93-38.681,118.208-39.767,117.502
				C236.124,741.415,276.976,624.619,276.976,624.619z"/>
		</g>
		<g>
			<path style="fill:#FBF5E2;" d="M242.116,596.317c0.604-3.009-12.703-23.556-14.044-23.359
				c-1.341,0.197-110.46,62.394-110.46,62.394s13.138,22.818,14.354,23.052C133.183,658.638,241.641,598.684,242.116,596.317z"/>
			<path style="fill:#C65B32;" d="M244.28,596.955c0,0-1.377-4.303-2.385-4.321c-1.008-0.017-112.49,64.083-112.49,64.083
				s1.629,4.354,2.222,4.026C132.221,660.417,244.28,596.955,244.28,596.955z"/>
			<path style="fill:#C65B32;" d="M228.808,570.618c0,0,2.948,3.424,2.436,4.292C230.731,575.779,117.8,637.29,117.8,637.29
				s-2.86-3.665-2.27-4C116.12,632.956,228.808,570.618,228.808,570.618z"/>
			<path style="fill:#F2E4C1;" d="M238.117,588.742c0,0-108.963,63.163-109.434,62.638
				C128.212,650.856,238.117,588.742,238.117,588.742z"/>
			<path style="fill:#F2E4C1;" d="M235.664,584.3c-3.825,1.93-109.672,62.863-110.002,61.609
				C125.333,644.656,235.664,584.3,235.664,584.3z"/>
			<path style="fill:#F2E4C1;" d="M123.217,641.478c1.728-1.135,107.792-61.674,107.792-61.674l0.92,1.666L123.217,641.478z"/>
		</g>
		<g>
			<path style="fill:#8EC9B7;" d="M196.782,713.083c2.389,1.26,11.722,6.818,12.908,6.591
				c1.186-0.227,58.542-100.652,58.542-100.652l-12.51-7.276C255.723,611.746,196.093,712.72,196.782,713.083z"/>
			<path style="fill:#394871;" d="M249.705,623.59c0,0,10.686,6.704,10.898,6.339c0.213-0.365,2.537-3.416,2.126-3.656
				c-0.411-0.239-10.968-6.929-10.898-6.339C251.901,620.525,249.705,623.59,249.705,623.59z"/>
			<path style="fill:#394871;" d="M246.771,628.846c0,0,10.686,6.704,10.898,6.339c0.213-0.366,2.537-3.417,2.126-3.656
				c-0.411-0.239-10.968-6.929-10.898-6.339C248.967,625.781,246.771,628.846,246.771,628.846z"/>
			<path style="fill:#394871;" d="M200.337,708.455c0.855,0.91,11.18,6.502,11.18,6.502l0.957-1.645l-11.088-6.449L200.337,708.455z
				"/>
			<path style="fill:#394871;" d="M210.578,703.816c0,0,11.739-27.296,16.813-35.628c5.074-8.332,21.114-30.586,21.684-30.561
				c0.57,0.025-16.534,33.006-16.796,33.68C232.018,671.98,210.578,703.816,210.578,703.816z"/>
		</g>
		<g>
			<path style="fill:#394871;" d="M256.897,614.688c0.81-2.622-14.381-15.461-15.751-15.422
				c-1.371,0.04-88.338,90.227-88.338,90.227s15.331,18.118,16.884,16.531C171.245,704.437,256.488,616.013,256.897,614.688z"/>
			<path style="fill:#D98968;" d="M228.544,630.49c-0.069-0.068-0.741-0.726-0.741-0.726s-48.586,49.793-48.586,49.919
				c0,0.126,0.714,0.699,0.714,0.699L228.544,630.49z"/>
			<path style="fill:#C65B32;" d="M242.091,623.722c0,0-8.713-9.122-9.009-8.82c-0.296,0.302-3.299,2.689-2.959,3.022
				c0.34,0.333,8.931,9.41,9.009,8.82C239.21,626.154,242.091,623.722,242.091,623.722z"/>
			<path style="fill:#C65B32;" d="M181.21,693.352c0,0-15.694-15.86-16.353-15.526c-0.659,0.334-1.648,1.541-1.648,1.541
				l16.158,15.709L181.21,693.352z"/>
			<path style="fill:#D98968;" d="M174.752,699.558c0,0-15.694-15.86-16.353-15.526c-0.659,0.334-1.648,1.541-1.648,1.541
				l16.158,15.709L174.752,699.558z"/>
			<path style="fill:#C65B32;" d="M183.888,690.648c0,0-15.694-15.86-16.353-15.526c-0.659,0.334-1.648,1.541-1.648,1.541
				l16.158,15.709L183.888,690.648z"/>
			<path style="fill:#D98968;" d="M247.202,609.346c3.031,2.968,1.248,9.55-2.451,9.757c-3.699,0.207-7.61-3.789-5.747-7.901
				C240.247,608.457,244.539,606.739,247.202,609.346z"/>
		</g>
	</g>
	<g style="clip-path:url(#SVGID_00000152233774522065556060000011127507475913806727_);">
		<path style="fill:#678BCA;" d="M387.513,556.866c-0.303,17.934-4.612,33.154-11.741,45.646
			c-3.545,6.272-7.814,11.86-12.637,16.748c-16.893,17.17-40.533,25.893-64.279,26.183c-4.955,0.066-9.922-0.237-14.838-0.922
			c-39.466-5.429-75.361-34.643-76.257-87.655c0.25-14.996,3.308-28.094,8.447-39.281c11.701-25.445,34.195-41.047,59.126-46.792
			c25.775-5.956,54.159-1.384,75.927,13.691c4.335,2.991,8.394,6.391,12.136,10.225c0,0.013,0,0.013,0,0.013
			C377.67,509.362,387.065,530.076,387.513,556.866z"/>
		<path style="fill:#A6D7C9;" d="M309.119,543.577c-3.864-0.588-1.798-6.55,1.599-4.626
			C313.035,540.246,311.738,544.003,309.119,543.577z"/>
		<path style="fill:#A6D7C9;" d="M314.389,543.397c-0.026-3.118,4.844-3.118,4.817,0
			C319.232,546.515,314.362,546.515,314.389,543.397z"/>
		<path style="fill:#A6D7C9;" d="M297.634,514.373c-0.011-1.191,1.85-1.19,1.839,0C299.484,515.563,297.624,515.563,297.634,514.373
			z"/>
		<path style="fill:#A6D7C9;" d="M267.813,557.55c-2.23-2.114,0.903-5.74,3.314-3.818
			C273.899,555.828,270.272,560.031,267.813,557.55z"/>
		<path style="fill:#A6D7C9;" d="M276.581,563.449c-1.853-0.949,0.178-2.491,1.457-2.604c1.727-0.482,2.299,2.295,0.521,2.539
			C277.895,563.369,277.244,563.553,276.581,563.449z"/>
		<path style="fill:#A6D7C9;" d="M292.257,569.492c-1.743-0.248-1.391-2.91,0.366-2.67
			C294.357,567.042,293.978,569.746,292.257,569.492z"/>
		<path style="fill:#A6D7C9;" d="M387.513,556.866c-0.303,17.934-4.612,33.154-11.741,45.646c-0.804,0.29-1.621,0.553-2.464,0.777
			c-8.921,2.886-19.529,12.518-27.396,2.504c-11.491-7.696-19.95,5.271-25.656-14.996c-3.927-6.312-9.619-3.597-9.936-13.309
			c-2.214-8.117-15.352-14.706-1.291-20.359c8.829-6.707,26.025-2.346,24.404-16.182c-0.764-7.392-8.223-15.483-1.924-22.283
			c10.594-8.262,26.117-4.757,31.125-21.545c0.29-0.553,0.461-1.594,0.764-2.398C377.67,509.362,387.065,530.076,387.513,556.866z"
			/>
		<path style="fill:#A6D7C9;" d="M298.461,613.62c-0.593,7.722,2.649,16.432-2.715,23.073c-3.426,3.637-7.406,6.18-11.728,7.827
			c-39.466-5.429-75.361-34.643-76.257-87.655c0.25-14.996,3.308-28.094,8.447-39.281c0.474-0.053,0.988,0.092,1.515,0.435
			c15.233-7.814-2.227,35.842,17.644,23.429c1.713-0.448,3.307,0.54,4.955,0.58c4.454-1.739,7.01-9.026,12.479-7.682
			c4.032,2.675,2.174,8.842,6.128,12.031c5.205,7.392,0.026,20.833,9.277,25.393c13.151-1.133,17.341-3.703,21.966,11.016
			c3.703,4.533,11.991,3.466,10.964,11.491C301.545,600.878,299.028,607.124,298.461,613.62z"/>
		<path style="fill:#A6D7C9;" d="M363.135,619.26c-16.893,17.17-40.533,25.893-64.279,26.183c0.053-1.963,1.212-3.9,3.848-4.902
			c7.682-14.469,6.997-40.243,29.636-21.98C341.933,621.54,356.639,606.887,363.135,619.26z"/>
		<path style="fill:#A6D7C9;" d="M325.32,524.195c-1.372,22.433-20.886,12.946-20.874-4.71c2.131-9.519,18.594-6.686,20.449,1.372
			C325.173,521.949,325.247,523.074,325.32,524.195z"/>
		<path style="fill:#A6D7C9;" d="M351.263,484.483c-0.066,4.151-3.018,7.972-7.458,8.605c-5.785,1.054-11.543-3.69-17.17-1.225
			c-4.612,2.715-7.682,9.119-13.784,8.486c-20.622-12.373-19.898,1.265-39.901,0.698c-21.163-4.612-10.871-19.871,2.385-30.255
			C301.11,464.836,329.494,469.408,351.263,484.483z"/>
		<path style="fill:#A6D7C9;" d="M265.33,519.883c1.265,7.311-16.203,7.99-20.926,7.532c-2.5,1.003-4.186,3.916-7.175,3.772
			c-4.208,0.029-6.416-5.788-3.946-8.916c-2.051-1.383-5.631-10.412-2.965-12.318c5.376-2.589,11.411,2.987,17.033,3.531
			C252.943,517.58,263.307,513.143,265.33,519.883z"/>
	</g>
	<g style="clip-path:url(#SVGID_00000152233774522065556060000011127507475913806727_);">
		<path style="fill:#394871;" d="M122.719,758.844c5.198,0.379,22.472-33.217,21.813-35.737
			c-0.659-2.52-204.709-124.953-204.709-124.953s-26.982,36.111-23.383,38.308C-79.96,638.659,120.092,758.653,122.719,758.844z"/>
		<path style="fill:#D98968;" d="M81.366,713.12c0.096-0.157,1.026-1.682,1.026-1.682S-30.51,642.785-30.742,642.839
			c-0.232,0.054-0.989,1.62-0.989,1.62L81.366,713.12z"/>
		<path style="fill:#C65B32;" d="M99.675,735.301c0,0,13.162-20.021,12.476-20.439c-0.686-0.418-6.385-4.956-6.856-4.185
			c-0.471,0.771-13.601,20.547-12.476,20.439C93.944,731.009,99.675,735.301,99.675,735.301z"/>
		<path style="fill:#C65B32;" d="M-55.188,652.366c0,0,22.649-35.818,21.749-36.896c-0.9-1.078-3.556-2.391-3.556-2.391
			l-22.172,36.611L-55.188,652.366z"/>
		<path style="fill:#D98968;" d="M-69.432,643.065c0,0,22.649-35.818,21.749-36.896c-0.9-1.078-3.556-2.391-3.556-2.391
			L-73.41,640.39L-69.432,643.065z"/>
		<path style="fill:#C65B32;" d="M-49.041,656.168c0,0,22.649-35.818,21.749-36.896c-0.9-1.078-3.556-2.391-3.556-2.391
			l-22.172,36.612L-49.041,656.168z"/>
		<path style="fill:#D98968;" d="M128.464,738.62c-4.198,6.877-17.141,6.388-19.104-0.368c-1.963-6.756,3.761-15.702,12.169-14.01
			C127.14,725.37,132.153,732.578,128.464,738.62z"/>
	</g>
	<g style="clip-path:url(#SVGID_00000152233774522065556060000011127507475913806727_);">
		<path style="fill:#F2E4C1;" d="M548.695,534.872c-0.874,4.067,24.816,24.155,26.954,24.106
			c2.138-0.049,124.67-139.399,124.67-139.399s-26.701-28.291-28.893-25.84C669.234,396.191,549.137,532.818,548.695,534.872z"/>
		<path style="fill:#D98968;" d="M544.452,536.105c1.099,1.204,3.591,3.978,4.263,3.812
			c0.671-0.166,126.704-145.987,126.704-145.987l-3.989-3.567L544.452,536.105z"/>
		<path style="fill:#D98968;" d="M701.789,417.906c-1.1-1.202-3.596-3.974-4.263-3.812
			c-0.667,0.161-125.333,144.454-125.333,144.454l3.989,3.568L701.789,417.906z"/>
		<path style="fill:#FBF5E2;" d="M559.675,544.14c0,0,119.087-139.66,120.081-139.081
			C680.751,405.638,559.675,544.14,559.675,544.14z"/>
		<path style="fill:#FBF5E2;" d="M563.651,546.388c0,0,119.087-139.66,120.081-139.081
			C684.727,407.886,563.651,546.388,563.651,546.388z"/>
		<path style="fill:#FBF5E2;" d="M565.881,549.69c4.353-4.477,120.29-139.515,121.518-137.796
			C688.627,413.612,565.881,549.69,565.881,549.69z"/>
		<path style="fill:#FBF5E2;" d="M675.064,400.861c-4.353,4.477-120.29,139.515-121.518,137.796S675.064,400.861,675.064,400.861z"
			/>
	</g>
	<g style="clip-path:url(#SVGID_00000152233774522065556060000011127507475913806727_);">
		
			<text transform="matrix(0.9839 0 0 1 198.2655 72.7607)" style="fill:#394871; font-family:'RubikRoman-Medium'; font-size:30.1298px;">APRIL 23, 10 AM</text>
	</g>
	<g style="clip-path:url(#SVGID_00000152233774522065556060000011127507475913806727_);">
		<path style="fill:#394871;" d="M202.148,796.698c0,0.484-0.379,0.876-0.847,0.876c-0.468,0-0.848-0.392-0.848-0.876
			c0-0.484,0.38-0.876,0.848-0.876C201.769,795.823,202.148,796.215,202.148,796.698z M201.093,800.623
			c0,2.028-1.596,3.678-3.558,3.678c-1.961,0-3.558-1.65-3.558-3.678c0-2.028,1.597-3.678,3.558-3.678
			C199.497,796.946,201.093,798.595,201.093,800.623z M199.815,800.623c0-1.299-1.023-2.356-2.28-2.356
			c-1.256,0-2.279,1.057-2.279,2.356c0,1.299,1.023,2.356,2.279,2.356C198.792,802.98,199.815,801.922,199.815,800.623z
			 M204.737,797.669c0-2.478-1.943-4.486-4.34-4.486h-5.922c-2.397,0-4.34,2.009-4.34,4.486v6.122c0,2.478,1.943,4.486,4.34,4.486
			h5.922c2.397,0,4.34-2.008,4.34-4.486V797.669z M203.313,803.723c0,1.701-1.335,3.081-2.981,3.081h-5.792
			c-1.646,0-2.981-1.38-2.981-3.081v-5.987c0-1.702,1.335-3.081,2.981-3.081h5.792c1.646,0,2.981,1.379,2.981,3.081V803.723z"/>
		<path style="fill:#394871;" d="M336.312,793.763c-0.242-0.916-0.957-1.637-1.867-1.884c-1.648-0.444-8.264-0.444-8.264-0.444
			s-6.616,0-8.264,0.444c-0.91,0.248-1.631,0.968-1.873,1.884c-0.444,1.66-0.444,5.123-0.444,5.123s0,3.464,0.444,5.123
			c0.242,0.916,0.962,1.642,1.873,1.885c1.648,0.444,8.264,0.444,8.264,0.444s6.616,0,8.264-0.444
			c0.91-0.242,1.625-0.968,1.867-1.885c0.444-1.66,0.444-5.123,0.444-5.123S336.756,795.423,336.312,793.763z M324.014,802.034
			v-6.293l5.533,3.147L324.014,802.034z"/>
		<text transform="matrix(1 0 0 1 339.8533 805.4421)" style="fill:#394871; font-family:'Rubik-Light'; font-size:17.0423px;">bookday</text>
		<text transform="matrix(1 0 0 1 206.9894 805.4421)" style="fill:#394871; font-family:'Rubik-Light'; font-size:17.0423px;">@bookday</text>
	</g>
</g>
</svg>
