<?xml version="1.0" encoding="utf-8"?>
<!-- Generator: Adobe Illustrator 27.5.0, SVG Export Plug-In . SVG Version: 6.00 Build 0)  -->
<svg version="1.1" id="PRINT" xmlns="http://www.w3.org/2000/svg" xmlns:xlink="http://www.w3.org/1999/xlink" x="0px" y="0px"
	 viewBox="0 0 427.75 602.339" style="enable-background:new 0 0 427.75 602.339;" xml:space="preserve">
<g>
	<g>
		<rect x="-14.173" y="-14.173" style="fill-rule:evenodd;clip-rule:evenodd;fill:#FFFFFF;" width="456.097" height="630.686"/>
	</g>
	<g>
		<defs>
			<rect id="SVGID_1_" x="-14.173" y="-14.173" width="456.097" height="630.686"/>
		</defs>
		<clipPath id="SVGID_00000160912054415861586530000004847882201530512311_">
			<use xlink:href="#SVGID_1_"  style="overflow:visible;"/>
		</clipPath>
		<g style="clip-path:url(#SVGID_00000160912054415861586530000004847882201530512311_);">
			<g style="opacity:0.2;">
				<polygon style="fill-rule:evenodd;clip-rule:evenodd;" points="-9.968,29.871 -9.968,-46.598 78.567,-46.598 278.495,157.298 
									"/>
				<polygon style="fill:none;stroke:#000000;stroke-width:0.5102;stroke-miterlimit:10;" points="212.574,-46.598 359.08,-46.598 
					293.049,35.478 				"/>
				<polygon style="fill-rule:evenodd;clip-rule:evenodd;" points="242.454,-46.598 442.514,-46.598 442.514,157.139 
					442.382,157.298 				"/>
				<polygon style="fill-rule:evenodd;clip-rule:evenodd;" points="333.617,-46.598 442.514,-46.598 442.514,64.463 				"/>
				<polygon style="fill-rule:evenodd;clip-rule:evenodd;" points="442.514,64.463 393.443,14.414 411.155,-7.626 				"/>
				<polygon style="fill-rule:evenodd;clip-rule:evenodd;" points="-9.968,114.467 -9.968,23.085 152.527,188.826 				"/>
				<polygon style="fill-rule:evenodd;clip-rule:evenodd;" points="-9.968,114.467 -9.968,-46.598 194.686,-46.598 31.285,156.527 
									"/>
				<polygon style="fill-rule:evenodd;clip-rule:evenodd;" points="-9.968,8.331 -9.968,-46.598 109.308,-46.598 31.285,50.413 				
					"/>
				<polygon style="fill-rule:evenodd;clip-rule:evenodd;" points="-9.968,8.331 -9.968,-46.598 46.92,-46.598 31.285,50.413 				
					"/>
				<polygon style="fill-rule:evenodd;clip-rule:evenodd;" points="-9.968,114.467 -9.968,43.331 31.285,156.527 				"/>
				<polygon style="fill-rule:evenodd;clip-rule:evenodd;" points="78.567,-46.598 442.514,-46.598 278.495,157.298 				"/>
				<polygon style="fill-rule:evenodd;clip-rule:evenodd;" points="154.537,-46.598 407.312,-46.598 293.402,95.015 				"/>
				<polygon style="fill-rule:evenodd;clip-rule:evenodd;" points="152.593,-46.598 212.574,-46.598 293.049,35.478 				"/>
				<polygon style="fill-rule:evenodd;clip-rule:evenodd;" points="212.574,-46.598 359.08,-46.598 293.049,35.478 				"/>
				<polygon style="fill-rule:evenodd;clip-rule:evenodd;" points="352.345,65.484 442.382,157.298 318.026,108.157 				"/>
				<polygon style="fill-rule:evenodd;clip-rule:evenodd;" points="217.278,108.316 152.527,188.826 71.655,106.341 136.693,25.491 
									"/>
			</g>
			<g>
				<g>
					<polygon style="fill-rule:evenodd;clip-rule:evenodd;fill:#21447E;" points="-14.173,24.36 -14.173,-52.798 75.159,-52.798 
						276.886,152.934 					"/>
					<polygon style="fill:none;stroke:#010101;stroke-width:0.5102;stroke-miterlimit:10;" points="210.372,-52.798 
						358.197,-52.798 291.571,30.017 					"/>
					<polygon style="fill-rule:evenodd;clip-rule:evenodd;fill:#F16262;" points="240.521,-52.798 442.382,-52.798 442.382,152.773 
						442.248,152.934 					"/>
					<polygon style="fill-rule:evenodd;clip-rule:evenodd;fill:#4EB965;" points="332.504,-52.798 442.382,-52.798 442.382,59.263 
											"/>
					<polygon style="fill-rule:evenodd;clip-rule:evenodd;fill:#24AD53;" points="442.382,59.263 392.869,8.763 410.74,-13.475 
											"/>
					<polygon style="fill-rule:evenodd;clip-rule:evenodd;fill:#CD8A36;" points="-14.173,109.717 -14.173,17.512 149.784,184.745 
											"/>
					<polygon style="fill-rule:evenodd;clip-rule:evenodd;fill:#BBDAE7;" points="-14.173,109.717 -14.173,-52.798 192.322,-52.798 
						27.451,152.155 					"/>
					<polygon style="fill-rule:evenodd;clip-rule:evenodd;fill:#4EB965;" points="-14.173,2.626 -14.173,-52.798 106.177,-52.798 
						27.451,45.086 					"/>
					<polygon style="fill-rule:evenodd;clip-rule:evenodd;fill:#24AD53;" points="-14.173,2.626 -14.173,-52.798 43.227,-52.798 
						27.451,45.086 					"/>
					<polygon style="fill-rule:evenodd;clip-rule:evenodd;fill:#89AEBD;" points="-14.173,109.717 -14.173,37.941 27.451,152.155 
											"/>
					<polygon style="fill-rule:evenodd;clip-rule:evenodd;fill:#47679E;" points="75.159,-52.798 442.382,-52.798 276.886,152.934 
											"/>
					<polygon style="fill-rule:evenodd;clip-rule:evenodd;fill:#21447E;" points="151.812,-52.798 406.862,-52.798 291.927,90.09 
											"/>
					<polygon style="fill-rule:evenodd;clip-rule:evenodd;fill:#CD8A36;" points="149.851,-52.798 210.372,-52.798 291.571,30.017 
											"/>
					<polygon style="fill-rule:evenodd;clip-rule:evenodd;fill:#F7B026;" points="210.372,-52.798 358.197,-52.798 291.571,30.017 
											"/>
					<polygon style="fill-rule:evenodd;clip-rule:evenodd;fill:#E24A49;" points="351.4,60.294 442.248,152.934 316.773,103.35 
											"/>
					<polygon style="fill-rule:evenodd;clip-rule:evenodd;fill:#F7B026;" points="215.118,103.51 149.784,184.745 68.184,101.518 
						133.807,19.94 					"/>
				</g>
			</g>
		</g>
		<g style="clip-path:url(#SVGID_00000160912054415861586530000004847882201530512311_);">
			<polygon style="fill-rule:evenodd;clip-rule:evenodd;fill:#21447E;" points="444.264,556.297 444.264,633.43 354.274,633.43 
				151.062,427.766 			"/>
			<polygon style="fill:none;stroke:#010101;stroke-width:0.5102;stroke-miterlimit:10;" points="218.066,633.43 69.152,633.43 
				136.269,550.642 			"/>
			<polygon style="fill-rule:evenodd;clip-rule:evenodd;fill:#F16262;" points="187.695,633.43 -15.652,633.43 -15.652,427.926 
				-15.518,427.766 			"/>
			<polygon style="fill-rule:evenodd;clip-rule:evenodd;fill:#4EB965;" points="95.034,633.43 -15.652,633.43 -15.652,521.406 			
				"/>
			<polygon style="fill-rule:evenodd;clip-rule:evenodd;fill:#24AD53;" points="-15.652,521.406 34.225,571.888 16.222,594.12 			
				"/>
			<polygon style="fill-rule:evenodd;clip-rule:evenodd;fill:#CD8A36;" points="444.264,470.968 444.264,563.143 279.099,395.965 
							"/>
			<polygon style="fill-rule:evenodd;clip-rule:evenodd;fill:#BBDAE7;" points="444.264,470.968 444.264,633.43 236.248,633.43 
				402.333,428.544 			"/>
			<polygon style="fill-rule:evenodd;clip-rule:evenodd;fill:#4EB965;" points="444.264,578.024 444.264,633.43 323.028,633.43 
				402.333,535.577 			"/>
			<polygon style="fill-rule:evenodd;clip-rule:evenodd;fill:#24AD53;" points="444.264,578.024 444.264,633.43 386.441,633.43 
				402.333,535.577 			"/>
			<polygon style="fill-rule:evenodd;clip-rule:evenodd;fill:#89AEBD;" points="444.264,470.968 444.264,542.721 402.333,428.544 
							"/>
			<polygon style="fill-rule:evenodd;clip-rule:evenodd;fill:#47679E;" points="354.274,633.43 -15.652,633.43 151.062,427.766 			
				"/>
			<polygon style="fill-rule:evenodd;clip-rule:evenodd;fill:#21447E;" points="277.056,633.43 20.128,633.43 135.91,490.589 			"/>
			<polygon style="fill-rule:evenodd;clip-rule:evenodd;fill:#CD8A36;" points="279.032,633.43 218.066,633.43 136.269,550.642 			
				"/>
			<polygon style="fill-rule:evenodd;clip-rule:evenodd;fill:#F7B026;" points="218.066,633.43 69.152,633.43 136.269,550.642 			
				"/>
			<polygon style="fill-rule:evenodd;clip-rule:evenodd;fill:#E24A49;" points="75.999,520.375 -15.518,427.766 110.881,477.333 			
				"/>
			<polygon style="fill-rule:evenodd;clip-rule:evenodd;fill:#F7B026;" points="213.285,477.173 279.099,395.965 361.3,479.164 
				295.194,560.716 			"/>
		</g>
	</g>
	<path style="fill-rule:evenodd;clip-rule:evenodd;fill:#21447E;" d="M331.42,500.298H198.483c-7.394,0-13.388-5.994-13.388-13.388
		l0,0c0-7.394,5.994-13.388,13.388-13.388H331.42c7.394,0,13.388,5.994,13.388,13.388l0,0
		C344.808,494.304,338.814,500.298,331.42,500.298z"/>
	<g>
		<g>
			<g style="opacity:0.2;">
				<path style="fill-rule:evenodd;clip-rule:evenodd;" d="M354.42,321.663H77.53c-7.226,0-13.084-5.858-13.084-13.085l0,0
					c0-7.226,5.858-13.084,13.084-13.084h276.89c7.226,0,13.085,5.858,13.085,13.084l0,0
					C367.505,315.805,361.647,321.663,354.42,321.663z"/>
			</g>
			<g>
				<path style="fill-rule:evenodd;clip-rule:evenodd;fill:#21447E;" d="M350.22,317.463H73.33c-7.226,0-13.084-5.858-13.084-13.085
					l0,0c0-7.226,5.858-13.085,13.084-13.085h276.89c7.226,0,13.084,5.858,13.084,13.085l0,0
					C363.305,311.605,357.447,317.463,350.22,317.463z"/>
			</g>
		</g>
		<text transform="matrix(1 0 0 1 89.4195 274.8146)" style="fill:#21447E; font-family:'BebasNeueBold'; font-size:83.4077px;">HEADLINE</text>
		<rect x="85.973" y="296.37" style="fill:none;" width="251.604" height="29.117"/>
		<text transform="matrix(1 0 0 1 86.3048 308.9122)" style="fill:#FFFFFF; font-family:'BebasNeueBold'; font-size:17.9184px;">Lorem ipsum dolor sit amet, consectetuer </text>
		<rect x="117.704" y="330.019" style="fill:none;" width="188.143" height="68.402"/>
		<text transform="matrix(1 0 0 1 129.7735 336.6661)"><tspan x="0" y="0" style="fill:#21447E; font-family:'Montserrat-Regular'; font-size:8.9592px;">Lorem ipsum dolor sit amet, consec</tspan><tspan x="160.579" y="0" style="fill:#21447E; font-family:'Montserrat-Regular'; font-size:8.9592px;">-</tspan><tspan x="-6.683" y="10.751" style="fill:#21447E; font-family:'Montserrat-Regular'; font-size:8.9592px;">tetuer adipiscing elit, sed diam nonum</tspan><tspan x="167.264" y="10.751" style="fill:#21447E; font-family:'Montserrat-Regular'; font-size:8.9592px;">-</tspan><tspan x="-2.271" y="21.502" style="fill:#21447E; font-family:'Montserrat-Regular'; font-size:8.9592px;">my nibh euismod tincidunt ut laoreet </tspan><tspan x="-6.925" y="32.253" style="fill:#21447E; font-family:'Montserrat-Regular'; font-size:8.9592px;">dolore magna aliquam erat volutpat. Ut </tspan><tspan x="-10.764" y="43.004" style="fill:#21447E; font-family:'Montserrat-Regular'; font-size:8.9592px;">wisi enim ad minim veniam, quis nostrud </tspan><tspan x="-10.885" y="53.755" style="fill:#21447E; font-family:'Montserrat-Regular'; font-size:8.9592px;">exerci tation ullamcorper suscipit lobortis </tspan></text>
	</g>
	<rect x="220.611" y="477.809" style="fill:none;" width="112.874" height="19.903"/>
	<text transform="matrix(1 0 0 1 220.6105 484.455)"><tspan x="0" y="0" style="fill:#BBDAE7; font-family:'Montserrat-Regular'; font-size:8.9592px;">Lorem ipsum dolor sit </tspan><tspan x="0" y="10.751" style="fill:#BBDAE7; font-family:'Montserrat-Regular'; font-size:8.9592px;">amet, consectetuer </tspan></text>
	<path style="fill-rule:evenodd;clip-rule:evenodd;fill:#21447E;" d="M366.936,541.213H233.999c-7.394,0-13.388-5.994-13.388-13.388
		l0,0c0-7.394,5.994-13.388,13.388-13.388h132.937c7.394,0,13.388,5.994,13.388,13.388l0,0
		C380.324,535.219,374.33,541.213,366.936,541.213z"/>
	<rect x="256.126" y="518.723" style="fill:none;" width="112.874" height="19.903"/>
	<text transform="matrix(1 0 0 1 256.1261 525.3695)"><tspan x="0" y="0" style="fill:#BBDAE7; font-family:'Montserrat-Regular'; font-size:8.9592px;">Lorem ipsum dolor sit </tspan><tspan x="0" y="10.751" style="fill:#BBDAE7; font-family:'Montserrat-Regular'; font-size:8.9592px;">amet, consectetuer </tspan></text>
	<path style="fill-rule:evenodd;clip-rule:evenodd;fill:#21447E;" d="M402.451,582.127H269.514c-7.394,0-13.388-5.994-13.388-13.388
		l0,0c0-7.394,5.994-13.388,13.388-13.388h132.937c7.394,0,13.388,5.994,13.388,13.388l0,0
		C415.84,576.133,409.845,582.127,402.451,582.127z"/>
	<rect x="291.642" y="559.637" style="fill:none;" width="112.874" height="19.903"/>
	<text transform="matrix(1 0 0 1 291.6418 566.2855)"><tspan x="0" y="0" style="fill:#BBDAE7; font-family:'Montserrat-Regular'; font-size:8.9592px;">Lorem ipsum dolor sit </tspan><tspan x="0" y="10.751" style="fill:#BBDAE7; font-family:'Montserrat-Regular'; font-size:8.9592px;">amet, consectetuer </tspan></text>
	<g>
		<path style="fill-rule:evenodd;clip-rule:evenodd;fill:#BBDAE7;" d="M196.082,501.71c8.032,0,14.589-6.557,14.589-14.589
			c0-8.032-6.557-14.581-14.589-14.581c-8.032,0-14.581,6.548-14.581,14.581C181.501,495.153,188.05,501.71,196.082,501.71
			L196.082,501.71z"/>
		<path style="fill-rule:evenodd;clip-rule:evenodd;fill:#21447E;" d="M196.082,488.434c1.671,0,3.036-1.364,3.036-3.027
			c0-1.671-1.364-3.036-3.036-3.036c-1.663,0-3.027,1.364-3.027,3.036C193.055,487.069,194.419,488.434,196.082,488.434
			L196.082,488.434z"/>
		<path style="fill-rule:evenodd;clip-rule:evenodd;fill:#21447E;" d="M198.683,487.76c1.117,0.81,1.842,2.115,1.842,3.598
			c0,0.179-0.009,0.349-0.026,0.52h-8.825c-0.017-0.171-0.026-0.341-0.026-0.52c0-1.484,0.725-2.788,1.842-3.598
			c0.529,0.878,1.492,1.466,2.592,1.466C197.19,489.227,198.154,488.638,198.683,487.76L198.683,487.76z"/>
	</g>
	<g>
		<path style="fill-rule:evenodd;clip-rule:evenodd;fill:#BBDAE7;" d="M232.974,542.409c8.032,0,14.589-6.557,14.589-14.589
			c0-8.032-6.557-14.581-14.589-14.581c-8.032,0-14.58,6.548-14.58,14.581C218.394,535.852,224.942,542.409,232.974,542.409
			L232.974,542.409z"/>
		<path style="fill-rule:evenodd;clip-rule:evenodd;fill:#21447E;" d="M234.748,523.761c1.688,0.981,2.268,3.146,1.296,4.835
			c-0.887,1.526-2.72,2.149-4.315,1.543l-1.108,1.927c-0.162,0.273-0.512,0.375-0.793,0.213l0,0
			c-0.273-0.162-0.367-0.511-0.213-0.793l1.117-1.927c-1.313-1.074-1.697-2.976-0.819-4.502
			C230.894,523.369,233.051,522.789,234.748,523.761L234.748,523.761z M234.194,524.725c1.16,0.665,1.56,2.157,0.887,3.317
			c-0.665,1.168-2.157,1.569-3.317,0.895c-1.168-0.674-1.569-2.157-0.895-3.326C231.542,524.452,233.025,524.051,234.194,524.725
			L234.194,524.725z"/>
	</g>
	<g>
		<path style="fill-rule:evenodd;clip-rule:evenodd;fill:#BBDAE7;" d="M268.089,583.323c8.032,0,14.589-6.557,14.589-14.589
			c0-8.032-6.557-14.581-14.589-14.581c-8.032,0-14.581,6.549-14.581,14.581C253.509,576.766,260.057,583.323,268.089,583.323
			L268.089,583.323z"/>
		<path style="fill-rule:evenodd;clip-rule:evenodd;fill:#21447E;" d="M268.089,564.258c1.739,0,3.146,1.407,3.146,3.146
			c0,0.52-0.128,1.006-0.35,1.441c-0.512,0.989-2.098,2.899-2.822,3.931c-0.725-1.032-2.328-3.001-2.814-4.033l0,0l0,0
			c-0.188-0.409-0.298-0.861-0.298-1.339C264.952,565.665,266.358,564.258,268.089,564.258L268.089,564.258z M268.089,565.921
			c0.819,0,1.484,0.665,1.484,1.484c0,0.819-0.665,1.475-1.484,1.475c-0.81,0-1.475-0.656-1.475-1.475
			C266.614,566.586,267.279,565.921,268.089,565.921L268.089,565.921z"/>
		<path style="fill-rule:evenodd;clip-rule:evenodd;fill:#21447E;" d="M268.089,573.211c0.819,0,1.484-0.162,1.484-0.358
			c0-0.196-0.665-0.358-1.484-0.358c-0.81,0-1.475,0.162-1.475,0.358C266.614,573.049,267.279,573.211,268.089,573.211
			L268.089,573.211z"/>
	</g>
</g>
</svg>
