<?xml version="1.0" encoding="utf-8"?>
<!-- Generator: Adobe Illustrator 27.5.0, SVG Export Plug-In . SVG Version: 6.00 Build 0)  -->
<svg version="1.1" id="PRINT" xmlns="http://www.w3.org/2000/svg" xmlns:xlink="http://www.w3.org/1999/xlink" x="0px" y="0px"
	 viewBox="0 0 595.281 841.89" style="enable-background:new 0 0 595.281 841.89;" xml:space="preserve">
<rect x="-14.173" y="-14.173" style="fill:#FFFFFF;" width="623.628" height="870.236"/>
<g>
	<defs>
		<rect id="SVGID_1_" x="-14.173" y="-14.173" width="623.628" height="870.236"/>
	</defs>
	<clipPath id="SVGID_00000031914050523917517230000003357368209325337263_">
		<use xlink:href="#SVGID_1_"  style="overflow:visible;"/>
	</clipPath>
	
		<rect id="XMLID_7_" x="-24.98" y="733" style="clip-path:url(#SVGID_00000031914050523917517230000003357368209325337263_);fill:#00365B;" width="659.728" height="138.857"/>
	<g style="clip-path:url(#SVGID_00000031914050523917517230000003357368209325337263_);">
		<path style="fill:#FFB300;" d="M589.849,152.273c2.086-10.261,3.627-20.631,4.615-31.055c0.988-10.424,1.428-20.899,1.323-31.369
			c-0.105-10.443-0.749-20.882-1.93-31.259c-1.184-10.403-2.909-20.745-5.171-30.969c-2.249-10.163-5.031-20.207-8.334-30.079
			c-0.403-1.204-0.814-2.405-1.232-3.604c-0.106-0.353-0.213-0.706-0.319-1.058c-0.132-0.438-0.811-0.602-0.969-0.073
			c-3.038,10.204-5.34,20.626-6.898,31.158c-1.556,10.523-2.372,21.155-2.453,31.792c-0.081,10.615,0.565,21.238,1.933,31.765
			c1.374,10.582,3.481,21.07,6.313,31.359c2.807,10.2,6.321,20.208,10.538,29.911c0.532,1.224,1.076,2.442,1.629,3.656
			C589.123,152.95,589.757,152.727,589.849,152.273z"/>
		<path style="fill:#FFB300;" d="M534.088,113.582c3.981-7.167,7.648-14.507,11.002-21.988c3.345-7.46,6.368-15.065,9.06-22.785
			c2.683-7.692,5.037-15.499,7.055-23.391c2.028-7.933,3.666-15.973,4.985-24.053c1.312-8.037,2.304-16.126,2.747-24.26
			c0.056-1.02,0.105-2.041,0.15-3.062c0.013-0.302-0.18-0.478-0.405-0.522c-0.071-0.445-0.613-0.805-1.022-0.397
			c-0.664,0.661-1.445,1.242-2.147,1.864c-0.743,0.659-1.486,1.314-2.166,2.037c-1.387,1.476-2.713,3.007-4.011,4.563
			c-2.645,3.171-5.102,6.504-7.423,9.918c-4.72,6.944-8.836,14.312-12.17,22.021c-1.599,3.698-3.009,7.48-4.16,11.341
			c-1.182,3.963-2.023,8.009-2.725,12.083c-1.501,8.715-2.2,17.565-2.295,26.404c-0.095,8.89,0.433,17.782,1.392,26.618
			c0.119,1.097,0.245,2.193,0.377,3.289C532.433,114.088,533.694,114.292,534.088,113.582z"/>
		<g>
			<path style="fill:#FA5F4D;" d="M81.907,387.746c0.004-0.038,0.01-0.076,0.014-0.114c0.023-0.231-0.317-0.354-0.407-0.117
				c-0.527,1.387-0.82,2.839-1.11,4.291c-0.296,1.481-0.544,2.971-0.757,4.465c-0.426,2.986-0.688,5.995-0.768,9.011
				c-0.161,6.006,0.391,12.019,1.896,17.844c0.67,2.594,1.701,5.684,4.679,6.307c1.199,0.25,2.386-0.126,3.225-1.017
				c0.897-0.953,1.28-2.275,1.57-3.519c1.351-5.794,0.825-11.871-0.641-17.588c-1.562-6.089-4.017-11.995-6.721-17.657
				C82.58,389.007,82.231,388.382,81.907,387.746z"/>
			<path style="fill:#FA5F4D;" d="M65.692,400.252c-0.096-0.099-0.301-0.055-0.267,0.111c0.006,0.029,0.011,0.059,0.017,0.088
				c-0.797,1.008-1.368,2.193-1.89,3.364c-0.554,1.243-1.051,2.513-1.489,3.802c-0.881,2.59-1.535,5.258-1.949,7.961
				c-0.828,5.397-0.719,10.944,0.361,16.297c0.531,2.634,1.259,5.282,2.304,7.762c0.385,0.913,1.05,2.015,2.133,2.147
				c1.418,0.173,2.113-1.389,2.582-2.449c2.318-5.244,2.063-11.191,1.654-16.78c-0.488-6.667-1.459-13.298-2.872-19.831
				c-0.145-0.67-0.297-1.339-0.451-2.008c0.021-0.06,0.044-0.118,0.065-0.178C65.94,400.385,65.821,400.253,65.692,400.252z"/>
			<path style="fill:#FA5F4D;" d="M40.779,402.019c1.237,0.361,2.502,0.616,3.782,0.769c4.838,0.577,9.89-0.149,14.444-1.848
				c4.417-1.648,8.565-3.927,12.807-5.963c0.44-0.211,0.882-0.42,1.326-0.623c0.152-0.07,0.165-0.232,0.101-0.344
				c0.005-0.097-0.04-0.191-0.164-0.232c-2.498-0.815-5.213-1.033-7.824-1.189c-2.676-0.16-5.363-0.133-8.035,0.085
				c-5.332,0.436-10.612,1.629-15.606,3.55c-1.498,0.576-4.796,1.72-3.744,3.974C38.382,401.304,39.702,401.705,40.779,402.019z"/>
			<path style="fill:#FA5F4D;" d="M74.455,386.461c1.945,0.261,3.917,0.319,5.875,0.22c0.962-0.048,1.927-0.124,2.88-0.264
				c0.876-0.128,1.767-0.269,2.584-0.616c0.107-0.045,0.151-0.131,0.152-0.217c0.007-0.061-0.008-0.125-0.065-0.178
				c-2.974-2.769-6.229-5.191-9.737-7.243c-1.758-1.029-3.571-1.963-5.429-2.796c-0.887-0.397-1.783-0.805-2.706-1.112
				c-0.824-0.275-1.701-0.435-2.553-0.192c-1.556,0.445-2.464,2.087-2.577,3.619c-0.14,1.895,0.922,3.578,2.256,4.832
				C67.668,384.894,71.071,386.006,74.455,386.461z"/>
			<path style="fill:#FA4D39;" d="M105.522,373.611c-9.835,5.308-19.66,10.673-28.819,17.105
				c-8.311,5.837-16.107,12.517-22.557,20.393c-1.733,2.116-3.356,4.327-4.855,6.615c-0.769,1.173-1.517,2.366-2.209,3.587
				c-0.329,0.581-0.619,1.188-0.911,1.789c-0.319,0.656-0.507,1.353-0.715,2.051c-0.1,0.338,0.322,0.668,0.57,0.339
				c0.366-0.487,0.783-0.952,1.1-1.471c0.32-0.524,0.635-1.05,0.963-1.57c0.659-1.048,1.27-2.125,1.941-3.166
				c1.314-2.039,2.728-4.014,4.225-5.922c3.033-3.864,6.383-7.469,9.98-10.813c7.779-7.234,16.597-13.27,25.647-18.789
				c5.297-3.23,10.656-6.357,16.021-9.472C106.278,374.069,105.91,373.401,105.522,373.611L105.522,373.611z"/>
			<path style="fill:#FA5F4D;" d="M32.798,439.602c1.22,0.509,2.839,0.049,4.044-0.311c2.775-0.829,5.187-2.556,7.228-4.572
				c2.145-2.118,3.961-4.586,5.517-7.163c3.099-5.133,5.154-10.816,6.781-16.565c0.199-0.705,0.394-1.411,0.587-2.117
				c0.034-0.124-0.433-0.299-0.57-0.213c-2.161,1.362-4.199,2.922-6.225,4.475c-2.094,1.605-4.147,3.265-6.117,5.021
				c-3.842,3.425-7.431,7.234-10.044,11.696c-0.628,1.071-1.193,2.18-1.68,3.322c-0.489,1.15-0.953,2.342-0.99,3.607
				C31.297,437.914,31.668,439.13,32.798,439.602z"/>
		</g>
		<g>
			<g>
				<path style="fill:#697328;" d="M110.526,121.86c1.708-3.881,3.016-7.913,3.915-12.058c0.45-2.077,0.789-4.179,1.034-6.29
					c0.252-2.177,0.409-4.428-0.159-6.57c-0.218-0.822-0.535-1.724-1.429-2.001c-0.778-0.241-1.638,0.046-2.221,0.585
					c-0.687,0.634-1.079,1.519-1.459,2.355c-0.404,0.889-0.766,1.797-1.086,2.72c-1.274,3.681-1.876,7.575-1.811,11.468
					c0.065,3.873,0.736,7.836,2.38,11.363c0.107,0.229,0.436,0.086,0.359-0.151c-0.021-0.065-0.041-0.131-0.062-0.197
					C110.168,122.676,110.346,122.268,110.526,121.86z"/>
				<path style="fill:#697328;" d="M104.684,90.138c0.075-1.136,0.042-2.403-0.564-3.406c-0.61-1.009-1.847-1.478-2.963-1.057
					c-1.441,0.543-2.385,2.104-3.058,3.4c-0.843,1.624-1.424,3.389-1.72,5.194c-0.337,2.053-0.318,4.162-0.034,6.219
					c0.284,2.06,0.782,4.202,1.792,6.035c0.067,0.122,0.286,0.099,0.28-0.045c0.055,0,0.109-0.027,0.138-0.094
					c0.12-0.281,0.253-0.557,0.389-0.83c1.263-2.521,2.762-4.918,3.757-7.564C103.645,95.485,104.508,92.825,104.684,90.138z"/>
				<path style="fill:#697328;" d="M95.452,67.356c-0.011-0.91-0.001-1.829-0.242-2.714c-0.187-0.687-0.531-1.396-1.181-1.749
					c-0.851-0.463-1.777-0.05-2.503,0.456c-1.373,0.958-2.265,2.436-2.797,3.999c-0.566,1.664-0.779,3.429-0.856,5.178
					c-0.103,2.35-0.004,4.708,0.254,7.045c0.262,2.371,0.693,4.724,1.228,7.048c0.536,2.329,1.124,4.667,1.976,6.902
					c0.065,0.172,0.289,0.169,0.397,0.063c0.085-0.015,0.164-0.073,0.192-0.178c0.148-0.573,0.278-1.148,0.405-1.725
					c1.009-4.585,1.886-9.222,2.475-13.88c0.293-2.312,0.505-4.636,0.6-6.965C95.448,69.676,95.466,68.516,95.452,67.356z"/>
				<path style="fill:#697328;" d="M65.17,81.392c0.301,1.152,1.266,2.108,2.03,2.982c0.738,0.845,1.513,1.658,2.319,2.44
					c3.279,3.184,7.09,5.819,11.215,7.787c2.063,0.985,4.208,1.799,6.408,2.424c2.168,0.616,4.424,1.146,6.686,1.197
					c0.049,0.001,0.088-0.013,0.123-0.032c0.075-0.011,0.139-0.088,0.116-0.171c0.01-0.088-0.034-0.175-0.137-0.213
					c-0.316-0.46-0.634-0.918-0.961-1.369c-2.94-4.06-6.418-7.714-10.265-10.925c-1.952-1.63-3.999-3.152-6.136-4.531
					c-2.084-1.345-4.367-2.593-6.849-2.979c-1.203-0.187-2.53-0.106-3.52,0.676C65.377,79.325,64.899,80.353,65.17,81.392z"/>
				<path style="fill:#697328;" d="M73.894,106.168c-0.076,1.304,0.727,2.477,1.576,3.391c0.906,0.975,1.983,1.771,3.111,2.468
					c3.2,1.978,6.81,3.268,10.433,4.222c2.384,0.628,4.809,1.097,7.251,1.433c1.371,0.189,2.748,0.331,4.127,0.436
					c1.446,0.11,2.93,0.241,4.368,0.008c0.124-0.02,0.148-0.156,0.081-0.231c0.058-0.041,0.086-0.117,0.023-0.186
					c-0.42-0.454-0.848-0.9-1.285-1.337c-3.652-3.65-7.9-6.633-12.533-8.906c-2.334-1.145-4.759-2.11-7.246-2.87
					c-1.216-0.372-2.446-0.699-3.686-0.977c-1.373-0.308-2.876-0.561-4.221,0.003C74.841,104.062,73.963,104.987,73.894,106.168z"/>
				<path style="fill:#697328;" d="M86.093,123.8c-0.404,0.825-0.174,1.827,0.335,2.548c0.6,0.85,1.55,1.423,2.415,1.969
					c0.866,0.546,1.76,1.048,2.676,1.505c3.717,1.852,7.79,2.958,11.902,3.47c2.07,0.257,4.157,0.362,6.243,0.334
					c1.047-0.014,2.094-0.063,3.138-0.146c1.025-0.082,2.044-0.175,3.035-0.454c0.261-0.074,0.153-0.391-0.05-0.458
					c-0.004-0.003-0.005-0.007-0.009-0.009c-0.467-0.286-0.936-0.569-1.407-0.848c-3.991-2.366-8.221-4.394-12.569-6.012
					c-2.186-0.814-4.417-1.514-6.688-2.053c-1.092-0.259-2.196-0.473-3.306-0.643c-1.08-0.165-2.186-0.324-3.279-0.34
					C87.58,122.649,86.548,122.87,86.093,123.8z"/>
			</g>
			<g>
				<path style="fill:#697328;" d="M129.653,149.172c-3.337-3.323-6.536-6.77-9.615-10.333c-3.085-3.57-6.003-7.29-8.803-11.086
					c-2.8-3.798-5.477-7.687-8.024-11.659c-2.554-3.984-4.979-8.051-7.27-12.192c-1.143-2.065-2.247-4.15-3.316-6.255
					c-0.534-1.052-1.06-2.108-1.577-3.169c-0.517-1.06-1.048-2.115-1.469-3.217c-0.211-0.552-0.419-1.103-0.606-1.663
					c-0.141-0.423,0.467-0.866,0.729-0.424c1.209,2.036,2.19,4.179,3.243,6.298c1.05,2.113,2.138,4.207,3.252,6.287
					c2.211,4.132,4.558,8.19,7.036,12.167c2.485,3.989,5.102,7.898,7.841,11.717c2.741,3.82,5.616,7.535,8.569,11.193
					c2.949,3.653,5.995,7.226,9.131,10.721c0.393,0.438,0.788,0.874,1.185,1.309C130.123,149.047,129.829,149.347,129.653,149.172
					L129.653,149.172z"/>
			</g>
		</g>
		<g>
			<g>
				<path style="fill:#29A8A8;" d="M556.41,359.833c-0.175-0.198-36.772-17.854-36.516-0.321
					C520.044,369.764,546.44,365.334,556.41,359.833z"/>
				<path style="fill:#29A8A8;" d="M549.379,384.358c0.168-3.187,0.233-6.38,0.184-9.571c-0.024-1.54-0.077-3.08-0.16-4.618
					c-0.081-1.508-0.15-3.026-0.402-4.516c-0.017-0.099-0.073-0.17-0.146-0.216c-0.058-0.197-0.323-0.314-0.472-0.095
					c-0.451,0.657-0.878,1.327-1.296,2.005c-3.354,5.436-6.227,11.259-8.143,17.363c-0.953,3.036-1.656,6.161-2.022,9.324
					c-0.181,1.561-0.279,3.131-0.285,4.702c-0.006,1.474,0.029,2.977,0.242,4.438c0.334,2.29,1.528,5.027,4.261,4.924
					c2.931-0.11,4.829-3.038,5.732-5.502c1.031-2.812,1.34-5.9,1.699-8.856C548.949,390.624,549.214,387.493,549.379,384.358z"/>
				<path style="fill:#29A8A8;" d="M534.169,378.739c-0.558-0.494-1.147-0.855-1.804-1.205c-5.154-2.747-11.233-3.746-17.024-3.498
					c-2.95,0.126-5.885,0.6-8.727,1.398c-1.406,0.394-2.787,0.867-4.143,1.408c-0.925,0.369-1.823,0.761-2.66,1.304
					c-1.177,0.764-2.387,1.869-2.687,3.299c-0.354,1.688,1.065,2.86,2.448,3.477c1.228,0.548,2.576,0.814,3.895,1.039
					c1.49,0.254,2.996,0.411,4.507,0.477c3.014,0.13,6.042-0.108,9.009-0.642c3.009-0.542,5.963-1.391,8.818-2.483
					c2.824-1.08,5.492-2.455,8.063-4.041c0.005,0.002,0.01,0.004,0.015,0.006C534.227,379.402,534.421,378.962,534.169,378.739z"/>
				<path style="fill:#29A8A8;" d="M521.64,402.59c-0.587,2.852-0.834,5.786-0.532,8.689c0.175,1.687,0.499,3.895,2.076,4.897
					c1.375,0.874,2.822,0.057,3.727-1.082c1.222-1.538,1.832-3.562,2.278-5.447c0.991-4.189,1.216-8.559,1.207-12.85
					c-0.004-2.04-0.071-4.081-0.199-6.117c-0.053-0.846-0.122-1.689-0.214-2.531c-0.076-0.696-0.269-1.367-0.359-2.055
					c-0.035-0.264-0.332-0.286-0.485-0.146c-0.072,0.003-0.143,0.032-0.194,0.105c-0.354,0.513-0.669,1.043-0.977,1.585
					C525.295,392.336,522.737,397.26,521.64,402.59z"/>
				<path style="fill:#29A8A8;" d="M495.615,398.583c-1.099,0.534-2.201,1.114-3.155,1.884c-1.774,1.431-3.131,4.069-1.851,6.264
					c1.129,1.935,3.595,2.362,5.652,2.397c5.182,0.089,10.233-1.668,14.624-4.337c4.531-2.755,8.312-6.411,11.852-10.318
					c0.301-0.069,0.252-0.574-0.069-0.599c-0.592-0.047-1.183-0.089-1.777-0.085c-4.974,0.033-9.966,0.414-14.846,1.405
					c-2.416,0.491-4.804,1.136-7.119,1.987C497.801,397.594,496.694,398.059,495.615,398.583z"/>
				<path style="fill:#29A8A8;" d="M508.921,415.293c3.482-5.797,6.989-11.576,10.736-17.206c3.736-5.612,7.658-11.107,11.93-16.326
					c3.978-4.86,8.26-9.484,12.922-13.696c4.439-4.01,9.234-7.614,14.369-10.686c5.093-3.046,10.517-5.586,16.249-7.157
					c0.714-0.196,1.427-0.272,2.163-0.313c0.327-0.018,0.499,0.404,0.178,0.568c-0.651,0.331-1.294,0.639-1.988,0.872
					c-0.71,0.238-1.417,0.487-2.118,0.75c-1.383,0.521-2.768,1.043-4.133,1.611c-2.695,1.122-5.319,2.413-7.864,3.844
					c-5.14,2.89-9.932,6.369-14.416,10.192c-4.668,3.981-8.959,8.374-12.943,13.036c-4.35,5.091-8.345,10.476-12.134,15.995
					c-3.797,5.529-7.416,11.178-11.062,16.807c-0.452,0.698-0.904,1.396-1.355,2.094
					C509.223,416.038,508.705,415.653,508.921,415.293L508.921,415.293z"/>
				<path style="fill:#29A8A8;" d="M498.116,431.258c-0.362,2.029-1.165,5.893,1.852,6.246c1.264,0.148,2.507-0.464,3.534-1.134
					c1.106-0.721,2.138-1.554,3.087-2.471c3.808-3.676,6.387-8.591,7.767-13.668c1.433-5.273,1.909-10.759,2.531-16.171
					c0.009-0.077-0.02-0.131-0.064-0.167c-0.029-0.192-0.207-0.353-0.428-0.24c-0.577,0.295-1.102,0.624-1.612,1.023
					c-4.204,3.29-7.843,7.34-10.716,11.837C501.198,421.004,499.055,426,498.116,431.258z"/>
			</g>
		</g>
	</g>
	<g style="clip-path:url(#SVGID_00000031914050523917517230000003357368209325337263_);">
		<g>
			<g>
				<g>
					<g>
						<path style="fill:#29A8A8;" d="M608.104,582.77l0.054,35.09c0.002,1.022-0.825,1.852-1.847,1.854l-222.402,0.473
							c-1.023,0.002-1.853-0.826-1.855-1.848L382,583.248c-0.002-1.022,0.825-1.852,1.847-1.854l222.402-0.473
							C607.272,580.92,608.102,581.747,608.104,582.77z"/>
						
							<rect x="380.81" y="597.195" transform="matrix(-0.0015 -1 1 -0.0015 -199.9337 1001.8847)" style="fill:#DB8F2C;" width="38.792" height="7.122"/>
						
							<rect x="396.646" y="582.476" transform="matrix(1 -0.0021 0.0021 1 -1.275 0.8493)" style="fill:#FCB040;" width="5.227" height="36.563"/>
						
							<rect x="373.126" y="599.835" transform="matrix(-0.0015 -1 1 -0.0015 -207.6461 994.2168)" style="fill:#DB8F2C;" width="38.792" height="1.874"/>
						
							<rect x="372.179" y="599.837" transform="matrix(-0.0015 -1 1 -0.0015 -208.5971 993.2712)" style="fill:#FCB040;" width="38.792" height="1.874"/>
						
							<rect x="571.368" y="596.79" transform="matrix(0.0015 1 -1 0.0015 1190.2062 8.6654)" style="fill:#DB8F2C;" width="38.792" height="7.122"/>
						
							<rect x="587.203" y="582.071" transform="matrix(1 -0.0021 0.0021 1 -1.2737 1.254)" style="fill:#FCB040;" width="5.227" height="36.563"/>
						
							<rect x="579.052" y="599.397" transform="matrix(0.0015 1 -1 0.0015 1197.8619 0.9651)" style="fill:#DB8F2C;" width="38.792" height="1.874"/>
						
							<rect x="578.104" y="599.399" transform="matrix(0.0015 1 -1 0.0015 1196.918 1.9146)" style="fill:#FCB040;" width="38.792" height="1.874"/>
					</g>
					<path style="fill:#29A8A8;stroke:#FFB248;stroke-linecap:round;stroke-miterlimit:10;" d="M571.105,588.451l0.035,22.942
						c-2.025,0.004-3.663,1.648-3.66,3.673l-147.938,0.314c-0.003-2.026-1.649-3.666-3.675-3.662l-0.035-22.942
						c2.025-0.004,3.663-1.648,3.66-3.673l147.938-0.314C567.433,586.815,569.078,588.455,571.105,588.451z"/>
				</g>
				<path style="opacity:0.42;fill:#29A8A8;" d="M569.107,607.45l-186.122,0.396l0.013,8.522c0.002,1.495,1.035,2.704,2.306,2.701
					l219.607-0.467c1.271-0.003,2.299-1.217,2.297-2.711l-0.048-31.151c-0.002-1.494-1.034-2.704-2.305-2.701l-14.244,0.03l0,0
					C590.632,596.062,581.005,607.425,569.107,607.45z"/>
			</g>
			<g>
				<rect x="388.064" y="627.35" style="fill:#EFE8D8;" width="212.312" height="37.967"/>
				<g>
					<path style="fill:#697328;" d="M594.817,621.635h-14.582c-1.436,0-2.601,0.94-2.601,2.101l0,0c0,1.16-1.164,2.101-2.6,2.101
						h-12.487c-1.436,0-2.6-0.94-2.6-2.101l0,0c0-1.16-1.164-2.101-2.601-2.101H382v9.798h210.217c1.436,0,2.6,0.94,2.6,2.101v27.37
						c0,1.16-1.164,2.101-2.6,2.101H382v9.798h175.346c1.436,0,2.601-0.94,2.601-2.101v0c0-1.16,1.164-2.101,2.6-2.101h12.487
						c1.436,0,2.6,0.94,2.6,2.101v0c0,1.16,1.164,2.101,2.601,2.101h26.711v-1.089v-8.709v-31.571v-7.697
						c0-1.16-1.164-2.101-2.601-2.101H594.817z"/>
				</g>
				<rect x="391.602" y="635.515" style="fill:#EAD9C1;" width="199.172" height="3.674"/>
				<rect x="391.602" y="642.864" style="fill:#EAD6B5;" width="199.172" height="3.674"/>
			</g>
			<g>
				
					<rect x="399.184" y="535.68" transform="matrix(-1 -1.224647e-16 1.224647e-16 -1 998.2173 1109.3267)" style="fill:#EFE8D8;" width="199.849" height="37.967"/>
				<g>
					<path style="fill:#002A4F;" d="M404.417,579.362h13.726c1.352,0,2.448-0.94,2.448-2.101l0,0c0-1.16,1.096-2.101,2.448-2.101
						h11.754c1.352,0,2.448,0.94,2.448,2.101l0,0c0,1.16,1.096,2.101,2.448,2.101h165.054v-9.798H406.865
						c-1.352,0-2.448-0.94-2.448-2.101v-27.37c0-1.16,1.096-2.101,2.448-2.101h197.877v-9.798H439.688
						c-1.352,0-2.448,0.94-2.448,2.101l0,0c0,1.16-1.096,2.101-2.448,2.101h-11.754c-1.352,0-2.448-0.94-2.448-2.101l0,0
						c0-1.16-1.096-2.101-2.448-2.101H393v1.089v8.709v31.571v7.697c0,1.16,1.096,2.101,2.448,2.101H404.417z"/>
				</g>
				
					<rect x="408.223" y="561.808" transform="matrix(-1 -1.224647e-16 1.224647e-16 -1 1003.926 1127.2896)" style="fill:#EAD9C1;" width="187.481" height="3.674"/>
				
					<rect x="408.223" y="554.459" transform="matrix(-1 -1.224647e-16 1.224647e-16 -1 1003.926 1112.5927)" style="fill:#EAD6B5;" width="187.481" height="3.674"/>
			</g>
			<g>
				
					<rect x="374.199" y="682.824" transform="matrix(-1 -1.224647e-16 1.224647e-16 -1 981.8258 1403.6154)" style="fill:#EFE8D8;" width="233.427" height="37.967"/>
				<g>
					<path style="fill:#FA4D39;" d="M378.69,726.507h11.78c1.16,0,2.101-0.94,2.101-2.101l0,0c0-1.16,0.94-2.101,2.101-2.101h10.087
						c1.16,0,2.101,0.941,2.101,2.101l0,0c0,1.16,0.94,2.101,2.101,2.101h203.566v-9.798H380.791c-1.16,0-2.101-0.94-2.101-2.101
						v-27.37c0-1.16,0.94-2.101,2.101-2.101h231.735v-9.798H408.96c-1.16,0-2.101,0.94-2.101,2.101v0c0,1.16-0.94,2.101-2.101,2.101
						h-10.087c-1.16,0-2.101-0.94-2.101-2.101v0c0-1.16-0.941-2.101-2.101-2.101h-21.578v1.089v8.709v31.571v7.697
						c0,1.16,0.941,2.101,2.101,2.101H378.69z"/>
				</g>
				
					<rect x="381.956" y="708.952" transform="matrix(-1 -1.224647e-16 1.224647e-16 -1 986.7249 1421.5786)" style="fill:#EAD9C1;" width="222.813" height="3.674"/>
				
					<rect x="381.956" y="701.604" transform="matrix(-1 -1.224647e-16 1.224647e-16 -1 986.7249 1406.8816)" style="fill:#EAD6B5;" width="222.813" height="3.674"/>
			</g>
		</g>
		<g>
			<g>
				<g>
					<path style="fill:#FA4D39;" d="M220.089,565.979l0.006,43.387c0,1.646-1.334,2.98-2.979,2.98l-226.792,0.021
						c-1.646,0-2.98-1.334-2.98-2.979l-0.006-43.387c0-1.646,1.334-2.98,2.98-2.98L217.109,563
						C218.755,563,220.089,564.334,220.089,565.979z"/>
					
						<rect x="-2.916" y="580.95" transform="matrix(-1.438808e-04 -1 1 -1.438808e-04 -565.9305 609.5325)" style="fill:#DB8F2C;" width="49.346" height="13.483"/>
					<rect x="15.016" y="564.436" style="fill:#FCB040;" width="9.894" height="46.511"/>
					
						<rect x="-17.463" y="585.918" transform="matrix(-1.442861e-04 -1 1 -1.442861e-04 -580.4809 594.9871)" style="fill:#DB8F2C;" width="49.346" height="3.548"/>
					
						<rect x="-19.257" y="585.918" transform="matrix(-1.442858e-04 -1 1 -1.442858e-04 -582.2751 593.1935)" style="fill:#FCB040;" width="49.346" height="3.548"/>
					
						<rect x="162.541" y="580.935" transform="matrix(1.437884e-04 1 -1 1.437884e-04 774.8628 400.3776)" style="fill:#DB8F2C;" width="49.346" height="13.483"/>
					<rect x="180.473" y="564.421" style="fill:#FCB040;" width="9.894" height="46.511"/>
					
						<rect x="177.088" y="585.901" transform="matrix(1.438805e-04 1 -1 1.438805e-04 789.4064 385.8293)" style="fill:#DB8F2C;" width="49.347" height="3.548"/>
					
						<rect x="175.294" y="585.901" transform="matrix(1.438808e-04 1 -1 1.438808e-04 787.613 387.6232)" style="fill:#FCB040;" width="49.346" height="3.548"/>
					<path style="fill:#DB8F2C;" d="M70.363,573.481c16.852-0.002,24.364,6.191,24.365,13.83
						c0.001,7.639-7.509,13.833-24.361,13.834c-16.852,0.002-26.256-6.19-26.258-13.829
						C44.109,579.676,53.511,573.482,70.363,573.481z"/>
					<path style="fill:#FCB040;" d="M91.141,587.311c0.001,7.774-8.435,12.415-22.568,12.416
						c-14.631,0.001-24.462-4.987-24.463-12.412c-0.001-7.426,9.829-12.416,24.46-12.417
						C82.702,574.897,91.14,579.537,91.141,587.311z"/>
				</g>
				<path style="opacity:0.29;fill:#CE5046;" d="M146.196,596.652l-157.06,0.014l0.002,10.841c0,1.901,1.951,3.442,4.357,3.442
					l220.451-0.02c2.406,0,4.356-1.542,4.356-3.443l-0.006-39.627c0-1.901-1.951-3.442-4.356-3.441l-26.966,0.002l0,0
					C186.977,582.219,168.72,596.65,146.196,596.652z"/>
			</g>
			<g>
				<g>
					<g>
						<path style="fill:#697328;" d="M202.883,668.974l0.116,57.25c0.003,1.646-1.329,2.983-2.975,2.986L-6.17,729.52
							c-1.645,0.003-2.981-1.329-2.984-2.974l-0.116-57.25c-0.003-1.646,1.329-2.983,2.975-2.986L199.899,666
							C201.544,665.997,202.88,667.329,202.883,668.974z"/>
						
							<rect x="-9.447" y="691.728" transform="matrix(-0.002 -1 1 -0.002 -675.6685 721.4435)" style="fill:#DB8F2C;" width="63.21" height="12.289"/>
						
							<rect x="16.013" y="667.681" transform="matrix(1 -0.0015 0.0015 1 -1.0523 0.0317)" style="fill:#FCB040;" width="9.019" height="60.388"/>
						
							<rect x="-22.707" y="696.276" transform="matrix(-0.002 -1 1 -0.002 -688.975 708.2029)" style="fill:#DB8F2C;" width="63.21" height="3.234"/>
						
							<rect x="-24.342" y="696.278" transform="matrix(-0.002 -1 1 -0.002 -690.6157 706.5709)" style="fill:#FCB040;" width="63.21" height="3.234"/>
						
							<rect x="2.95" y="696.237" transform="matrix(-0.002 -1 1 -0.002 -663.2276 733.8209)" style="fill:#DB8F2C;" width="63.21" height="3.234"/>
						
							<rect x="1.315" y="696.239" transform="matrix(-0.002 -1 1 -0.002 -664.8683 732.1895)" style="fill:#FCB040;" width="63.21" height="3.234"/>
						
							<rect x="141.367" y="691.501" transform="matrix(0.002 1 -1 0.002 870.2661 523.262)" style="fill:#DB8F2C;" width="63.21" height="12.289"/>
						
							<rect x="166.828" y="667.454" transform="matrix(1 -0.0015 0.0015 1 -1.0518 0.2592)" style="fill:#FCB040;" width="9.019" height="60.388"/>
						
							<rect x="154.627" y="696.008" transform="matrix(0.002 1 -1 0.002 883.4789 509.9825)" style="fill:#DB8F2C;" width="63.21" height="3.234"/>
						
							<rect x="152.992" y="696.011" transform="matrix(0.002 1 -1 0.002 881.8495 511.62)" style="fill:#FCB040;" width="63.21" height="3.234"/>
						
							<rect x="130.318" y="696.045" transform="matrix(0.002 1 -1 0.002 859.2551 534.3271)" style="fill:#DB8F2C;" width="63.21" height="3.234"/>
						
							<rect x="128.683" y="696.047" transform="matrix(0.002 1 -1 0.002 857.6262 535.9658)" style="fill:#FCB040;" width="63.21" height="3.234"/>
					</g>
					<path style="opacity:0.29;fill:#4E7728;" d="M119.266,713.707l-126.811,0.191l0.029,14.214l208.883-0.315l-0.122-60.388
						l-28.55,0.043l0,0C172.747,692.953,148.826,713.662,119.266,713.707z"/>
				</g>
				<path style="fill:#FCB040;" d="M98.122,679.886c27.506-0.041,43.34,1.691,43.368,15.559
					c0.028,13.868-13.211,15.644-40.717,15.685c-27.506,0.041-43.987-1.69-44.015-15.558
					C56.729,681.705,70.616,679.928,98.122,679.886z"/>
			</g>
			<g>
				
					<rect x="1.184" y="620.68" transform="matrix(-1 -1.224647e-16 1.224647e-16 -1 202.2174 1279.3267)" style="fill:#EFE8D8;" width="199.849" height="37.967"/>
				<g>
					<path style="fill:#002A4F;" d="M6.417,664.362h13.726c1.352,0,2.448-0.94,2.448-2.101l0,0c0-1.16,1.096-2.101,2.448-2.101
						h11.754c1.352,0,2.448,0.94,2.448,2.101l0,0c0,1.16,1.096,2.101,2.448,2.101h165.054v-9.798H8.865
						c-1.352,0-2.448-0.94-2.448-2.101v-27.37c0-1.16,1.096-2.101,2.448-2.101h197.877v-9.798H41.688
						c-1.352,0-2.448,0.94-2.448,2.101l0,0c0,1.16-1.096,2.101-2.448,2.101H25.039c-1.352,0-2.448-0.94-2.448-2.101l0,0
						c0-1.16-1.096-2.101-2.448-2.101H-5v1.089v8.709v31.571v7.697c0,1.16,1.096,2.101,2.448,2.101H6.417z"/>
				</g>
				
					<rect x="10.223" y="646.808" transform="matrix(-1 -1.224647e-16 1.224647e-16 -1 207.926 1297.2896)" style="fill:#EAD9C1;" width="187.481" height="3.674"/>
				
					<rect x="10.223" y="639.459" transform="matrix(-1 -1.224647e-16 1.224647e-16 -1 207.926 1282.5927)" style="fill:#EAD6B5;" width="187.481" height="3.674"/>
			</g>
			<g>
				<g>
					<g>
						<path style="fill:#29A8A8;" d="M200.95,509.503l0.05,47.532c0.001,1.384-0.766,2.508-1.715,2.511l-206.512,0.64
							c-0.95,0.003-1.721-1.118-1.722-2.503L-9,510.151c-0.001-1.384,0.766-2.508,1.715-2.511L199.227,507
							C200.177,506.997,200.949,508.118,200.95,509.503z"/>
						<polygon style="fill:#DB8F2C;" points="11.184,507.583 11.24,560.129 4.627,560.15 4.571,507.603 						"/>
						<polygon style="fill:#FCB040;" points="9.478,558.625 4.625,558.64 4.573,509.113 9.426,509.098 						"/>
						<polygon style="fill:#DB8F2C;" points="1.613,507.613 1.668,560.159 -0.072,560.164 -0.127,507.618 						"/>
						<polygon style="fill:#FCB040;" points="0.733,507.615 0.788,560.161 -0.952,560.167 -1.007,507.621 						"/>
						<polygon style="fill:#DB8F2C;" points="181.57,559.601 181.514,507.055 188.127,507.034 188.183,559.581 						"/>
						<polygon style="fill:#FCB040;" points="186.421,558.077 181.568,558.092 181.516,508.565 186.369,508.55 						"/>
						<polygon style="fill:#DB8F2C;" points="191.141,559.571 191.086,507.025 192.826,507.02 192.881,559.566 						"/>
						<polygon style="fill:#FCB040;" points="190.261,559.574 190.206,507.028 191.946,507.023 192.002,559.569 						"/>
					</g>
					<path style="fill:#29A8A8;stroke:#FFB248;stroke-linecap:round;stroke-miterlimit:10;" d="M166.594,517.198l0.033,31.076
						c-1.88,0.006-3.401,2.233-3.398,4.975L25.86,553.676c-0.003-2.745-1.531-4.966-3.413-4.96l-0.033-31.076
						c1.88-0.006,3.401-2.233,3.398-4.975l137.368-0.426C163.184,514.983,164.712,517.204,166.594,517.198z"/>
				</g>
				<path style="opacity:0.42;fill:#29A8A8;" d="M164.739,542.934L-8.085,543.47l0.012,11.544c0.002,2.025,0.961,3.663,2.141,3.659
					l203.917-0.632c1.18-0.004,2.135-1.648,2.133-3.673l-0.044-42.196c-0.002-2.024-0.96-3.662-2.14-3.659l-13.227,0.041l0,0
					C184.726,527.508,175.787,542.9,164.739,542.934z"/>
			</g>
		</g>
	</g>
</g>
<g>
	<path style="fill:#EFE8D8;" d="M547.885,770.456l-13.774-1.153c-0.001-0.008-0.003-0.014-0.005-0.022l-4.981-4.695l0.71-7.256
		l-6.254-5.473l0.705-7.125l-6.249-5.602l0.701-6.997l-6.242-5.732l0.694-6.867l-6.238-5.86l0.689-6.737l-6.233-5.994l0.685-6.603
		l-6.228-6.124l0.605-5.767l-0.673-0.763l-5.475-6.199l0.675-6.344l0.024-0.083c-0.236-0.336-0.361-0.508-0.361-0.508
		c-157.208-21.419-193.084,60.982-193.084,60.982s-35.876-82.401-193.085-60.982c0,0-0.124,0.172-0.36,0.508l0.024,0.083
		l0.674,6.344l-5.474,6.199l-0.674,0.763l0.604,5.767l-6.227,6.124l0.684,6.603l-6.233,5.994l0.69,6.737l-6.239,5.86l0.696,6.867
		l-6.244,5.732l0.7,6.997l-6.248,5.602l0.706,7.125l-6.254,5.473l0.711,7.256l-4.981,4.695c-0.002,0.008-0.003,0.014-0.005,0.022
		l-13.775,1.153c-4.515,0.378-7.867,4.344-7.49,8.858c0.378,4.514,4.343,7.871,8.859,7.489l216.839-18.153
		c5.719,12.391,18.045,20.636,32.103,20.904c14.056-0.268,26.383-8.513,32.102-20.904l216.839,18.153
		c4.515,0.382,8.479-2.975,8.858-7.489C555.753,774.8,552.398,770.834,547.885,770.456z"/>
	<path style="fill:#EFE8D8;" d="M414.734,742.414c-18.182-1.02-36.389-1.756-54.597-1.634c-9.098,0.084-18.205,0.361-27.258,1.255
		c-4.522,0.464-9.038,1.069-13.459,2.116c-0.061,0.014-0.121,0.032-0.181,0.046c0.846,1.388,1.561,2.864,2.131,4.411
		c0.548-0.055,1.098-0.108,1.648-0.157c4.591-0.394,9.195-0.577,13.798-0.692c9.208-0.212,18.418-0.128,27.622,0.052
		c18.41,0.382,36.804,1.188,55.188,2.138c18.384,0.96,36.757,2.09,55.124,3.327c18.369,1.242,36.719,2.58,55.085,4.053l-6.254-5.473
		c-18.066-2.047-36.212-3.834-54.351-5.434C451.084,744.836,432.918,743.454,414.734,742.414z"/>
	<g>
		<path style="fill:#EAD6B5;" d="M175.773,753.587c18.318-1.554,36.651-2.964,55.005-3.953c9.177-0.485,18.36-0.871,27.548-0.963
			c4.592-0.036,9.188-0.006,13.773,0.236c0.513,0.029,1.027,0.061,1.539,0.096c0.046-0.132,0.093-0.263,0.141-0.393
			c-0.549-0.055-1.099-0.108-1.648-0.157c-4.591-0.394-9.195-0.577-13.798-0.692c-9.207-0.212-18.416-0.128-27.621,0.052
			c-18.408,0.382-36.803,1.188-55.188,2.138c-18.383,0.96-36.757,2.09-55.123,3.327c-18.369,1.242-36.72,2.58-55.086,4.053
			l0.711,7.256c18.251-2.072,36.542-4.014,54.833-5.859C139.151,756.886,157.454,755.151,175.773,753.587z"/>
		<path style="fill:#EAD6B5;" d="M180.414,742.414c18.183-1.02,36.391-1.756,54.596-1.634c9.099,0.084,18.206,0.361,27.259,1.255
			c4.522,0.464,9.039,1.069,13.461,2.116c0.06,0.014,0.119,0.032,0.179,0.046c0.079-0.13,0.16-0.26,0.242-0.388
			c-0.104-0.03-0.206-0.061-0.311-0.09c-4.418-1.202-8.939-1.959-13.467-2.573c-9.066-1.196-18.195-1.773-27.32-2.156
			c-18.257-0.72-36.53-0.58-54.785-0.154c-18.256,0.443-36.5,1.232-54.732,2.229c-18.237,1.009-36.441,2.201-54.676,3.667
			l0.706,7.125c18.066-2.047,36.211-3.834,54.352-5.434C144.065,744.836,162.23,743.454,180.414,742.414z"/>
		<path style="fill:#EAD6B5;" d="M185.563,731.33c18.119-0.437,36.273-0.434,54.341,0.937c9.023,0.722,18.046,1.755,26.868,3.778
			c4.201,0.991,8.372,2.201,12.301,3.991c0.109-0.118,0.22-0.233,0.332-0.348c-3.952-1.975-8.17-3.349-12.421-4.496
			c-8.825-2.326-17.868-3.658-26.915-4.675c-18.117-1.965-36.34-2.556-54.538-2.701c-18.204-0.118-36.404,0.304-54.589,1.047
			c-18.192,0.762-36.34,1.807-54.532,3.27l0.7,6.997c17.97-2.029,36.058-3.66,54.134-5.002
			C149.329,732.804,167.439,731.799,185.563,731.33z"/>
		<path style="fill:#EAD6B5;" d="M191.103,720.394c9.058,0.088,18.112,0.372,27.148,0.957c9.032,0.592,18.052,1.468,26.987,2.889
			c8.918,1.45,17.814,3.362,26.239,6.643c3.942,1.562,7.787,3.45,11.212,5.962c0.128-0.094,0.257-0.187,0.387-0.277
			c-3.416-2.697-7.291-4.758-11.27-6.482c-8.414-3.589-17.329-5.8-26.27-7.545c-8.958-1.718-18.008-2.887-27.078-3.769
			c-9.07-0.875-18.166-1.45-27.267-1.827c-18.204-0.746-36.427-0.726-54.632-0.259c-18.216,0.493-36.381,1.383-54.601,2.849
			l0.696,6.867c17.941-2.017,36.042-3.482,54.121-4.545C154.866,720.818,172.988,720.226,191.103,720.394z"/>
		<path style="fill:#EAD6B5;" d="M196.951,709.659c9.067,0.452,18.123,1.165,27.127,2.283c9.001,1.127,17.963,2.643,26.747,4.885
			c8.758,2.266,17.428,5.2,25.253,9.779c3.742,2.212,7.268,4.842,10.222,8.049c0.136-0.068,0.273-0.135,0.409-0.2
			c-2.904-3.381-6.431-6.19-10.189-8.572c-7.789-4.887-16.473-8.125-25.25-10.688c-8.806-2.542-17.799-4.351-26.839-5.767
			c-9.044-1.408-18.144-2.408-27.261-3.147c-18.236-1.46-36.535-1.894-54.817-1.735c-18.296,0.193-36.536,0.917-54.846,2.391
			l0.69,6.737c17.97-2.009,36.145-3.299,54.281-4.051C160.628,708.9,178.813,708.771,196.951,709.659z"/>
		<path style="fill:#EAD6B5;" d="M148.329,697.443c18.254-0.364,36.54,0.027,54.713,1.743c9.083,0.867,18.136,2.07,27.088,3.804
			c8.947,1.738,17.81,3.984,26.358,7.138c8.518,3.167,16.803,7.232,23.864,13.009c3.515,2.883,6.686,6.217,9.223,10.011
			c0.028,0.043,0.054,0.086,0.081,0.128c0.134-0.044,0.266-0.089,0.401-0.132c-0.046-0.073-0.087-0.149-0.133-0.223
			c-2.446-3.909-5.558-7.386-9.036-10.419c-6.985-6.076-15.271-10.455-23.802-13.922c-8.562-3.457-17.459-5.999-26.446-8.029
			c-8.994-2.021-18.097-3.515-27.234-4.667c-18.282-2.281-36.7-3.234-55.106-3.421c-9.204-0.088-18.41,0.029-27.614,0.331
			c-9.211,0.314-18.38,0.772-27.63,1.547l0.684,6.603c8.995-1.026,18.127-1.761,27.225-2.346
			C130.076,698.022,139.2,697.633,148.329,697.443z"/>
		<path style="fill:#EAD6B5;" d="M154.302,685.332c18.394,0.039,36.814,1.033,55.01,3.694c9.092,1.344,18.125,3.117,26.985,5.54
			c8.851,2.431,17.55,5.501,25.751,9.627c8.177,4.12,15.899,9.339,22.145,16.094c3.116,3.37,5.838,7.12,8.004,11.184
			c0.177,0.334,0.346,0.671,0.516,1.009c0.126-0.023,0.251-0.052,0.379-0.076c-0.176-0.374-0.349-0.75-0.534-1.12
			c-2.061-4.159-4.702-8.033-7.758-11.54c-6.129-7.034-13.82-12.569-21.999-16.994c-8.201-4.431-16.932-7.802-25.824-10.529
			c-8.902-2.717-17.99-4.778-27.142-6.407c-18.32-3.232-36.888-4.778-55.454-5.364c-9.286-0.284-18.58-0.312-27.871-0.11
			c-9.054,0.212-18.063,0.601-27.157,1.348l-0.674,0.763l0.604,5.767c9.05-1.031,18.265-1.703,27.435-2.184
			C135.903,685.562,145.103,685.319,154.302,685.332z"/>
		<path style="fill:#EAD6B5;" d="M160.384,673.307c18.561,0.503,37.133,2.191,55.318,5.94c9.083,1.885,18.063,4.306,26.769,7.497
			c8.695,3.196,17.135,7.171,24.882,12.264c7.735,5.083,14.765,11.346,20.257,18.849c3.228,4.378,5.869,9.181,7.912,14.239
			c0.115-0.01,0.231-0.016,0.345-0.024c-1.912-5.173-4.447-10.127-7.607-14.676c-5.34-7.749-12.299-14.319-20.012-19.708
			c-7.726-5.401-16.186-9.684-24.922-13.178c-8.747-3.492-17.784-6.205-26.933-8.376c-18.318-4.324-37.06-6.564-55.816-7.608
			c-9.383-0.513-18.783-0.708-28.182-0.619c-9.413,0.106-18.772,0.435-28.242,1.239l0.674,6.344
			c9.123-1.036,18.439-1.636,27.701-2.003C141.806,673.134,151.1,673.063,160.384,673.307z"/>
		<path style="fill:#EAD6B5;" d="M419.625,749.95c-18.383-0.949-36.778-1.756-55.188-2.138c-9.203-0.18-18.414-0.264-27.622-0.052
			c-4.602,0.115-9.207,0.298-13.798,0.692c-0.55,0.049-1.1,0.102-1.648,0.157c0.048,0.13,0.095,0.262,0.141,0.393
			c0.513-0.035,1.025-0.067,1.538-0.096c4.585-0.242,9.181-0.272,13.774-0.236c9.186,0.092,18.371,0.478,27.548,0.963
			c18.354,0.989,36.685,2.399,55.005,3.953c18.319,1.564,36.622,3.299,54.915,5.14c18.289,1.845,36.581,3.787,54.833,5.859
			l0.71-7.256c-18.366-1.473-36.716-2.811-55.085-4.053C456.382,752.04,438.009,750.91,419.625,749.95z"/>
		<path style="fill:#EAD6B5;" d="M414.878,738.837c-18.253-0.426-36.526-0.566-54.784,0.154c-9.124,0.383-18.253,0.96-27.32,2.156
			c-4.527,0.614-9.048,1.371-13.467,2.573c-0.103,0.029-0.206,0.06-0.309,0.09c0.081,0.128,0.162,0.259,0.241,0.388
			c0.06-0.014,0.12-0.032,0.181-0.046c4.421-1.047,8.937-1.652,13.459-2.116c9.053-0.894,18.16-1.171,27.258-1.255
			c18.207-0.122,36.415,0.614,54.597,1.634c18.184,1.039,36.35,2.421,54.496,4.009c18.139,1.6,36.285,3.387,54.351,5.434
			l0.705-7.125c-18.232-1.466-36.439-2.657-54.675-3.667C451.379,740.07,433.135,739.28,414.878,738.837z"/>
		<path style="fill:#EAD6B5;" d="M409.619,727.816c-18.2,0.145-36.421,0.736-54.54,2.701c-9.047,1.017-18.089,2.349-26.915,4.675
			c-4.251,1.147-8.468,2.521-12.419,4.496c0.112,0.115,0.222,0.23,0.331,0.348c3.929-1.79,8.1-3.001,12.301-3.991
			c8.822-2.023,17.846-3.056,26.867-3.778c18.068-1.371,36.221-1.374,54.342-0.937c18.124,0.469,36.236,1.473,54.32,2.798
			c18.076,1.341,36.163,2.972,54.132,5.002l0.701-6.997c-18.19-1.463-36.34-2.508-54.532-3.27
			C446.022,728.121,427.821,727.699,409.619,727.816z"/>
		<path style="fill:#EAD6B5;" d="M403.957,716.945c-9.102,0.377-18.198,0.952-27.268,1.827c-9.068,0.882-18.118,2.051-27.078,3.769
			c-8.941,1.744-17.854,3.956-26.269,7.545c-3.98,1.724-7.855,3.785-11.271,6.482c0.13,0.09,0.258,0.183,0.386,0.277
			c3.426-2.512,7.271-4.4,11.215-5.962c8.423-3.281,17.32-5.193,26.238-6.643c8.934-1.421,17.954-2.297,26.988-2.889
			c9.034-0.585,18.09-0.868,27.146-0.957c18.117-0.168,36.237,0.425,54.327,1.463c18.079,1.063,36.18,2.528,54.123,4.545
			l0.694-6.867c-18.22-1.465-36.385-2.356-54.601-2.849C440.384,716.219,422.16,716.198,403.957,716.945z"/>
		<path style="fill:#EAD6B5;" d="M397.977,706.282c-9.116,0.738-18.217,1.738-27.259,3.147c-9.04,1.416-18.034,3.225-26.84,5.767
			c-8.777,2.563-17.459,5.8-25.25,10.688c-3.758,2.381-7.283,5.19-10.189,8.572c0.137,0.065,0.274,0.131,0.409,0.2
			c2.954-3.207,6.48-5.837,10.222-8.049c7.826-4.579,16.495-7.513,25.253-9.779c8.785-2.242,17.746-3.758,26.747-4.885
			c9.006-1.118,18.06-1.831,27.127-2.283c18.139-0.889,36.323-0.759,54.472-0.036c18.137,0.753,36.312,2.042,54.283,4.051
			l0.689-6.737c-18.31-1.473-36.549-2.198-54.846-2.391C434.512,704.387,416.214,704.821,397.977,706.282z"/>
		<path style="fill:#EAD6B5;" d="M446.848,692.463c-18.406,0.187-36.822,1.139-55.106,3.421c-9.137,1.152-18.239,2.646-27.233,4.667
			c-8.988,2.03-17.885,4.572-26.448,8.029c-8.528,3.467-16.816,7.846-23.801,13.922c-3.478,3.033-6.59,6.51-9.034,10.419
			c-0.048,0.074-0.088,0.15-0.135,0.223c0.135,0.043,0.268,0.088,0.401,0.132c0.028-0.043,0.053-0.086,0.082-0.128
			c2.535-3.795,5.707-7.128,9.222-10.011c7.06-5.777,15.348-9.843,23.865-13.009c8.546-3.153,17.411-5.4,26.357-7.138
			c8.953-1.734,18.006-2.937,27.088-3.804c18.173-1.716,36.461-2.107,54.714-1.743c9.128,0.19,18.252,0.579,27.362,1.155
			c9.098,0.585,18.229,1.32,27.225,2.346l0.685-6.603c-9.25-0.775-18.418-1.233-27.631-1.547
			C465.258,692.492,456.052,692.376,446.848,692.463z"/>
		<path style="fill:#EAD6B5;" d="M440.767,680.449c-18.566,0.586-37.134,2.133-55.453,5.364c-9.153,1.629-18.24,3.69-27.143,6.407
			c-8.893,2.727-17.623,6.098-25.825,10.529c-8.177,4.426-15.869,9.961-21.997,16.994c-3.058,3.508-5.699,7.381-7.761,11.54
			c-0.183,0.371-0.358,0.746-0.532,1.12c0.127,0.023,0.252,0.052,0.378,0.076c0.171-0.338,0.339-0.675,0.517-1.009
			c2.165-4.064,4.888-7.814,8.003-11.184c6.245-6.756,13.967-11.974,22.146-16.094c8.2-4.125,16.9-7.196,25.75-9.627
			c8.86-2.423,17.894-4.197,26.985-5.54c18.196-2.661,36.617-3.655,55.01-3.694c9.2-0.013,18.398,0.229,27.583,0.7
			c9.171,0.482,18.385,1.153,27.435,2.184l0.605-5.767l-0.673-0.763c-9.096-0.747-18.103-1.136-27.157-1.348
			C459.347,680.137,450.054,680.165,440.767,680.449z"/>
		<path style="fill:#EAD6B5;" d="M434.57,668.525c-18.757,1.044-37.497,3.284-55.815,7.608c-9.15,2.172-18.188,4.885-26.934,8.376
			c-8.735,3.495-17.197,7.778-24.923,13.178c-7.712,5.388-14.672,11.959-20.011,19.708c-3.159,4.549-5.696,9.503-7.608,14.676
			c0.115,0.008,0.231,0.014,0.345,0.024c2.044-5.058,4.685-9.861,7.912-14.239c5.493-7.503,12.523-13.766,20.26-18.849
			c7.746-5.093,16.185-9.068,24.882-12.264c8.706-3.191,17.686-5.612,26.769-7.497c18.184-3.749,36.756-5.438,55.316-5.94
			c9.284-0.244,18.578-0.173,27.856,0.179c9.262,0.366,18.578,0.966,27.701,2.003l0.675-6.344
			c-9.471-0.803-18.83-1.133-28.242-1.239C453.353,667.817,443.953,668.012,434.57,668.525z"/>
		<path style="fill:#FCB040;" d="M321.37,748.609c-0.57-1.547-1.285-3.022-2.131-4.411c-0.079-0.13-0.16-0.26-0.241-0.388
			c-0.855-1.349-1.835-2.612-2.923-3.773c-0.109-0.118-0.219-0.233-0.331-0.348c-1.011-1.039-2.111-1.991-3.286-2.845
			c-0.128-0.094-0.257-0.187-0.386-0.277c-1.022-0.714-2.099-1.354-3.224-1.912c-0.135-0.068-0.272-0.135-0.409-0.2
			c-0.951-0.453-1.934-0.846-2.947-1.179c-0.133-0.044-0.267-0.089-0.401-0.132c-0.867-0.267-1.753-0.488-2.656-0.664
			c-0.125-0.023-0.251-0.052-0.378-0.076c-0.798-0.142-1.609-0.245-2.432-0.309c-0.114-0.01-0.23-0.016-0.345-0.024
			c-0.564-0.037-1.131-0.061-1.705-0.061c-0.575,0-1.142,0.024-1.706,0.061c-0.115,0.008-0.23,0.014-0.345,0.024
			c-0.822,0.065-1.633,0.167-2.431,0.309c-0.127,0.023-0.252,0.052-0.379,0.076c-0.903,0.176-1.79,0.396-2.657,0.664
			c-0.135,0.043-0.267,0.088-0.401,0.132c-1.012,0.333-1.995,0.726-2.947,1.179c-0.136,0.065-0.273,0.131-0.409,0.2
			c-1.125,0.559-2.202,1.198-3.224,1.912c-0.13,0.09-0.258,0.183-0.387,0.277c-1.176,0.854-2.275,1.806-3.285,2.845
			c-0.112,0.115-0.223,0.23-0.332,0.348c-1.087,1.161-2.066,2.424-2.922,3.773c-0.082,0.128-0.163,0.259-0.242,0.388
			c-0.845,1.388-1.561,2.864-2.13,4.411c-0.048,0.13-0.095,0.262-0.141,0.393c-0.333,0.951-0.614,1.928-0.833,2.927
			c3.026,0.644,5.516,2.967,6.269,6.108c0.081,0.336,0.185,0.659,0.281,0.987c2.398,8.144,9.692,13.808,18.219,14.107
			c8.527-0.299,15.82-5.963,18.218-14.107c0.097-0.328,0.202-0.651,0.281-0.987c0.753-3.14,3.243-5.464,6.269-6.108
			c-0.219-0.999-0.5-1.976-0.832-2.927C321.465,748.871,321.418,748.74,321.37,748.609z"/>
		<path style="fill:#FA4D39;" d="M547.885,770.456l-13.774-1.153l-209.375-17.53c-0.819-0.068-1.622-0.008-2.392,0.157
			c-3.026,0.644-5.517,2.967-6.269,6.108c-0.079,0.336-0.184,0.659-0.281,0.987c-2.398,8.144-9.691,13.808-18.218,14.107
			c-8.527-0.299-15.821-5.963-18.219-14.107c-0.096-0.328-0.2-0.651-0.281-0.987c-0.753-3.14-3.243-5.464-6.269-6.108
			c-0.77-0.165-1.573-0.224-2.392-0.157l-209.374,17.53l-13.775,1.153c-4.515,0.378-7.867,4.344-7.49,8.858
			c0.378,4.514,4.343,7.871,8.859,7.489l216.839-18.153c5.719,12.391,18.045,20.636,32.103,20.904
			c14.056-0.268,26.383-8.513,32.102-20.904l216.839,18.153c4.515,0.382,8.479-2.975,8.858-7.489
			C555.753,774.8,552.398,770.834,547.885,770.456z"/>
	</g>
</g>
<g>
	<g>
		<text transform="matrix(1 0 0 1 455.0262 820.673)" style="fill:#FFFFFF; font-family:'Antonio-Regular'; font-size:13px;">WWW.YOURWEBSITE.COM</text>
	</g>
	<g>
		<g>
			<g>
				<polygon style="fill:#FFFFFF;" points="305.01,810.242 305.01,810.242 305.01,810.242 				"/>
				<path style="fill:#FFFFFF;" d="M304.36,811.933c-0.36,0.099-0.643,0.083-0.643,0.083l0.012-0.068
					c0.335-0.268,1.179-1.091,1.291-1.477c0.048-0.166-0.009-0.224-0.01-0.229l-1.078,0.458l-0.903,0.408l0,0
					c-0.622-0.661-1.566-1.081-2.62-1.081c-1.876,0-3.397,1.33-3.397,2.973c0,0.3,0.044,0.848,0.138,1.122c0,0.086,0.004-0.087,0,0
					c-1.208-0.033-2.756-0.529-4.135-1.23c-2.72-1.379-2.891-2.335-2.891-2.335c-0.426,0.454-0.647,1.958-0.214,3.137
					c0.278,0.755,1.231,1.433,1.231,1.433l0,0c0,0-0.426,0.008-0.873-0.144c-0.446-0.151-0.615-0.301-0.615-0.301
					c-0.266,0.648,0.267,1.806,1.187,2.636c0.537,0.484,1.516,0.788,1.516,0.788l-1.53,0.043c-0.086,1.49,3.12,2.375,3.12,2.375l0,0
					c-0.94,0.724-2.03,1.164-3.199,1.164c-0.606,0-1.191-0.091-1.747-0.257c1.545,1.274,3.529,2.154,5.687,2.04
					c5.725-0.302,8.957-5.23,9.111-10.07l0.007,0.01c0,0,0.269-0.134,0.842-0.708c0.574-0.575,0.93-1.247,0.93-1.247
					S304.719,811.833,304.36,811.933z"/>
				<path style="fill:#FFFFFF;" d="M305.01,810.242C305.014,810.334,305.01,810.251,305.01,810.242L305.01,810.242z"/>
			</g>
		</g>
		<g>
			<path style="fill:#FFFFFF;" d="M273.532,824.796v-7.335h2.459l0.368-2.858h-2.827v-1.825c0-0.828,0.23-1.391,1.415-1.391
				l1.511-0.001v-2.556c-0.262-0.035-1.158-0.113-2.203-0.113c-2.179,0-3.671,1.332-3.671,3.778v2.108h-2.464v2.858h2.464v7.335
				H273.532L273.532,824.796z"/>
		</g>
		<g>
			<g>
				<g>
					<path style="fill:#FFFFFF;" d="M328.326,824.334h-6.075c-2.696,0-4.89-2.197-4.89-4.897v-5.361c0-2.7,2.194-4.897,4.89-4.897
						h6.075c2.697,0,4.891,2.197,4.891,4.897v5.361C333.216,822.137,331.022,824.334,328.326,824.334z M322.251,810.267
						c-2.097,0-3.804,1.708-3.804,3.808v5.361c0,2.1,1.706,3.809,3.804,3.809h6.075c2.097,0,3.803-1.708,3.803-3.809v-5.361
						c0-2.1-1.706-3.808-3.803-3.808H322.251z"/>
				</g>
				<g>
					<path style="fill:#FFFFFF;" d="M325.288,821.115c-2.401,0-4.353-1.956-4.353-4.359c0-2.404,1.952-4.359,4.353-4.359
						c2.4,0,4.352,1.955,4.352,4.359C329.641,819.16,327.689,821.115,325.288,821.115z M325.288,813.485
						c-1.801,0-3.266,1.467-3.266,3.271c0,1.803,1.465,3.271,3.266,3.271c1.8,0,3.266-1.467,3.266-3.271
						C328.554,814.953,327.089,813.485,325.288,813.485z"/>
				</g>
				<g>
					<path style="fill:#FFFFFF;" d="M330.477,812.531c0,0.499-0.404,0.904-0.903,0.904c-0.499,0-0.904-0.405-0.904-0.904
						c0-0.5,0.405-0.905,0.904-0.905C330.073,811.627,330.477,812.032,330.477,812.531z"/>
				</g>
			</g>
		</g>
	</g>
	<g>
		<text transform="matrix(1 0 0 1 26.0262 820.673)" style="fill:#FFFFFF; font-family:'Antonio-Regular'; font-size:13px;">+123 4444 333</text>
	</g>
</g>
<text transform="matrix(1 0 0 1 219.8922 483.572)" style="fill:#00365B; font-family:'Montserrat-SemiBold'; font-size:34px;">APRIL 23</text>
<rect x="133.919" y="399.754" style="fill:none;" width="327.443" height="59.027"/>
<text transform="matrix(1 0 0 1 140.8453 408.6579)"><tspan x="0" y="0" style="fill:#3A3A3A; font-family:'Montserrat-Light'; font-size:12px;">Lorem ipsum dolor sit amet, consectetuer adipiscing </tspan><tspan x="4.302" y="14.4" style="fill:#3A3A3A; font-family:'Montserrat-Light'; font-size:12px;">elit, sed diam nonummy nibh euismod tincidunt ut </tspan><tspan x="25.476" y="28.8" style="fill:#3A3A3A; font-family:'Montserrat-Light'; font-size:12px;">laoreet dolore magna aliquam erat volutpat.</tspan></text>
<g>
	<g>
		
			<text transform="matrix(1 0 0 1 173.2026 260.1772)" style="fill:#00365B; font-family:'Montserrat-ExtraBold'; font-size:57.3506px;">WORLD</text>
		
			<text transform="matrix(1 0 0 1 83.5039 322.584)" style="fill:#00365B; font-family:'Montserrat-ExtraBold'; font-size:73.0823px;">BOOK DAY</text>
	</g>
	<text transform="matrix(1 0 0 1 176.4004 199.3911)" style="fill:#FA4D39; font-family:'Antonio-Regular'; font-size:62.9549px;">Make Your</text>
	<g>
		<text transform="matrix(1 0 0 1 170.7046 375.2339)" style="fill:#FA4D39; font-family:'Antonio-Regular'; font-size:51.2494px;">Extra Magical</text>
	</g>
</g>
<text transform="matrix(1 0 0 1 260.9297 95.7969)" style="fill:#002A4F; font-family:'Montserrat-SemiBold'; font-size:22.8938px;">LOGO</text>
</svg>
