<?xml version="1.0" encoding="utf-8"?>
<!-- Generator: Adobe Illustrator 27.5.0, SVG Export Plug-In . SVG Version: 6.00 Build 0)  -->
<svg version="1.1" xmlns="http://www.w3.org/2000/svg" xmlns:xlink="http://www.w3.org/1999/xlink" x="0px" y="0px"
	 viewBox="0 0 420.945 595.276" style="enable-background:new 0 0 420.945 595.276;" xml:space="preserve">
<g id="BACKGROUND">
	<rect style="fill:#213172;" width="420.945" height="595.276"/>
</g>
<g id="OBJECT">
	<g>
		<defs>
			<rect id="SVGID_1_" width="420.945" height="595.276"/>
		</defs>
		<clipPath id="SVGID_00000047037795276019981130000014721699148748473993_">
			<use xlink:href="#SVGID_1_"  style="overflow:visible;"/>
		</clipPath>
		<g style="clip-path:url(#SVGID_00000047037795276019981130000014721699148748473993_);">
			<path style="fill:#FFD3FF;" d="M355.557,358.757h-2.002v-17.161c-80.574-21.128-138.81-56.265-147.925-126.248
				c-8.747,67.156-62.698,100.385-138.238,123.558v19.851h-2c-28.735,0-52.029,23.292-52.029,52.028s23.294,52.029,52.029,52.029
				H68.2c7.584,71.881,68.382,127.898,142.273,127.898c73.892,0,134.689-56.016,142.273-127.898h2.811
				c28.735,0,52.028-23.293,52.028-52.029S384.291,358.757,355.557,358.757z"/>
			<g>
				<path style="fill:#213082;" d="M355.762,356.56v-14.963c0-1.003-0.675-1.879-1.646-2.134
					c-91.895-24.097-138.383-63.627-146.297-124.398c-0.144-1.1-1.08-1.922-2.189-1.922c-1.109,0-2.045,0.822-2.189,1.922
					c-7.587,58.261-48.47,94.667-136.695,121.735c-0.928,0.285-1.56,1.141-1.56,2.109v17.652
					c-29.811,0.112-54.03,24.389-54.03,54.225c0,29.906,24.33,54.236,54.236,54.236h0.87
					c8.703,73.049,70.334,127.897,144.212,127.897c73.878,0,135.506-54.847,144.212-127.897h0.87
					c29.906,0,54.236-24.33,54.236-54.236C409.791,380.949,385.572,356.673,355.762,356.56z M65.391,460.608
					c-27.472,0-49.823-22.35-49.823-49.823c0-27.403,22.24-49.711,49.618-49.823v86.67c0,2.346,0.073,4.723,0.191,7.111
					c0.039,0.796,0.108,1.592,0.16,2.391c0.076,1.159,0.13,2.314,0.233,3.475H65.391z M210.473,588.506
					c-72.283,0-132.504-54.135-140.078-125.921c-0.529-5.019-0.797-10.049-0.797-14.953v-88.876v-18.22
					c82.724-25.643,124.302-59.748,136.043-112.473c12.534,55.434,59.249,92.254,145.709,115.234v15.459v88.876
					c0,4.895-0.267,9.925-0.799,14.95C342.978,534.37,282.756,588.506,210.473,588.506z M355.555,460.608h-0.379
					c0.105-1.169,0.159-2.331,0.235-3.496c0.052-0.789,0.12-1.578,0.159-2.365c0.119-2.391,0.192-4.769,0.192-7.115v-86.67
					c27.378,0.112,49.616,22.419,49.616,49.823C405.378,438.258,383.028,460.608,355.555,460.608z"/>
				<path style="fill:#213082;" d="M145.723,404.152c-7.3,0-13.238,5.938-13.238,13.235c0,7.297,5.938,13.235,13.238,13.235
					c7.297,0,13.235-5.938,13.235-13.235C158.958,410.09,153.02,404.152,145.723,404.152z"/>
				<path style="fill:#213082;" d="M277.57,404.152c-7.3,0-13.238,5.938-13.238,13.235c0,7.297,5.938,13.235,13.238,13.235
					c7.297,0,13.235-5.938,13.235-13.235C290.805,410.09,284.867,404.152,277.57,404.152z"/>
				<path style="fill:#213082;" d="M379.428,401.296l-11.419,8.185c-1.008,0.724-1.612,1.856-1.652,3.097
					c-0.043,1.241,0.483,2.407,1.434,3.194l10.063,8.357c0.414,0.342,0.914,0.509,1.411,0.509c0.632,0,1.261-0.27,1.698-0.796
					c0.778-0.94,0.649-2.33-0.288-3.109l-9.632-7.998l10.954-7.854c0.991-0.71,1.218-2.089,0.508-3.077
					C381.796,400.808,380.414,400.584,379.428,401.296z"/>
				<path style="fill:#213082;" d="M51.295,409.478l-11.412-8.182c-0.988-0.706-2.368-0.485-3.078,0.509
					c-0.711,0.988-0.483,2.367,0.507,3.077l10.955,7.854l-9.632,7.998c-0.938,0.779-1.067,2.169-0.289,3.109
					c0.437,0.526,1.066,0.796,1.699,0.796c0.497,0,0.995-0.167,1.408-0.509l10.062-8.354c0.955-0.793,1.48-1.956,1.438-3.198
					C52.91,411.334,52.308,410.205,51.295,409.478z"/>
				<path style="fill:#213082;" d="M171.732,322.072c-4.596-4.012-15.213-7.13-27.957-4.339
					c-12.748,2.856-21.213,10.202-23.828,15.813c-2.824,5.796-0.591,9.503,3.025,10.168c3.755,0.741,8.182-0.691,12.513-1.827
					c4.339-1.236,8.733-2.369,12.587-3.221c3.846-0.857,8.302-1.681,12.757-2.394c4.403-0.799,8.997-1.363,12.138-3.633
					C176.007,330.497,176.584,326.17,171.732,322.072z"/>
				<path style="fill:#213082;" d="M273.542,318.333c-12.967-1.461-23.202,2.736-27.362,7.201c-4.402,4.576-3.383,8.82-0.139,10.637
					c3.357,1.934,7.986,2.021,12.449,2.361c4.505,0.249,9.022,0.611,12.935,1.064c3.923,0.451,8.41,1.123,12.852,1.906
					c4.427,0.682,8.977,1.65,12.634,0.527c3.53-1.036,5.369-4.956,1.961-10.428C295.693,326.293,286.517,319.859,273.542,318.333z"
					/>
				<path style="fill:#213082;" d="M221.947,405.413c-4.651,0-8.438-3.786-8.438-8.44v-51.027c0-1.218-0.988-2.206-2.206-2.206
					c-1.218,0-2.206,0.988-2.206,2.206v51.027c0,7.087,5.766,12.853,13.063,12.853c5.944,0,10.782,4.835,10.782,10.991
					c0,13.813-11.235,25.048-25.045,25.048h-13.129c-1.218,0-2.206,0.988-2.206,2.206c0,1.218,0.989,2.206,2.206,2.206h13.129
					c16.243,0,29.458-13.215,29.458-29.673C237.354,412.227,230.537,405.413,221.947,405.413z"/>
			</g>
			<path style="fill:#F96400;" d="M293.555,357.842c-27.298,0-49.849,20.52-53.153,46.936c-26.536-19.806-50.736-5.012-57.187-0.299
				c-3.438-26.271-25.914-46.636-53.107-46.636c-29.565,0-53.618,24.051-53.618,53.615c0,29.564,24.053,53.615,53.618,53.615
				c29.564,0,53.615-24.051,53.615-53.615c0-0.464-0.058-0.913-0.07-1.374c0.42-0.082,0.828-0.232,1.173-0.536
				c1.04-0.905,25.694-21.951,53.736,0.086c0.431,0.34,0.938,0.499,1.445,0.518c-0.011,0.438-0.066,0.865-0.066,1.306
				c0,29.564,24.051,53.615,53.615,53.615s53.615-24.051,53.615-53.615C347.17,381.893,323.119,357.842,293.555,357.842z
				 M130.107,460.074c-26.808,0-48.617-21.81-48.617-48.617c0-26.806,21.809-48.616,48.617-48.616
				c26.806,0,48.616,21.81,48.616,48.616C178.723,438.264,156.913,460.074,130.107,460.074z M293.555,460.074
				c-26.806,0-48.617-21.81-48.617-48.617c0-26.806,21.811-48.616,48.617-48.616c26.806,0,48.616,21.81,48.616,48.616
				C342.171,438.264,320.361,460.074,293.555,460.074z"/>
			<path style="fill:#FFFAF7;" d="M87.81,433.32l-119.98,7.72l7.98,1.7l7.19,1.52l12.97,2.76l12.94,2.75l172.74,36.72
				c2.46,0.98,4.96,1.82,7.49,2.54c1.67,0.47,3.35,0.89,5.03,1.25c1.36,0.29,2.73,0.54,4.09,0.75c0.72,0.12,1.43,0.23,2.15,0.31
				c0.96,0.13,1.93,0.24,2.89,0.33C178.54,453.07,134.49,430.32,87.81,433.32z"/>
			<g>
				<polygon style="fill:#2DAE85;" points="180.71,486.488 180.71,808.107 -44.377,766.932 -45.292,438.452 				"/>
				<polygon style="fill:#2DAE85;" points="240.234,485.699 240.234,807.318 465.322,766.143 466.237,437.662 				"/>
				<path style="fill:#F96400;" d="M180.71,486.489L180.71,486.489v321.618h0c18.877,5.094,38.767,5.094,57.644,0l0,0V486.488l0,0
					C219.842,493.835,199.223,493.835,180.71,486.489z"/>
				<path style="fill:#FFFAF7;" d="M330.809,433.32c-46.73-3.01-90.82,19.8-115.56,58.47c0.95-0.07,1.9-0.16,2.84-0.26
					c0.67-0.07,1.34-0.16,2.01-0.26c1.33-0.17,2.65-0.38,3.96-0.64c1.58-0.29,3.15-0.64,4.71-1.04c3.24-0.82,6.45-1.85,9.59-3.1
					l173.08-36.79l12.94-2.75h0.01l12.96-2.76h0.02l0.07-0.02l14.42-3.06L330.809,433.32z"/>
			</g>
			<path style="fill:#213082;" d="M466.687,436.738c-0.517-0.419-1.198-0.58-1.85-0.445l-12.205,2.594L331.89,431.12
				c-46.786-3.05-91.614,20.001-116.906,58.544c-3.491,0.209-6.99,0.174-10.478-0.103C179.21,451.094,134.427,428.1,87.67,431.12
				l-119.679,7.699l-11.884-2.526c-0.656-0.138-1.332,0.026-1.849,0.445c-0.519,0.419-0.817,1.051-0.816,1.718l0.915,328.482
				c0.003,1.063,0.764,1.974,1.81,2.163l225.02,41.164c9.581,2.577,19.433,3.865,29.287,3.865c9.853,0,19.706-1.287,29.287-3.865
				l225.019-41.164c1.045-0.19,1.807-1.1,1.81-2.163l0.914-328.482C467.506,437.79,467.204,437.157,466.687,436.738z M323.69,435.27
				c2.63,0,5.27,0.08,7.92,0.25l105.058,6.76l-11.586,2.463l-94.002,3.937c-34.463,0.501-80.46,16.795-107.047,39.894
				c-1.112,0.203-2.226,0.384-3.343,0.537C243.939,455.807,282.608,435.27,323.69,435.27z M238.836,484.332
				c-0.112,0.024-0.218,0.059-0.322,0.098c-0.01,0.004-0.021,0.004-0.031,0.008c-1.31,0.52-2.632,0.991-3.96,1.436
				c25.098-18.404,63.337-32.296,96.677-32.784l67.966-2.838L238.836,484.332z M87.96,435.52
				c43.873-2.795,85.979,18.07,110.746,53.353c-1.205-0.19-2.407-0.411-3.605-0.66C168.453,465.31,122.781,449.18,88.54,448.68
				l-92.353-3.868l-12.22-2.597L87.96,435.52z M182.463,484.438c-0.01-0.004-0.02-0.004-0.029-0.007
				c-0.104-0.04-0.212-0.075-0.324-0.099L22.102,450.321l66.317,2.769c32.677,0.474,70.085,13.874,95.189,31.772
				C183.228,484.717,182.843,484.589,182.463,484.438z M-42.138,441.176l221.582,47.1v317.186l-220.68-40.371L-42.138,441.176z
				 M183.856,806.404V489.669c17.283,6.079,35.951,6.079,53.233,0v316.735C219.64,810.823,201.306,810.823,183.856,806.404z
				 M462.182,765.091l-220.68,40.371V488.276l221.579-47.1L462.182,765.091z"/>
		</g>
	</g>
	<g>
		<text transform="matrix(1 0 0 1 351.149 549.5479)"><tspan x="0" y="0" style="fill:#FFFFFF; font-family:'PalanquinDark-SemiBold'; font-size:14.6093px;">BOOK</tspan><tspan x="0" y="14.574" style="fill:#FFFFFF; font-family:'PalanquinDark-SemiBold'; font-size:14.6093px;">LOGO</tspan></text>
		<path style="fill:#FFFFFF;" d="M308.54,554.206c-0.455,0-0.824-0.369-0.824-0.824c0-0.455,0.369-0.824,0.824-0.824h18.443
			c0.455,0,0.824,0.369,0.824,0.824c0,0.455-0.369,0.824-0.824,0.824H308.54z M345.62,552.126c0,1.552-0.604,3.01-1.701,4.108
			l-8.522,8.522c-0.179,0.179-0.416,0.275-0.659,0.279c-0.289,0.186-0.698,0.315-1.281,0.315H306.71
			c-0.455,0-0.824-0.369-0.824-0.824c0-0.455,0.369-0.824,0.824-0.824h26.745c0.153,0,0.251-0.014,0.31-0.027l0.001-0.284v-2.092
			c0-0.964-0.384-1.861-1.082-2.526c-0.603-0.574-1.366-0.906-2.185-0.955h-1.785l-20.132,0.054c-0.001,0-0.002,0-0.002,0
			c-0.101,0-0.197-0.021-0.287-0.054h-2.162c-0.455,0-0.824-0.369-0.824-0.824c0-0.455,0.369-0.824,0.824-0.824h22.924l1.014-0.003
			c0.175-0.008,0.349-0.007,0.522,0.003h0.547c0.153,0,0.251-0.014,0.31-0.027l0.001-0.284v-2.092c0-0.964-0.384-1.861-1.082-2.526
			c-0.698-0.665-1.609-1.006-2.575-0.959l-21.528,0.058c-0.001,0-0.002,0-0.003,0c-0.438,0-0.829-0.262-0.996-0.667
			c-0.167-0.406-0.073-0.868,0.239-1.176c0.012-0.012,0.025-0.024,0.039-0.036l9.724-8.446c0.789-0.78,1.884-1.229,3.045-1.229
			h19.181c3.204,0,5.81,2.606,5.81,5.809c0,0.884-0.203,1.736-0.575,2.51C344.503,548.134,345.62,550.033,345.62,552.126z
			 M331.502,550.047c1.027,0.979,1.593,2.3,1.593,3.719v1.107l7.338-7.338c0.786-0.786,1.219-1.831,1.219-2.942
			c0-2.294-1.867-4.161-4.161-4.161h-19.181c-0.725,0-1.41,0.281-1.926,0.79l-8.591,7.464l19.955-0.053
			c0.082-0.004,0.164-0.006,0.246-0.006C329.287,548.628,330.535,549.127,331.502,550.047z M343.971,552.126
			c0-1.536-0.844-2.921-2.174-3.645c-0.067,0.073-0.129,0.15-0.2,0.22l-8.386,8.387c0.212,0.149,0.418,0.309,0.61,0.492
			c1.027,0.979,1.593,2.3,1.593,3.719v1.107l7.338-7.338C343.538,554.282,343.971,553.238,343.971,552.126z M329.304,561.739
			c0.455,0,0.824-0.369,0.824-0.824s-0.369-0.824-0.824-0.824H309.12c-0.455,0-0.824,0.369-0.824,0.824s0.369,0.824,0.824,0.824
			H329.304z"/>
	</g>
	<rect x="32.593" y="194.162" style="fill:none;" width="376.194" height="23.809"/>
	<text transform="matrix(1 0 0 1 32.5928 209.4618)" style="fill:#FFFFFF; font-family:'PalanquinDark-Regular'; font-size:18px;">How to teach in the digital era</text>
	<rect x="32.593" y="33.333" style="fill:none;" width="376.194" height="26.339"/>
	<text transform="matrix(1 0 0 1 32.5926 52.8827)" style="fill:#FFFFFF; font-family:'PalanquinDark-Regular'; font-size:23px;">Marissa Pullman</text>
	<g>
		<rect x="36.593" y="73.582" style="fill:none;" width="374.999" height="103.388"/>
		<text transform="matrix(1.0539 0 0 1 36.5928 120.3319)"><tspan x="0" y="0" style="fill:#F96400; font-family:'PalanquinDark-SemiBold'; font-size:55px;">New </tspan><tspan x="0" y="55" style="fill:#F96400; font-family:'PalanquinDark-SemiBold'; font-size:55px;">educators</tspan></text>
	</g>
	<rect x="32.593" y="71.582" style="fill:none;" width="374.999" height="103.388"/>
	<text transform="matrix(1.0539 0 0 1 32.5928 118.3319)"><tspan x="0" y="0" style="fill:#FFFFFF; font-family:'PalanquinDark-SemiBold'; font-size:55px;">New </tspan><tspan x="0" y="55" style="fill:#FFFFFF; font-family:'PalanquinDark-SemiBold'; font-size:55px;">educators</tspan></text>
</g>
</svg>
