<?xml version="1.0" encoding="utf-8"?>
<!-- Generator: Adobe Illustrator 27.5.0, SVG Export Plug-In . SVG Version: 6.00 Build 0)  -->
<svg version="1.1" id="PRINT" xmlns="http://www.w3.org/2000/svg" xmlns:xlink="http://www.w3.org/1999/xlink" x="0px" y="0px"
	 viewBox="0 0 595.28 841.89" style="enable-background:new 0 0 595.28 841.89;" xml:space="preserve">
<g>
	<rect x="-8.505" y="-8.503" style="fill:#FFFFFF;" width="612.289" height="858.896"/>
	<g>
		<g>
			
				<rect x="206.209" y="98.857" transform="matrix(-1.836970e-16 1 -1 -1.836970e-16 412.4257 -107.3524)" style="fill:#082742;" width="107.36" height="107.36"/>
			<polygon style="fill:#3079BE;" points="259.889,98.857 313.569,98.857 313.569,125.767 313.569,152.678 259.889,152.678 			"/>
			<rect x="268.364" y="114.113" style="fill:#082742;" width="29.948" height="30.089"/>
			<polygon style="fill:#0F4D81;" points="206.209,152.395 259.889,152.395 259.889,179.306 259.889,206.217 206.209,206.217 			"/>
			<rect x="221.465" y="160.871" style="fill:#082742;" width="29.948" height="30.089"/>
			<path style="fill:#2BAAE2;" d="M240.211,172.215c-20.963-20.963-18.279-57.635-18.279-57.635s36.672-2.684,57.635,18.279
				c20.963,20.963,18.279,57.635,18.279,57.635S261.174,193.178,240.211,172.215z"/>
			<path style="fill:#0F4D81;" d="M225.219,117.871c8.984-0.066,35.752,1.186,51.952,17.386
				c16.236,16.236,17.464,42.969,17.388,51.947c-8.983,0.065-35.751-1.187-51.95-17.385
				C226.373,153.582,225.143,126.848,225.219,117.871z"/>
			<path style="fill:#2BAAE2;" d="M247.603,164.823c-6.785-6.785-6.785-17.787,0-24.572c6.786-6.786,17.787-6.786,24.573,0
				c6.785,6.786,6.785,17.787,0,24.572C265.39,171.608,254.388,171.608,247.603,164.823z"/>
			<path style="fill:#082742;" d="M255.794,156.632c-2.262-2.262-2.262-5.929,0-8.191c2.262-2.262,5.929-2.262,8.191,0
				c2.262,2.262,2.262,5.929,0,8.191C261.723,158.894,258.056,158.894,255.794,156.632z"/>
		</g>
		<g>
			
				<rect x="206.209" y="313.577" transform="matrix(-1.836970e-16 1 -1 -1.836970e-16 627.1456 107.3675)" style="fill:#082742;" width="107.36" height="107.36"/>
			<g>
				<path style="fill:#3079BE;" d="M219.175,380.223c14.78-14.78,40.636-12.888,40.636-12.888s1.892,25.855-12.888,40.635
					c-14.78,14.78-40.635,12.888-40.635,12.888S204.395,395.002,219.175,380.223z"/>
				<path style="fill:#0F4D81;" d="M252.979,374.167c-0.468,7.708-2.553,20.711-10.85,29.01
					c-8.338,8.337-21.633,10.381-29.011,10.849c0.47-7.708,2.554-20.711,10.851-29.009
					C232.308,376.68,245.603,374.635,252.979,374.167z"/>
			</g>
			<g>
				<path style="fill:#3079BE;" d="M219.175,354.291c14.78,14.78,40.636,12.888,40.636,12.888s1.892-25.856-12.888-40.635
					c-14.78-14.78-40.635-12.888-40.635-12.888S204.395,339.511,219.175,354.291z"/>
				<path style="fill:#0F4D81;" d="M252.979,360.346c-0.468-7.707-2.553-20.711-10.85-29.01
					c-8.338-8.337-21.633-10.381-29.011-10.85c0.47,7.708,2.554,20.711,10.851,29.01
					C232.308,357.833,245.603,359.878,252.979,360.346z"/>
			</g>
			<g>
				<path style="fill:#3079BE;" d="M291.187,331.767c-2.245,0-4.064-1.82-4.064-4.065c0-2.245,1.82-4.064,4.064-4.064
					s4.064,1.819,4.064,4.064C295.251,329.947,293.431,331.767,291.187,331.767z"/>
				<path style="fill:#3079BE;" d="M280.277,331.767c-2.245,0-4.065-1.82-4.065-4.065c0-2.245,1.82-4.064,4.065-4.064
					c2.245,0,4.064,1.819,4.064,4.064C284.342,329.947,282.522,331.767,280.277,331.767z"/>
				<path style="fill:#3079BE;" d="M269.367,331.767c-2.245,0-4.064-1.82-4.064-4.065c0-2.245,1.82-4.064,4.064-4.064
					c2.245,0,4.064,1.819,4.064,4.064C273.432,329.947,271.612,331.767,269.367,331.767z"/>
			</g>
			<g>
				<g>
					<g>
						<path style="fill:#0F4D81;" d="M291.187,410.766c-2.245,0-4.064-1.82-4.064-4.064c0-2.245,1.82-4.064,4.064-4.064
							s4.064,1.819,4.064,4.064C295.251,408.946,293.431,410.766,291.187,410.766z"/>
					</g>
					<g>
						<path style="fill:#0F4D81;" d="M280.277,410.766c-2.245,0-4.065-1.82-4.065-4.064c0-2.245,1.82-4.064,4.065-4.064
							c2.245,0,4.064,1.819,4.064,4.064C284.342,408.946,282.522,410.766,280.277,410.766z"/>
					</g>
					<g>
						<path style="fill:#0F4D81;" d="M269.367,410.766c-2.245,0-4.064-1.82-4.064-4.064c0-2.245,1.82-4.064,4.064-4.064
							c2.245,0,4.064,1.819,4.064,4.064C273.432,408.946,271.612,410.766,269.367,410.766z"/>
					</g>
				</g>
			</g>
			<g>
				
					<ellipse transform="matrix(0.7071 -0.7071 0.7071 0.7071 -175.7292 310.265)" style="fill:#2BAAE2;" cx="286.658" cy="367.256" rx="26.911" ry="26.911"/>
				<path style="fill:#082742;" d="M286.658,378.159c-6.021,0-10.903-4.881-10.903-10.903c0-6.021,4.882-10.902,10.903-10.902
					c6.021,0,10.903,4.881,10.903,10.902C297.561,373.278,292.68,378.159,286.658,378.159z"/>
			</g>
		</g>
		<g>
			
				<rect x="206.209" y="635.697" transform="matrix(-1.836970e-16 1 -1 -1.836970e-16 949.2665 429.4883)" style="fill:#082742;" width="107.36" height="107.36"/>
			<polygon style="fill:#2BAAE2;" points="259.889,689.236 313.569,689.236 313.569,716.147 313.569,743.057 259.889,743.057 			"/>
			<polygon style="fill:#3079BE;" points="206.209,635.698 259.889,635.698 259.889,662.608 259.889,689.519 206.209,689.519 			"/>
			<rect x="218.075" y="647.563" style="fill:#082742;" width="29.948" height="30.089"/>
			<rect x="271.755" y="701.102" style="fill:#082742;" width="29.948" height="30.089"/>
			<path style="fill:#3079BE;" d="M259.889,717.206c-29.647,0-53.68-27.829-53.68-27.829s24.033-27.829,53.68-27.829
				c29.647,0,53.68,27.829,53.68,27.829S289.536,717.206,259.889,717.206z"/>
			<path style="fill:#0F4D81;" d="M210.861,689.38c6.306-6.399,26.119-24.442,49.029-24.442c22.961,0,42.733,18.035,49.027,24.437
				c-6.306,6.398-26.119,24.441-49.027,24.441C236.929,713.816,217.155,695.782,210.861,689.38z"/>
			
				<ellipse transform="matrix(0.1593 -0.9872 0.9872 0.1593 -462.0883 836.1149)" style="fill:#3079BE;" cx="259.889" cy="689.377" rx="17.375" ry="17.375"/>
			<path style="fill:#082742;" d="M259.889,695.169c-3.199,0-5.792-2.593-5.792-5.792c0-3.198,2.593-5.792,5.792-5.792
				c3.199,0,5.792,2.593,5.792,5.792C265.681,692.576,263.088,695.169,259.889,695.169z"/>
			<g>
				<path style="fill:#3079BE;" d="M243.959,731.191c-2.245,0-4.065-1.82-4.065-4.065c0-2.245,1.82-4.064,4.065-4.064
					c2.245,0,4.064,1.82,4.064,4.064C248.023,729.372,246.204,731.191,243.959,731.191z"/>
				<path style="fill:#3079BE;" d="M233.049,731.191c-2.245,0-4.064-1.82-4.064-4.065c0-2.245,1.82-4.064,4.064-4.064
					c2.245,0,4.064,1.82,4.064,4.064C237.114,729.372,235.294,731.191,233.049,731.191z"/>
				<path style="fill:#3079BE;" d="M222.14,731.191c-2.245,0-4.065-1.82-4.065-4.065c0-2.245,1.82-4.064,4.065-4.064
					c2.245,0,4.064,1.82,4.064,4.064C226.204,729.372,224.384,731.191,222.14,731.191z"/>
			</g>
			<g>
				<g>
					<g>
						<path style="fill:#0F4D81;" d="M297.639,655.692c-2.245,0-4.064-1.82-4.064-4.064c0-2.245,1.82-4.065,4.064-4.065
							c2.245,0,4.064,1.82,4.064,4.065C301.703,653.872,299.883,655.692,297.639,655.692z"/>
					</g>
					<g>
						<path style="fill:#0F4D81;" d="M286.729,655.692c-2.245,0-4.065-1.82-4.065-4.064c0-2.245,1.82-4.065,4.065-4.065
							c2.245,0,4.064,1.82,4.064,4.065C290.793,653.872,288.974,655.692,286.729,655.692z"/>
					</g>
					<g>
						<path style="fill:#0F4D81;" d="M275.819,655.692c-2.245,0-4.064-1.82-4.064-4.064c0-2.245,1.82-4.065,4.064-4.065
							c2.245,0,4.064,1.82,4.064,4.065C279.884,653.872,278.064,655.692,275.819,655.692z"/>
					</g>
				</g>
			</g>
		</g>
		<g>
			
				<rect x="206.209" y="-8.503" transform="matrix(-1.836970e-16 1 -1 -1.836970e-16 305.0658 -214.7123)" style="fill:#082742;" width="107.36" height="107.36"/>
			<g>
				<path style="fill:#2BAAE2;" d="M219.175,58.143c14.78-14.78,40.636-12.888,40.636-12.888s1.892,25.856-12.888,40.636
					c-14.78,14.78-40.635,12.888-40.635,12.888S204.395,72.923,219.175,58.143z"/>
				<path style="fill:#0F4D81;" d="M252.979,52.087c-0.468,7.708-2.553,20.711-10.85,29.01c-8.338,8.337-21.633,10.381-29.011,10.85
					c0.47-7.708,2.554-20.711,10.851-29.01C232.308,54.6,245.603,52.556,252.979,52.087z"/>
			</g>
			<g>
				<path style="fill:#3079BE;" d="M272.855,4.463c14.78-14.78,40.635-12.888,40.635-12.888s1.892,25.855-12.888,40.635
					c-14.78,14.78-40.635,12.888-40.635,12.888S258.075,19.243,272.855,4.463z"/>
				<path style="fill:#0F4D81;" d="M306.659-1.592c-0.468,7.708-2.552,20.711-10.85,29.009c-8.338,8.337-21.633,10.381-29.011,10.85
					c0.47-7.708,2.554-20.711,10.851-29.009C285.987,0.921,299.282-1.124,306.659-1.592z"/>
			</g>
			
				<ellipse transform="matrix(0.8802 -0.4746 0.4746 0.8802 0.1984 144.6781)" style="fill:#3079BE;" cx="286.658" cy="71.946" rx="26.911" ry="26.911"/>
			<g>
				
					<ellipse transform="matrix(0.119 -0.9929 0.9929 0.119 187.1044 247.6806)" style="fill:#0F4D81;" cx="233.12" cy="18.407" rx="26.911" ry="26.911"/>
				
					<ellipse transform="matrix(0.2321 -0.9727 0.9727 0.2321 161.1111 240.8897)" style="fill:#082742;" cx="233.12" cy="18.407" rx="10.903" ry="10.903"/>
			</g>
			<path style="fill:#082742;" d="M286.658,82.283c-5.709,0-10.337-4.628-10.337-10.337c0-5.709,4.628-10.337,10.337-10.337
				c5.709,0,10.337,4.628,10.337,10.337C296.995,77.655,292.367,82.283,286.658,82.283z"/>
		</g>
		<g>
			
				<rect x="206.209" y="206.217" transform="matrix(-1.836970e-16 1 -1 -1.836970e-16 519.7856 0.0076)" style="fill:#082742;" width="107.36" height="107.36"/>
			<path style="fill:#2BAAE2;" d="M206.209,259.081L206.209,259.081c0-29.197,23.668-52.865,52.864-52.865h54.496l0,0
				c0,29.196-23.668,52.865-52.865,52.865H206.209z"/>
			<path style="fill:#0F4D81;" d="M222.182,245.52c5.534-15.011,19.983-25.742,36.891-25.742h38.522
				c-5.534,15.01-19.983,25.742-36.891,25.742H222.182z"/>
			<g>
				<path style="fill:#3079BE;" d="M243.958,279.648c-2.245,0-4.064-1.82-4.064-4.064c0-2.245,1.819-4.064,4.064-4.064
					c2.245,0,4.064,1.82,4.064,4.064C248.023,277.828,246.203,279.648,243.958,279.648z"/>
				<path style="fill:#3079BE;" d="M233.049,279.648c-2.245,0-4.064-1.82-4.064-4.064c0-2.245,1.82-4.064,4.064-4.064
					c2.245,0,4.065,1.82,4.065,4.064C237.113,277.828,235.293,279.648,233.049,279.648z"/>
				<path style="fill:#3079BE;" d="M222.139,279.648c-2.245,0-4.064-1.82-4.064-4.064c0-2.245,1.82-4.064,4.064-4.064
					c2.245,0,4.064,1.82,4.064,4.064C226.203,277.828,224.384,279.648,222.139,279.648z"/>
			</g>
			<g>
				<g>
					<g>
						<path style="fill:#0F4D81;" d="M243.958,301.813c-2.245,0-4.064-1.82-4.064-4.065c0-2.245,1.819-4.065,4.064-4.065
							c2.245,0,4.064,1.82,4.064,4.065C248.023,299.993,246.203,301.813,243.958,301.813z"/>
					</g>
					<g>
						<path style="fill:#0F4D81;" d="M233.049,301.813c-2.245,0-4.064-1.82-4.064-4.065c0-2.245,1.82-4.065,4.064-4.065
							c2.245,0,4.065,1.82,4.065,4.065C237.113,299.993,235.293,301.813,233.049,301.813z"/>
					</g>
					<g>
						<path style="fill:#0F4D81;" d="M222.139,301.813c-2.245,0-4.064-1.82-4.064-4.065c0-2.245,1.82-4.065,4.064-4.065
							c2.245,0,4.064,1.82,4.064,4.065C226.203,299.993,224.384,301.813,222.139,301.813z"/>
					</g>
				</g>
			</g>
			
				<ellipse transform="matrix(0.8088 -0.588 0.588 0.8088 -113.7697 223.3598)" style="fill:#3079BE;" cx="286.658" cy="286.666" rx="26.911" ry="26.911"/>
			<g>
				
					<ellipse transform="matrix(0.8088 -0.588 0.588 0.8088 -113.7697 223.3598)" style="fill:#3079BE;" cx="286.658" cy="286.666" rx="26.911" ry="26.911"/>
				<path style="fill:#082742;" d="M286.658,297.003c-5.709,0-10.337-4.628-10.337-10.337s4.628-10.337,10.337-10.337
					c5.709,0,10.337,4.628,10.337,10.337S292.367,297.003,286.658,297.003z"/>
			</g>
		</g>
		<g>
			
				<rect x="206.209" y="420.937" transform="matrix(-1.836970e-16 1 -1 -1.836970e-16 734.5056 214.7274)" style="fill:#082742;" width="107.36" height="107.36"/>
			<path style="fill:#3079BE;" d="M244.179,528.302h-37.97v-37.97C227.179,490.332,244.179,507.333,244.179,528.302z"/>
			<path style="fill:#082742;" d="M226.406,528.302h-20.196v-20.196C217.367,508.106,226.406,517.144,226.406,528.302z"/>
			<path style="fill:#2BAAE2;" d="M206.209,420.935L206.209,420.935c12.164,0,22.024,9.86,22.024,22.024v22.704l0,0
				c-12.164,0-22.024-9.861-22.024-22.024V420.935z"/>
			<g>
				<path style="fill:#3079BE;" d="M238.514,420.936L238.514,420.936c24.756,0,44.825,20.069,44.825,44.825v46.207h0
					c-24.756,0-44.825-20.069-44.825-44.825V420.936z"/>
				<path style="fill:#0F4D81;" d="M250.012,434.48c12.728,4.693,21.827,16.944,21.827,31.281v32.663
					c-12.729-4.692-21.827-16.944-21.827-31.281V434.48z"/>
			</g>
			<path style="fill:#0F4D81;" d="M297.561,511.961c-1.678,0-3.221-0.695-4.34-1.797c-1.119-1.119-1.814-2.645-1.814-4.34v-84.893
				h12.29v84.893C303.698,509.198,300.934,511.961,297.561,511.961z"/>
		</g>
		<g>
			
				<rect x="206.209" y="743.028" transform="matrix(-1.836970e-16 1 -1 -1.836970e-16 1056.5967 536.8186)" style="fill:#082742;" width="107.36" height="107.36"/>
			<path style="fill:#0F4D81;" d="M244.179,743.028h-37.97v37.97C227.179,780.998,244.179,763.997,244.179,743.028z"/>
			<path style="fill:#082742;" d="M226.406,743.028h-20.197v20.196C217.367,763.224,226.406,754.185,226.406,743.028z"/>
			<path style="fill:#3079BE;" d="M313.569,743.028L313.569,743.028c0,16.688-13.529,30.216-30.216,30.216h-31.149l0,0
				c0-16.688,13.528-30.216,30.216-30.216H313.569z"/>
			<g>
				<path style="fill:#2BAAE2;" d="M313.569,850.388L313.569,850.388c0-24.756-20.069-44.825-44.825-44.825h-46.208l0,0
					c0,24.756,20.069,44.825,44.825,44.825H313.569z"/>
				<path style="fill:#0F4D81;" d="M300.025,838.889c-4.693-12.729-16.944-21.827-31.281-21.827h-32.663
					c4.692,12.728,16.944,21.827,31.281,21.827H300.025z"/>
			</g>
			<path style="fill:#0F4D81;" d="M297.239,790.554c0,1.678-0.695,3.221-1.797,4.34c-1.119,1.119-2.644,1.814-4.34,1.814h-84.893
				v-12.29h84.893C294.476,784.418,297.239,787.181,297.239,790.554z"/>
		</g>
		<g>
			<rect x="206.209" y="528.314" style="fill:#082742;" width="107.354" height="107.371"/>
			<g>
				
					<ellipse transform="matrix(0.1382 -0.9904 0.9904 0.1382 -355.8951 808.5469)" style="fill:#3079BE;" cx="286.653" cy="608.775" rx="26.911" ry="26.911"/>
				<path style="fill:#082742;" d="M286.653,619.112c-5.709,0-10.337-4.628-10.337-10.337c0-5.709,4.628-10.337,10.337-10.337
					c5.709,0,10.337,4.628,10.337,10.337C296.99,614.484,292.362,619.112,286.653,619.112z"/>
			</g>
			<g>
				
					<ellipse transform="matrix(0.1382 -0.9904 0.9904 0.1382 -302.8589 762.3973)" style="fill:#0F4D81;" cx="286.653" cy="555.225" rx="26.911" ry="26.911"/>
				<path style="fill:#082742;" d="M286.653,565.562c-5.709,0-10.337-4.628-10.337-10.337c0-5.709,4.628-10.337,10.337-10.337
					c5.709,0,10.337,4.628,10.337,10.337C296.99,560.934,292.362,565.562,286.653,565.562z"/>
			</g>
			<g>
				<path style="fill:#3079BE;" d="M259.074,635.685L259.074,635.685c-29.196,0-52.865-23.668-52.865-52.865v-54.495h0
					c29.196,0,52.865,23.668,52.865,52.865V635.685z"/>
				<path style="fill:#0F4D81;" d="M245.512,619.712c-15.011-5.534-25.742-19.983-25.742-36.891v-38.522
					c15.011,5.534,25.742,19.983,25.742,36.891V619.712z"/>
			</g>
		</g>
		<g>
			
				<rect x="98.855" y="743.033" transform="matrix(6.123234e-17 -1 1 6.123234e-17 -644.178 949.2484)" style="fill:#082742;" width="107.36" height="107.36"/>
			<polygon style="fill:#2BAAE2;" points="152.535,796.855 206.215,796.855 206.215,769.944 206.215,743.033 152.535,743.033 			"/>
			<polygon style="fill:#3079BE;" points="98.855,850.393 152.535,850.393 152.535,823.483 152.535,796.572 98.855,796.572 			"/>
			<rect x="110.721" y="808.438" style="fill:#082742;" width="29.948" height="30.089"/>
			<rect x="164.401" y="754.899" style="fill:#082742;" width="29.948" height="30.089"/>
			<path style="fill:#3079BE;" d="M152.535,768.884c-29.647,0-53.68,27.829-53.68,27.829s24.033,27.829,53.68,27.829
				c29.646,0,53.68-27.829,53.68-27.829S182.182,768.884,152.535,768.884z"/>
			<path style="fill:#0F4D81;" d="M103.507,796.711c6.306,6.399,26.119,24.442,49.029,24.442c22.961,0,42.733-18.035,49.027-24.437
				c-6.306-6.398-26.119-24.441-49.027-24.441C129.575,772.275,109.801,790.309,103.507,796.711z"/>
			
				<ellipse transform="matrix(0.0068 -1 1 0.0068 -645.1997 943.8115)" style="fill:#3079BE;" cx="152.535" cy="796.713" rx="17.375" ry="17.375"/>
			<path style="fill:#082742;" d="M152.535,790.922c-3.199,0-5.792,2.593-5.792,5.792c0,3.199,2.593,5.792,5.792,5.792
				c3.198,0,5.792-2.593,5.792-5.792C158.327,793.515,155.734,790.922,152.535,790.922z"/>
			<g>
				<path style="fill:#3079BE;" d="M136.605,754.899c-2.245,0-4.064,1.82-4.064,4.065c0,2.245,1.82,4.064,4.064,4.064
					c2.245,0,4.064-1.82,4.064-4.064C140.67,756.719,138.85,754.899,136.605,754.899z"/>
				<path style="fill:#3079BE;" d="M125.695,754.899c-2.245,0-4.064,1.82-4.064,4.065c0,2.245,1.82,4.064,4.064,4.064
					c2.245,0,4.064-1.82,4.064-4.064C129.76,756.719,127.94,754.899,125.695,754.899z"/>
				<path style="fill:#3079BE;" d="M114.786,754.899c-2.245,0-4.064,1.82-4.064,4.065c0,2.245,1.82,4.064,4.064,4.064
					c2.245,0,4.064-1.82,4.064-4.064C118.85,756.719,117.03,754.899,114.786,754.899z"/>
			</g>
			<g>
				<g>
					<g>
						<path style="fill:#0F4D81;" d="M190.285,830.399c-2.245,0-4.064,1.82-4.064,4.064c0,2.245,1.82,4.065,4.064,4.065
							c2.245,0,4.064-1.82,4.064-4.065C194.349,832.218,192.53,830.399,190.285,830.399z"/>
					</g>
					<g>
						<path style="fill:#0F4D81;" d="M179.375,830.399c-2.245,0-4.064,1.82-4.064,4.064c0,2.245,1.82,4.065,4.064,4.065
							c2.245,0,4.064-1.82,4.064-4.065C183.44,832.218,181.62,830.399,179.375,830.399z"/>
					</g>
					<g>
						<path style="fill:#0F4D81;" d="M168.466,830.399c-2.245,0-4.064,1.82-4.064,4.064c0,2.245,1.82,4.065,4.064,4.065
							c2.245,0,4.064-1.82,4.064-4.065C172.53,832.218,170.71,830.399,168.466,830.399z"/>
					</g>
				</g>
			</g>
		</g>
		<g>
			
				<rect x="98.855" y="528.314" transform="matrix(6.123234e-17 -1 1 6.123234e-17 -429.4583 734.5287)" style="fill:#082742;" width="107.36" height="107.36"/>
			<g>
				<path style="fill:#2BAAE2;" d="M111.822,569.028c14.78,14.78,40.635,12.888,40.635,12.888s1.892-25.855-12.888-40.635
					c-14.78-14.78-40.635-12.888-40.635-12.888S97.042,554.247,111.822,569.028z"/>
				<path style="fill:#0F4D81;" d="M145.626,575.083c-0.469-7.708-2.553-20.711-10.85-29.01
					c-8.338-8.337-21.633-10.381-29.012-10.85c0.47,7.708,2.554,20.711,10.852,29.01
					C124.954,572.57,138.249,574.615,145.626,575.083z"/>
			</g>
			<g>
				<path style="fill:#3079BE;" d="M165.501,622.707c14.78,14.78,40.635,12.888,40.635,12.888s1.892-25.856-12.888-40.635
					c-14.78-14.78-40.636-12.888-40.636-12.888S150.721,607.927,165.501,622.707z"/>
				<path style="fill:#0F4D81;" d="M199.305,628.762c-0.468-7.707-2.552-20.711-10.85-29.009
					c-8.338-8.337-21.633-10.381-29.011-10.85c0.47,7.708,2.554,20.711,10.851,29.01
					C178.634,626.25,191.928,628.294,199.305,628.762z"/>
			</g>
			
				<ellipse transform="matrix(0.9949 -0.1006 0.1006 0.9949 -54.9378 20.8511)" style="fill:#3079BE;" cx="179.305" cy="555.224" rx="26.911" ry="26.911"/>
			<g>
				
					<ellipse transform="matrix(0.5521 -0.8338 0.8338 0.5521 -451.241 377.5221)" style="fill:#0F4D81;" cx="125.766" cy="608.763" rx="26.911" ry="26.911"/>
				<path style="fill:#082742;" d="M125.766,597.86c-6.022,0-10.903,4.881-10.903,10.903c0,6.021,4.881,10.903,10.903,10.903
					c6.021,0,10.902-4.881,10.902-10.903C136.668,602.742,131.787,597.86,125.766,597.86z"/>
			</g>
			
				<ellipse transform="matrix(0.7071 -0.7071 0.7071 0.7071 -340.0856 289.4088)" style="fill:#082742;" cx="179.305" cy="555.224" rx="10.337" ry="10.337"/>
		</g>
		<g>
			
				<rect x="98.855" y="313.594" transform="matrix(6.123234e-17 -1 1 6.123234e-17 -214.7383 519.8087)" style="fill:#082742;" width="107.36" height="107.36"/>
			<path style="fill:#2BAAE2;" d="M98.855,368.089L98.855,368.089c0,29.196,23.668,52.865,52.864,52.865h54.495l0,0
				c0-29.196-23.668-52.865-52.864-52.865H98.855z"/>
			<path style="fill:#0F4D81;" d="M114.828,381.65c5.534,15.011,19.983,25.742,36.891,25.742h38.522
				c-5.534-15.011-19.983-25.742-36.891-25.742H114.828z"/>
			<g>
				<path style="fill:#3079BE;" d="M136.605,347.522c-2.245,0-4.064,1.82-4.064,4.065c0,2.245,1.819,4.064,4.064,4.064
					c2.245,0,4.065-1.82,4.065-4.064C140.669,349.342,138.849,347.522,136.605,347.522z"/>
				<path style="fill:#3079BE;" d="M125.695,347.522c-2.245,0-4.064,1.82-4.064,4.065c0,2.245,1.82,4.064,4.064,4.064
					c2.245,0,4.065-1.82,4.065-4.064C129.759,349.342,127.94,347.522,125.695,347.522z"/>
				<path style="fill:#3079BE;" d="M114.785,347.522c-2.245,0-4.064,1.82-4.064,4.065c0,2.245,1.82,4.064,4.064,4.064
					c2.245,0,4.064-1.82,4.064-4.064C118.849,349.342,117.03,347.522,114.785,347.522z"/>
			</g>
			<g>
				<g>
					<g>
						<path style="fill:#0F4D81;" d="M136.605,325.358c-2.245,0-4.064,1.82-4.064,4.064c0,2.245,1.819,4.064,4.064,4.064
							c2.245,0,4.065-1.82,4.065-4.064C140.669,327.177,138.849,325.358,136.605,325.358z"/>
					</g>
					<g>
						<path style="fill:#0F4D81;" d="M125.695,325.358c-2.245,0-4.064,1.82-4.064,4.064c0,2.245,1.82,4.064,4.064,4.064
							c2.245,0,4.065-1.82,4.065-4.064C129.759,327.177,127.94,325.358,125.695,325.358z"/>
					</g>
					<g>
						<path style="fill:#0F4D81;" d="M114.785,325.358c-2.245,0-4.064,1.82-4.064,4.064c0,2.245,1.82,4.064,4.064,4.064
							c2.245,0,4.064-1.82,4.064-4.064C118.849,327.177,117.03,325.358,114.785,325.358z"/>
					</g>
				</g>
			</g>
			
				<ellipse transform="matrix(0.9924 -0.1234 0.1234 0.9924 -40.6328 24.7182)" style="fill:#3079BE;" cx="179.305" cy="340.504" rx="26.911" ry="26.911"/>
			<g>
				
					<ellipse transform="matrix(0.9924 -0.1234 0.1234 0.9924 -40.6328 24.7182)" style="fill:#3079BE;" cx="179.305" cy="340.504" rx="26.911" ry="26.911"/>
				
					<ellipse transform="matrix(0.9735 -0.2287 0.2287 0.9735 -73.1336 50.0421)" style="fill:#082742;" cx="179.305" cy="340.504" rx="10.337" ry="10.337"/>
			</g>
		</g>
		<g>
			
				<rect x="98.855" y="98.833" transform="matrix(6.123234e-17 -1 1 6.123234e-17 0.0226 305.0478)" style="fill:#082742;" width="107.36" height="107.36"/>
			<path style="fill:#3079BE;" d="M136.825,98.827h-37.97v37.97C119.825,136.797,136.825,119.796,136.825,98.827z"/>
			<path style="fill:#082742;" d="M119.052,98.827H98.855v20.196C110.013,119.023,119.052,109.985,119.052,98.827z"/>
			<path style="fill:#2BAAE2;" d="M98.855,206.194L98.855,206.194c12.164,0,22.024-9.861,22.024-22.024v-22.704l0,0
				c-12.164,0-22.024,9.861-22.024,22.024V206.194z"/>
			<g>
				<path style="fill:#3079BE;" d="M131.16,206.193L131.16,206.193c24.756,0,44.825-20.069,44.825-44.825v-46.208l0,0
					c-24.756,0-44.825,20.069-44.825,44.825V206.193z"/>
				<path style="fill:#0F4D81;" d="M142.658,192.649c12.728-4.693,21.827-16.944,21.827-31.281v-32.663
					c-12.728,4.692-21.827,16.944-21.827,31.281V192.649z"/>
			</g>
			<path style="fill:#0F4D81;" d="M190.207,115.168c-1.678,0-3.221,0.695-4.34,1.797c-1.119,1.119-1.814,2.644-1.814,4.34v84.893
				h12.29v-84.893C196.344,117.931,193.581,115.168,190.207,115.168z"/>
		</g>
		<g>
			
				<rect x="-8.505" y="635.673" transform="matrix(6.123234e-17 -1 1 6.123234e-17 -644.178 734.5287)" style="fill:#082742;" width="107.36" height="107.36"/>
			<polygon style="fill:#3079BE;" points="45.175,743.033 98.855,743.033 98.855,716.123 98.855,689.212 45.175,689.212 			"/>
			<rect x="53.65" y="697.688" style="fill:#082742;" width="29.948" height="30.089"/>
			<polygon style="fill:#0F4D81;" points="-8.505,689.495 45.175,689.495 45.175,662.584 45.175,635.674 -8.505,635.674 			"/>
			<rect x="6.752" y="650.93" style="fill:#082742;" width="29.948" height="30.089"/>
			<path style="fill:#2BAAE2;" d="M25.497,669.675C4.534,690.639,7.218,727.311,7.218,727.311s36.672,2.684,57.635-18.279
				c20.963-20.963,18.279-57.635,18.279-57.635S46.461,648.712,25.497,669.675z"/>
			<path style="fill:#0F4D81;" d="M10.505,724.019c8.983,0.066,35.752-1.186,51.951-17.386
				c16.236-16.236,17.464-42.97,17.388-51.947c-8.983-0.065-35.751,1.187-51.95,17.385
				C11.659,688.308,10.429,715.042,10.505,724.019z"/>
			<path style="fill:#2BAAE2;" d="M32.889,677.067c-6.786,6.785-6.786,17.787,0,24.572c6.785,6.786,17.787,6.786,24.572,0
				c6.786-6.785,6.786-17.787,0-24.572C50.676,670.282,39.675,670.282,32.889,677.067z"/>
			<path style="fill:#082742;" d="M41.08,685.258c-2.262,2.262-2.262,5.929,0,8.191c2.262,2.262,5.929,2.262,8.191,0
				c2.262-2.262,2.262-5.929,0-8.191C47.009,682.996,43.342,682.996,41.08,685.258z"/>
		</g>
		<g>
			
				<rect x="-8.505" y="420.953" transform="matrix(6.123234e-17 -1 1 6.123234e-17 -429.4581 519.8088)" style="fill:#082742;" width="107.36" height="107.36"/>
			<g>
				<path style="fill:#3079BE;" d="M4.462,461.668c14.78,14.78,40.635,12.888,40.635,12.888S46.99,448.7,32.209,433.92
					c-14.78-14.78-40.635-12.888-40.635-12.888S-10.318,446.888,4.462,461.668z"/>
				<path style="fill:#0F4D81;" d="M38.266,467.723c-0.468-7.708-2.553-20.711-10.85-29.01c-8.338-8.337-21.633-10.381-29.012-10.85
					c0.47,7.708,2.555,20.711,10.851,29.01C17.594,465.21,30.889,467.255,38.266,467.723z"/>
			</g>
			<g>
				<path style="fill:#3079BE;" d="M4.462,487.599c14.78-14.78,40.635-12.888,40.635-12.888s1.892,25.856-12.888,40.635
					c-14.78,14.78-40.635,12.888-40.635,12.888S-10.318,502.379,4.462,487.599z"/>
				<path style="fill:#0F4D81;" d="M38.266,481.544c-0.468,7.707-2.552,20.711-10.85,29.009
					c-8.338,8.337-21.633,10.381-29.011,10.85c0.47-7.708,2.554-20.711,10.851-29.01C17.594,484.057,30.889,482.012,38.266,481.544z
					"/>
			</g>
			<g>
				<path style="fill:#3079BE;" d="M76.473,510.123c-2.245,0-4.065,1.82-4.065,4.064c0,2.245,1.82,4.064,4.065,4.064
					c2.245,0,4.064-1.819,4.064-4.064C80.537,511.943,78.718,510.123,76.473,510.123z"/>
				<path style="fill:#3079BE;" d="M65.563,510.123c-2.245,0-4.065,1.82-4.065,4.064c0,2.245,1.82,4.064,4.065,4.064
					c2.245,0,4.064-1.819,4.064-4.064C69.628,511.943,67.808,510.123,65.563,510.123z"/>
				<path style="fill:#3079BE;" d="M54.654,510.123c-2.245,0-4.064,1.82-4.064,4.064c0,2.245,1.82,4.064,4.064,4.064
					c2.245,0,4.064-1.819,4.064-4.064C58.718,511.943,56.898,510.123,54.654,510.123z"/>
			</g>
			<g>
				<g>
					<g>
						<path style="fill:#0F4D81;" d="M76.473,431.124c-2.245,0-4.065,1.82-4.065,4.065c0,2.245,1.82,4.064,4.065,4.064
							c2.245,0,4.064-1.819,4.064-4.064C80.537,432.944,78.718,431.124,76.473,431.124z"/>
					</g>
					<g>
						<path style="fill:#0F4D81;" d="M65.563,431.124c-2.245,0-4.065,1.82-4.065,4.065c0,2.245,1.82,4.064,4.065,4.064
							c2.245,0,4.064-1.819,4.064-4.064C69.628,432.944,67.808,431.124,65.563,431.124z"/>
					</g>
					<g>
						<path style="fill:#0F4D81;" d="M54.654,431.124c-2.245,0-4.064,1.82-4.064,4.065c0,2.245,1.82,4.064,4.064,4.064
							c2.245,0,4.064-1.819,4.064-4.064C58.718,432.944,56.898,431.124,54.654,431.124z"/>
					</g>
				</g>
			</g>
			<g>
				
					<ellipse transform="matrix(0.9926 -0.1217 0.1217 0.9926 -57.2359 12.2858)" style="fill:#2BAAE2;" cx="71.945" cy="474.634" rx="26.911" ry="26.911"/>
				<path style="fill:#082742;" d="M71.945,463.731c-6.021,0-10.903,4.881-10.903,10.903c0,6.021,4.881,10.902,10.903,10.902
					c6.021,0,10.903-4.881,10.903-10.902C82.847,468.612,77.966,463.731,71.945,463.731z"/>
			</g>
		</g>
		<g>
			
				<rect x="-8.505" y="98.833" transform="matrix(6.123234e-17 -1 1 6.123234e-17 -107.3373 197.6879)" style="fill:#082742;" width="107.36" height="107.36"/>
			<polygon style="fill:#2BAAE2;" points="45.176,152.654 98.855,152.654 98.855,125.743 98.855,98.833 45.176,98.833 			"/>
			<polygon style="fill:#3079BE;" points="-8.505,206.193 45.176,206.193 45.176,179.282 45.176,152.371 -8.505,152.371 			"/>
			<rect x="3.362" y="164.238" style="fill:#082742;" width="29.948" height="30.089"/>
			<rect x="57.041" y="110.699" style="fill:#082742;" width="29.948" height="30.089"/>
			<path style="fill:#3079BE;" d="M45.176,124.684c-29.647,0-53.68,27.829-53.68,27.829s24.033,27.829,53.68,27.829
				c29.646,0,53.68-27.829,53.68-27.829S74.822,124.684,45.176,124.684z"/>
			<path style="fill:#0F4D81;" d="M-3.853,152.51c6.306,6.399,26.119,24.441,49.029,24.441c22.961,0,42.733-18.035,49.027-24.437
				c-6.306-6.398-26.119-24.441-49.027-24.441C22.215,128.074,2.441,146.108-3.853,152.51z"/>
			<path style="fill:#3079BE;" d="M45.176,135.137c-9.596,0-17.375,7.779-17.375,17.375c0,9.596,7.779,17.375,17.375,17.375
				c9.596,0,17.375-7.779,17.375-17.375C62.551,142.916,54.771,135.137,45.176,135.137z"/>
			<path style="fill:#082742;" d="M45.176,146.721c-3.199,0-5.792,2.593-5.792,5.792c0,3.198,2.593,5.792,5.792,5.792
				c3.198,0,5.791-2.593,5.791-5.792C50.967,149.314,48.374,146.721,45.176,146.721z"/>
			<g>
				<path style="fill:#3079BE;" d="M29.245,110.699c-2.245,0-4.064,1.82-4.064,4.064c0,2.245,1.82,4.064,4.064,4.064
					c2.245,0,4.064-1.82,4.064-4.064C33.31,112.519,31.49,110.699,29.245,110.699z"/>
				<path style="fill:#3079BE;" d="M18.336,110.699c-2.245,0-4.065,1.82-4.065,4.064c0,2.245,1.82,4.064,4.065,4.064
					c2.245,0,4.064-1.82,4.064-4.064C22.4,112.519,20.58,110.699,18.336,110.699z"/>
				<path style="fill:#3079BE;" d="M7.426,110.699c-2.245,0-4.064,1.82-4.064,4.064c0,2.245,1.82,4.064,4.064,4.064
					c2.245,0,4.064-1.82,4.064-4.064C11.49,112.519,9.671,110.699,7.426,110.699z"/>
			</g>
			<g>
				<g>
					<g>
						<path style="fill:#0F4D81;" d="M82.925,186.198c-2.245,0-4.064,1.82-4.064,4.064c0,2.245,1.82,4.064,4.064,4.064
							c2.245,0,4.064-1.82,4.064-4.064C86.989,188.018,85.17,186.198,82.925,186.198z"/>
					</g>
					<g>
						<path style="fill:#0F4D81;" d="M72.015,186.198c-2.245,0-4.064,1.82-4.064,4.064c0,2.245,1.82,4.064,4.064,4.064
							c2.245,0,4.064-1.82,4.064-4.064C76.08,188.018,74.26,186.198,72.015,186.198z"/>
					</g>
					<g>
						<path style="fill:#0F4D81;" d="M61.106,186.198c-2.245,0-4.064,1.82-4.064,4.064c0,2.245,1.82,4.064,4.064,4.064
							c2.245,0,4.064-1.82,4.064-4.064C65.17,188.018,63.35,186.198,61.106,186.198z"/>
					</g>
				</g>
			</g>
		</g>
		<g>
			
				<rect x="-8.505" y="743.033" transform="matrix(6.123234e-17 -1 1 6.123234e-17 -751.5379 841.8886)" style="fill:#082742;" width="107.36" height="107.36"/>
			<g>
				<path style="fill:#2BAAE2;" d="M4.462,783.747c14.78,14.78,40.635,12.888,40.635,12.888S46.99,770.78,32.209,756
					c-14.78-14.78-40.635-12.888-40.635-12.888S-10.318,768.967,4.462,783.747z"/>
				<path style="fill:#0F4D81;" d="M38.266,789.803c-0.468-7.708-2.553-20.711-10.85-29.01c-8.338-8.337-21.633-10.381-29.012-10.85
					c0.47,7.708,2.555,20.711,10.851,29.01C17.594,787.29,30.889,789.334,38.266,789.803z"/>
			</g>
			<g>
				<path style="fill:#3079BE;" d="M58.141,837.427c14.78,14.78,40.636,12.888,40.636,12.888s1.892-25.855-12.888-40.635
					c-14.78-14.78-40.635-12.888-40.635-12.888S43.361,822.647,58.141,837.427z"/>
				<path style="fill:#0F4D81;" d="M91.945,843.482c-0.469-7.708-2.553-20.711-10.85-29.01c-8.338-8.337-21.633-10.381-29.011-10.85
					c0.47,7.708,2.554,20.711,10.851,29.01C71.274,840.969,84.569,843.014,91.945,843.482z"/>
			</g>
			
				<ellipse transform="matrix(0.9967 -0.0811 0.0811 0.9967 -62.1991 8.3698)" style="fill:#3079BE;" cx="71.945" cy="769.944" rx="26.911" ry="26.911"/>
			<g>
				
					<ellipse transform="matrix(0.7071 -0.7071 0.7071 0.7071 -576.8992 254.2075)" style="fill:#0F4D81;" cx="18.406" cy="823.483" rx="26.911" ry="26.911"/>
				<path style="fill:#082742;" d="M18.406,812.58c-6.021,0-10.902,4.881-10.902,10.903c0,6.021,4.881,10.903,10.902,10.903
					c6.021,0,10.903-4.881,10.903-10.903C29.309,817.461,24.427,812.58,18.406,812.58z"/>
			</g>
			
				<ellipse transform="matrix(0.7071 -0.7071 0.7071 0.7071 -523.3604 276.3839)" style="fill:#082742;" cx="71.945" cy="769.944" rx="10.337" ry="10.337"/>
		</g>
		<g>
			
				<rect x="-8.505" y="528.313" transform="matrix(6.123234e-17 -1 1 6.123234e-17 -536.8181 627.1688)" style="fill:#082742;" width="107.36" height="107.36"/>
			<path style="fill:#2BAAE2;" d="M-8.505,582.809L-8.505,582.809c0,29.196,23.668,52.865,52.865,52.865h54.495l0,0
				c0-29.196-23.668-52.865-52.865-52.865H-8.505z"/>
			<path style="fill:#0F4D81;" d="M7.469,596.37c5.534,15.01,19.983,25.742,36.891,25.742h38.522
				c-5.534-15.01-19.983-25.742-36.891-25.742H7.469z"/>
			<g>
				<path style="fill:#3079BE;" d="M29.245,562.242c-2.245,0-4.064,1.82-4.064,4.064c0,2.245,1.82,4.064,4.064,4.064
					c2.245,0,4.065-1.82,4.065-4.064C33.309,564.062,31.489,562.242,29.245,562.242z"/>
				<path style="fill:#3079BE;" d="M18.335,562.242c-2.245,0-4.065,1.82-4.065,4.064c0,2.245,1.82,4.064,4.065,4.064
					c2.245,0,4.064-1.82,4.064-4.064C22.399,564.062,20.58,562.242,18.335,562.242z"/>
				<path style="fill:#3079BE;" d="M7.425,562.242c-2.245,0-4.064,1.82-4.064,4.064c0,2.245,1.82,4.064,4.064,4.064
					c2.245,0,4.064-1.82,4.064-4.064C11.49,564.062,9.67,562.242,7.425,562.242z"/>
			</g>
			<g>
				<g>
					<g>
						<path style="fill:#0F4D81;" d="M29.245,540.077c-2.245,0-4.064,1.82-4.064,4.065c0,2.245,1.82,4.065,4.064,4.065
							c2.245,0,4.065-1.82,4.065-4.065C33.309,541.897,31.489,540.077,29.245,540.077z"/>
					</g>
					<g>
						<circle style="fill:#0F4D81;" cx="18.335" cy="544.142" r="4.065"/>
					</g>
					<g>
						<path style="fill:#0F4D81;" d="M7.425,540.077c-2.245,0-4.064,1.82-4.064,4.065c0,2.245,1.82,4.065,4.064,4.065
							c2.245,0,4.064-1.82,4.064-4.065C11.49,541.897,9.67,540.077,7.425,540.077z"/>
					</g>
				</g>
			</g>
			
				<ellipse transform="matrix(0.9952 -0.0974 0.0974 0.9952 -53.7334 9.6466)" style="fill:#3079BE;" cx="71.945" cy="555.224" rx="26.911" ry="26.911"/>
			<g>
				
					<ellipse transform="matrix(0.9952 -0.0974 0.0974 0.9952 -53.7334 9.6466)" style="fill:#3079BE;" cx="71.945" cy="555.224" rx="26.911" ry="26.911"/>
				<path style="fill:#082742;" d="M71.945,544.887c-5.709,0-10.337,4.628-10.337,10.337c0,5.709,4.628,10.337,10.337,10.337
					s10.337-4.628,10.337-10.337C82.282,549.515,77.654,544.887,71.945,544.887z"/>
			</g>
		</g>
		<g>
			
				<rect x="-8.505" y="313.594" transform="matrix(6.123234e-17 -1 1 6.123234e-17 -322.0981 412.4489)" style="fill:#082742;" width="107.36" height="107.36"/>
			<path style="fill:#3079BE;" d="M29.465,313.588h-37.97v37.97C12.465,351.558,29.465,334.557,29.465,313.588z"/>
			<path style="fill:#082742;" d="M11.692,313.588H-8.505v20.196C2.653,333.784,11.692,324.746,11.692,313.588z"/>
			<path style="fill:#2BAAE2;" d="M-8.505,420.954L-8.505,420.954c12.164,0,22.024-9.86,22.024-22.024v-22.704l0,0
				c-12.164,0-22.024,9.861-22.024,22.024V420.954z"/>
			<g>
				<path style="fill:#3079BE;" d="M23.8,420.954L23.8,420.954c24.756,0,44.825-20.069,44.825-44.825v-46.207l0,0
					c-24.756,0-44.825,20.069-44.825,44.825V420.954z"/>
				<path style="fill:#0F4D81;" d="M35.298,407.41c12.728-4.693,21.827-16.944,21.827-31.281v-32.663
					c-12.728,4.692-21.827,16.944-21.827,31.281V407.41z"/>
			</g>
			<path style="fill:#0F4D81;" d="M82.847,329.929c-1.678,0-3.221,0.695-4.34,1.797c-1.119,1.119-1.814,2.645-1.814,4.34v84.893
				h12.29v-84.893C88.984,332.692,86.221,329.929,82.847,329.929z"/>
		</g>
		<g>
			
				<rect x="-8.505" y="-8.498" transform="matrix(6.123234e-17 -1 1 6.123234e-17 -0.007 90.3577)" style="fill:#082742;" width="107.36" height="107.36"/>
			<path style="fill:#0F4D81;" d="M29.465,98.862h-37.97v-37.97C12.465,60.892,29.465,77.893,29.465,98.862z"/>
			<path style="fill:#082742;" d="M11.692,98.862H-8.505V78.666C2.653,78.666,11.692,87.704,11.692,98.862z"/>
			<path style="fill:#3079BE;" d="M98.855,98.862L98.855,98.862c0-16.688-13.528-30.216-30.216-30.216H37.49l0,0
				c0,16.688,13.529,30.216,30.217,30.216H98.855z"/>
			<g>
				<path style="fill:#2BAAE2;" d="M98.855-8.498L98.855-8.498c0,24.756-20.069,44.825-44.825,44.825H7.823l0,0
					c0-24.756,20.069-44.825,44.825-44.825H98.855z"/>
				<path style="fill:#0F4D81;" d="M85.311,3.001c-4.692,12.729-16.944,21.827-31.281,21.827H21.367
					C26.06,12.099,38.311,3.001,52.648,3.001H85.311z"/>
			</g>
			<path style="fill:#0F4D81;" d="M82.525,51.336c0-1.678-0.695-3.221-1.797-4.34c-1.119-1.119-2.644-1.814-4.34-1.814H-8.505v12.29
				h84.893C79.762,57.472,82.525,54.709,82.525,51.336z"/>
		</g>
		<g>
			<rect x="-8.505" y="206.205" style="fill:#082742;" width="107.354" height="107.371"/>
			<g>
				<circle style="fill:#3079BE;" cx="71.939" cy="233.115" r="26.911"/>
				<path style="fill:#082742;" d="M71.939,222.778c-5.709,0-10.337,4.628-10.337,10.337c0,5.709,4.628,10.337,10.337,10.337
					c5.709,0,10.337-4.628,10.337-10.337C82.276,227.406,77.648,222.778,71.939,222.778z"/>
			</g>
			<g>
				<circle style="fill:#0F4D81;" cx="71.939" cy="286.665" r="26.911"/>
				
					<ellipse transform="matrix(0.9735 -0.2287 0.2287 0.9735 -63.6649 24.0557)" style="fill:#082742;" cx="71.939" cy="286.665" rx="10.337" ry="10.337"/>
			</g>
			<g>
				<path style="fill:#3079BE;" d="M44.36,206.205L44.36,206.205c-29.196,0-52.865,23.668-52.865,52.864v54.495l0,0
					c29.196,0,52.865-23.668,52.865-52.865V206.205z"/>
				<path style="fill:#0F4D81;" d="M30.798,222.178c-15.01,5.534-25.742,19.983-25.742,36.891v38.522
					c15.01-5.534,25.742-19.983,25.742-36.891V222.178z"/>
			</g>
		</g>
		<g>
			
				<rect x="98.855" y="420.954" transform="matrix(6.123234e-17 -1 1 6.123234e-17 -322.0984 627.1688)" style="fill:#082742;" width="107.36" height="107.36"/>
			<polygon style="fill:#3079BE;" points="152.535,528.313 206.215,528.313 206.215,501.403 206.215,474.492 152.535,474.492 			"/>
			<rect x="161.01" y="482.968" style="fill:#082742;" width="29.948" height="30.089"/>
			<polygon style="fill:#0F4D81;" points="98.855,474.775 152.535,474.775 152.535,447.864 152.535,420.954 98.855,420.954 			"/>
			<rect x="114.112" y="436.21" style="fill:#082742;" width="29.948" height="30.089"/>
			<path style="fill:#2BAAE2;" d="M132.857,454.955c-20.963,20.963-18.279,57.635-18.279,57.635s36.672,2.684,57.635-18.279
				c20.963-20.963,18.279-57.635,18.279-57.635S153.821,433.992,132.857,454.955z"/>
			<path style="fill:#0F4D81;" d="M117.865,509.299c8.984,0.066,35.752-1.186,51.952-17.386
				c16.236-16.236,17.464-42.97,17.388-51.947c-8.983-0.066-35.751,1.187-51.95,17.385
				C119.019,473.588,117.789,500.322,117.865,509.299z"/>
			<path style="fill:#2BAAE2;" d="M140.249,462.347c-6.785,6.786-6.785,17.787,0,24.573c6.785,6.785,17.787,6.785,24.572,0
				c6.786-6.785,6.786-17.787,0-24.573C158.036,455.562,147.034,455.562,140.249,462.347z"/>
			<path style="fill:#082742;" d="M148.44,470.538c-2.262,2.262-2.262,5.929,0,8.191c2.262,2.262,5.929,2.262,8.191,0
				c2.262-2.262,2.262-5.929,0-8.191C154.369,468.276,150.702,468.276,148.44,470.538z"/>
		</g>
		<g>
			
				<rect x="98.855" y="635.674" transform="matrix(6.123234e-17 -1 1 6.123234e-17 -536.8182 841.8886)" style="fill:#082742;" width="107.36" height="107.36"/>
			<g>
				<path style="fill:#3079BE;" d="M111.822,676.387c14.78,14.78,40.635,12.888,40.635,12.888s1.892-25.855-12.888-40.635
					c-14.78-14.78-40.635-12.888-40.635-12.888S97.042,661.608,111.822,676.387z"/>
				<path style="fill:#0F4D81;" d="M145.626,682.443c-0.469-7.708-2.553-20.711-10.85-29.01
					c-8.338-8.337-21.633-10.381-29.012-10.85c0.47,7.708,2.554,20.711,10.852,29.01
					C124.954,679.93,138.249,681.974,145.626,682.443z"/>
			</g>
			<g>
				<path style="fill:#3079BE;" d="M111.822,702.319c14.78-14.78,40.635-12.888,40.635-12.888s1.892,25.855-12.888,40.635
					c-14.78,14.78-40.635,12.888-40.635,12.888S97.042,717.099,111.822,702.319z"/>
				<path style="fill:#0F4D81;" d="M145.626,696.264c-0.469,7.708-2.553,20.711-10.85,29.009
					c-8.338,8.337-21.633,10.381-29.011,10.85c0.47-7.708,2.554-20.711,10.851-29.01
					C124.954,698.777,138.249,696.732,145.626,696.264z"/>
			</g>
			<g>
				<path style="fill:#3079BE;" d="M183.833,724.843c-2.245,0-4.064,1.82-4.064,4.065c0,2.245,1.819,4.064,4.064,4.064
					c2.245,0,4.064-1.819,4.064-4.064C187.897,726.662,186.078,724.843,183.833,724.843z"/>
				<path style="fill:#3079BE;" d="M172.923,724.843c-2.245,0-4.064,1.82-4.064,4.065c0,2.245,1.82,4.064,4.064,4.064
					c2.245,0,4.064-1.819,4.064-4.064C176.988,726.662,175.168,724.843,172.923,724.843z"/>
				<path style="fill:#3079BE;" d="M162.013,724.843c-2.245,0-4.064,1.82-4.064,4.065c0,2.245,1.82,4.064,4.064,4.064
					c2.245,0,4.065-1.819,4.065-4.064C166.078,726.662,164.258,724.843,162.013,724.843z"/>
			</g>
			<g>
				<g>
					<g>
						<path style="fill:#0F4D81;" d="M183.833,645.844c-2.245,0-4.064,1.82-4.064,4.065c0,2.245,1.819,4.064,4.064,4.064
							c2.245,0,4.064-1.819,4.064-4.064C187.897,647.664,186.078,645.844,183.833,645.844z"/>
					</g>
					<g>
						<path style="fill:#0F4D81;" d="M172.923,645.844c-2.245,0-4.064,1.82-4.064,4.065c0,2.245,1.82,4.064,4.064,4.064
							c2.245,0,4.064-1.819,4.064-4.064C176.988,647.664,175.168,645.844,172.923,645.844z"/>
					</g>
					<g>
						<path style="fill:#0F4D81;" d="M162.013,645.844c-2.245,0-4.064,1.82-4.064,4.065c0,2.245,1.82,4.064,4.064,4.064
							c2.245,0,4.065-1.819,4.065-4.064C166.078,647.664,164.258,645.844,162.013,645.844z"/>
					</g>
				</g>
			</g>
			<g>
				
					<ellipse transform="matrix(0.9371 -0.3491 0.3491 0.9371 -229.4008 105.9854)" style="fill:#2BAAE2;" cx="179.305" cy="689.353" rx="26.911" ry="26.911"/>
				
					<ellipse transform="matrix(0.9872 -0.1596 0.1596 0.9872 -107.7493 37.4651)" style="fill:#082742;" cx="179.305" cy="689.353" rx="10.903" ry="10.903"/>
			</g>
		</g>
		<g>
			
				<rect x="98.855" y="206.21" transform="matrix(6.123234e-17 -1 1 6.123234e-17 -107.3549 412.4253)" style="fill:#082742;" width="107.36" height="107.36"/>
			<path style="fill:#0F4D81;" d="M136.825,313.57h-37.97V275.6C119.825,275.6,136.825,292.601,136.825,313.57z"/>
			<path style="fill:#082742;" d="M119.052,313.57H98.855v-20.196C110.013,293.374,119.052,302.413,119.052,313.57z"/>
			<path style="fill:#3079BE;" d="M206.215,313.57L206.215,313.57c0-16.688-13.528-30.216-30.216-30.216H144.85l0,0
				c0,16.688,13.528,30.216,30.216,30.216H206.215z"/>
			<g>
				<path style="fill:#2BAAE2;" d="M206.215,206.21L206.215,206.21c0,24.756-20.069,44.825-44.825,44.825h-46.207l0,0
					c0-24.756,20.069-44.825,44.825-44.825H206.215z"/>
				<path style="fill:#0F4D81;" d="M192.671,217.709c-4.693,12.728-16.944,21.827-31.281,21.827h-32.663
					c4.692-12.728,16.944-21.827,31.281-21.827H192.671z"/>
			</g>
			<path style="fill:#0F4D81;" d="M189.885,266.043c0-1.678-0.695-3.221-1.797-4.34c-1.119-1.119-2.645-1.814-4.34-1.814H98.855
				v12.29h84.893C187.122,272.18,189.885,269.417,189.885,266.043z"/>
		</g>
		<g>
			<rect x="98.858" y="-8.503" style="fill:#082742;" width="107.354" height="107.371"/>
			<g>
				
					<ellipse transform="matrix(0.9967 -0.0817 0.0817 0.9967 -0.9044 14.709)" style="fill:#3079BE;" cx="179.302" cy="18.407" rx="26.911" ry="26.911"/>
				
					<ellipse transform="matrix(0.2369 -0.9715 0.9715 0.2369 118.9373 188.2428)" style="fill:#082742;" cx="179.302" cy="18.407" rx="10.337" ry="10.337"/>
			</g>
			<g>
				
					<ellipse transform="matrix(0.9924 -0.123 0.123 0.9924 -7.4883 22.597)" style="fill:#0F4D81;" cx="179.302" cy="71.957" rx="26.911" ry="26.911"/>
				<path style="fill:#082742;" d="M179.302,61.62c-5.709,0-10.337,4.628-10.337,10.337c0,5.709,4.628,10.337,10.337,10.337
					c5.709,0,10.337-4.628,10.337-10.337C189.639,66.248,185.011,61.62,179.302,61.62z"/>
			</g>
			<g>
				<path style="fill:#3079BE;" d="M151.723-8.503L151.723-8.503c-29.196,0-52.864,23.668-52.864,52.864v54.495l0,0
					c29.196,0,52.864-23.668,52.864-52.865V-8.503z"/>
				<path style="fill:#0F4D81;" d="M138.161,7.47c-15.01,5.534-25.742,19.983-25.742,36.891v38.522
					c15.011-5.534,25.742-19.983,25.742-36.891V7.47z"/>
			</g>
		</g>
	</g>
	<g>
		<text transform="matrix(1 0 0 1 355.9573 112.0309)" style="fill:#0F4D81; font-family:'BebasNeueBold'; font-size:66.4012px;">ABSTRACT</text>
		<text transform="matrix(1 0 0 1 448.718 166.7555)" style="fill:#0F4D81; font-family:'BebasNeueBold'; font-size:66.4012px;">BLUE.</text>
	</g>
	<g>
		<text transform="matrix(1 0 0 1 493.2439 507.4703)" style="fill:#0F4D81; font-family:'BebasNeueBold'; font-size:24.8015px;">25.08.20</text>
		<text transform="matrix(1 0 0 1 442.8987 531.8414)" style="fill:#0F4D81; font-family:'BebasNeueBold'; font-size:24.8015px;">ABSTRACT CLUB</text>
		<text transform="matrix(1 0 0 1 500.1537 555.9616)"><tspan x="0" y="0" style="fill:#0F4D81; font-family:'Montserrat-Light'; font-size:8.2671px;">Street Name</tspan><tspan x="-36.68" y="9.921" style="fill:#0F4D81; font-family:'Montserrat-Light'; font-size:8.2671px;">Location detail here</tspan></text>
	</g>
	<g>
		<rect x="367.689" y="682.729" style="fill:none;" width="193.707" height="56.034"/>
		<text transform="matrix(1 0 0 1 373.7781 688.8643)"><tspan x="0" y="0" style="fill:#0F4D81; font-family:'Montserrat-Light'; font-size:8.2671px;">Lorem ipsum dolor sit amet, consecte</tspan><tspan x="184.473" y="0" style="fill:#0F4D81; font-family:'Montserrat-Light'; font-size:8.2671px;">-</tspan><tspan x="19.172" y="9.921" style="fill:#0F4D81; font-family:'Montserrat-Light'; font-size:8.2671px;">tur adipiscing elit, sed do eiusmod </tspan><tspan x="4.978" y="19.842" style="fill:#0F4D81; font-family:'Montserrat-Light'; font-size:8.2671px;">tempor incididunt ut labore et dolore </tspan><tspan x="27.496" y="29.762" style="fill:#0F4D81; font-family:'Montserrat-Light'; font-size:8.2671px;">magna aliqua. Ut enim ad minim </tspan><tspan x="24.569" y="39.683" style="fill:#0F4D81; font-family:'Montserrat-Light'; font-size:8.2671px;">veniam, quis nostrud exercitation </tspan><tspan x="91.128" y="49.604" style="fill:#0F4D81; font-family:'Montserrat-Light'; font-size:8.2671px;">ullamco laboris nisi.</tspan></text>
		
			<text transform="matrix(1 0 0 1 437.7864 767.9747)" style="fill:#0F4D81; font-family:'Montserrat-Regular'; font-size:11.574px; letter-spacing:1;">www.colorful.com</text>
	</g>
</g>
</svg>
