<?xml version="1.0" encoding="utf-8"?>
<!-- Generator: Adobe Illustrator 27.5.0, SVG Export Plug-In . SVG Version: 6.00 Build 0)  -->
<svg version="1.1" id="PRINT" xmlns="http://www.w3.org/2000/svg" xmlns:xlink="http://www.w3.org/1999/xlink" x="0px" y="0px"
	 viewBox="0 0 595.276 841.89" style="enable-background:new 0 0 595.276 841.89;" xml:space="preserve">
<g>
	<rect x="-8.431" y="-8.504" style="fill:#D78482;" width="612.211" height="858.898"/>
	<g>
		<g>
			<path style="fill:#E89797;" d="M468.474,600.271c9.751-28.19-12.869-67.812,13.279-90.199
				c4.502-3.585,42.744-24.449,33.355-73.27c-9.524-49.518-50.467-65.863-63.106-86.721c-28.097-46.373-45.126-79.976-95.567-86.246
				c-35.395-4.4-46.047,8.049-77.203,18.966c-31.696,7.166-54.711-8.948-85.395,5.221c-57.429,26.52-45.312,67.813-66.514,114.254
				c-17.355,26.537-49.802,42.721-48.524,79.348c2.041,44.91,30.876,42.533,57.9,63.82c8.733,8.919,11.895,21.693,17.02,33.075
				c15.013,36.45,59.929,60.719,96.929,42.035c11.695-5.849,21.433-15.557,33.892-19.532c20.859-6.654,42.989,4.363,61.293,16.377
				c28.072,20.958,62.092,36.848,93.833,14.633C452.194,624.547,463.735,614.076,468.474,600.271z"/>
		</g>
	</g>
	<rect x="-8.431" y="563.414" style="fill:#5EA4A3;" width="612.211" height="286.98"/>
	<rect x="101.514" y="691.797" style="fill:none;" width="392.32" height="68.096"/>
	<text transform="matrix(1 0 0 1 115.9537 706.7076)"><tspan x="0" y="0" style="fill:#FFFFFF; font-family:'YanoneKaffeesatz-Light'; font-size:21px;">Lorem ipsum dolor sit amet, consectetuer </tspan><tspan x="-9.922" y="21" style="fill:#FFFFFF; font-family:'YanoneKaffeesatz-Light'; font-size:21px;">adipiscing elit, sed diam nonummy nibh eu</tspan><tspan x="366.919" y="21" style="fill:#FFFFFF; font-family:'YanoneKaffeesatz-Light'; font-size:21px;">-</tspan><tspan x="-11.035" y="42" style="fill:#FFFFFF; font-family:'YanoneKaffeesatz-Light'; font-size:21px;">ismod tincidunt ut laoreet dolore magna ali</tspan><tspan x="368.033" y="42" style="fill:#FFFFFF; font-family:'YanoneKaffeesatz-Light'; font-size:21px;">-</tspan></text>
	<rect x="218.926" y="651.058" style="fill:none;" width="157.495" height="40.079"/>
	<text transform="matrix(1 0 0 1 232.3175 676.6172)" style="fill:#FFFFFF; font-family:'YanoneKaffeesatz-Bold'; font-size:36px;">APRIL 23</text>
	<g>
		<g>
			<text transform="matrix(1 0 0 1 35.7188 808.5967)"><tspan x="0" y="0" style="fill:#FFFFFF; font-family:'Montserrat-Regular'; font-size:16.884px;">◆</tspan><tspan x="10.13" y="0" style="fill:#FFFFFF; font-family:'YanoneKaffeesatz-Light'; font-size:16.884px;">  Lorem ipsum</tspan></text>
			<text transform="matrix(1 0 0 1 446.568 808.5967)"><tspan x="0" y="0" style="fill:#FFFFFF; font-family:'Montserrat-Regular'; font-size:16.884px;">◆</tspan><tspan x="10.13" y="0" style="fill:#FFFFFF; font-family:'YanoneKaffeesatz-Light'; font-size:16.884px;"> Dolor sit amet</tspan></text>
			<text transform="matrix(1 0 0 1 172.4 808.5957)"><tspan x="0" y="0" style="fill:#FFFFFF; font-family:'Montserrat-Regular'; font-size:16.884px;">◆</tspan><tspan x="10.13" y="0" style="fill:#FFFFFF; font-family:'YanoneKaffeesatz-Light'; font-size:16.884px;">  Consectetuer</tspan></text>
			<text transform="matrix(1 0 0 1 308.3082 808.5957)"><tspan x="0" y="0" style="fill:#FFFFFF; font-family:'Montserrat-Regular'; font-size:16.884px;">◆</tspan><tspan x="10.13" y="0" style="fill:#FFFFFF; font-family:'YanoneKaffeesatz-Light'; font-size:16.884px;"> Adipiscing elit</tspan></text>
		</g>
	</g>
	<g>
		<g>
			<path style="fill:#5EA4A3;" d="M142.995,263.951c0,0-7.344,81.74,82.922,94.051C225.917,358.002,233.801,272.052,142.995,263.951
				z"/>
			<path style="opacity:0.6;fill:#FFFFFF;" d="M222.563,354.031l-14.382-16.08l-23.409-5.253c-0.162-0.037-0.268-0.195-0.237-0.36
				c0.032-0.168,0.194-0.279,0.362-0.247l21.686,4.074l-16.847-18.837l-24.574-4.439c-0.179-0.033-0.302-0.202-0.274-0.384
				c0.028-0.184,0.201-0.311,0.385-0.283l23.055,3.531l-19.792-22.129l-16.269-3.385c-0.146-0.031-0.243-0.172-0.217-0.32
				c0.027-0.151,0.171-0.252,0.322-0.225l15.028,2.661l-22.171-24.789c-0.149-0.167-0.137-0.423,0.029-0.574
				c0.167-0.152,0.425-0.141,0.578,0.026l22.189,24.243l-3.05-15.364c-0.023-0.119,0.051-0.237,0.171-0.265
				c0.122-0.029,0.244,0.047,0.273,0.169l3.975,16.955l19.932,21.777l-2.8-23.578c-0.022-0.187,0.109-0.36,0.297-0.387
				c0.191-0.028,0.368,0.105,0.396,0.296l3.663,25.368l17.387,18.996l0.825-21.932c0.005-0.134,0.116-0.243,0.252-0.243
				c0.14,0,0.253,0.112,0.253,0.252l0.071,23.453l14.49,15.831c0.001,0.002,0.007,0.008,0.008,0.009
				c0.396,0.443,0.358,1.123-0.085,1.52C223.64,354.512,222.959,354.474,222.563,354.031z"/>
		</g>
		<g>
			<path style="fill:#5EA4A3;" d="M496.581,470.559c0,0,6.014,79.16-86.173,100.271C410.408,570.83,400.274,493.471,496.581,470.559
				z"/>
			<path style="opacity:0.6;fill:#FFFFFF;" d="M413.892,566.599l14.949-17.147l24.611-5.851c0.17-0.041,0.28-0.209,0.245-0.382
				c-0.036-0.177-0.208-0.292-0.385-0.256l-22.811,4.585l17.511-20.086l25.851-5.009c0.189-0.037,0.315-0.217,0.284-0.408
				c-0.032-0.194-0.216-0.325-0.41-0.293l-24.261,4.031l20.572-23.597l17.108-3.786c0.154-0.034,0.254-0.185,0.224-0.341
				c-0.03-0.159-0.184-0.263-0.342-0.233l-15.809,3.007l23.044-26.433c0.155-0.178,0.139-0.448-0.038-0.605
				c-0.178-0.159-0.45-0.143-0.609,0.035l-23.071,25.857l3.01-16.24c0.023-0.126-0.057-0.249-0.184-0.277
				c-0.129-0.029-0.257,0.053-0.285,0.182l-3.964,17.93l-20.725,23.227l2.637-24.897c0.021-0.198-0.12-0.378-0.318-0.404
				c-0.202-0.026-0.387,0.116-0.413,0.317l-3.523,26.796l-18.078,20.261l-1.162-23.113c-0.007-0.142-0.125-0.254-0.269-0.253
				c-0.147,0.001-0.265,0.122-0.264,0.269l0.239,24.729l-15.066,16.885c-0.002,0.002-0.007,0.008-0.009,0.01
				c-0.412,0.472-0.363,1.189,0.11,1.601C412.763,567.121,413.48,567.072,413.892,566.599z"/>
		</g>
		<g>
			<path style="fill:#F9B132;" d="M192.705,428.318c16.769-16.955,11.099-36.401-3.47-46.416
				c-19.057-13.1-33.708,1.722-41.636-0.331c-9.263-2.398-11.886-11.261-24.075-11.998c-14.111-0.852-19.266,5.061-24.782,2.98
				c-0.992,17.118,11.666,17.943,14.375,25.13c2.316,6.142-1.194,17.976,11.817,25.428c9.177,5.256,14.445-1.794,19.38,0.891
				c4.936,2.686,3.996,16.285,18.494,21.915S194.192,441.607,192.705,428.318z"/>
			<path style="opacity:0.6;fill:#FFFFFF;" d="M223.011,436.686l-0.007,0c-2.841,0.144-5.686,0.013-8.481-0.441
				c-2.796-0.451-5.537-1.226-8.183-2.276c-5.304-2.097-10.2-5.245-14.886-8.692c-3.144-2.316-6.221-4.758-9.307-7.207
				l-10.103-36.496c-0.035-0.124-0.161-0.201-0.288-0.173c-0.131,0.029-0.214,0.159-0.185,0.291l7.547,33.986
				c-0.514-0.405-1.025-0.811-1.541-1.214c-4.647-3.625-9.398-7.154-14.366-10.372c-2.011-1.323-4.076-2.569-6.158-3.777
				l-7.631-14.964c-0.058-0.112-0.193-0.164-0.311-0.115c-0.124,0.052-0.184,0.194-0.132,0.319l5.519,13.315
				c-2.205-1.217-4.407-2.437-6.64-3.599c-2.594-1.396-5.228-2.712-7.849-4.053c-2.642-1.3-5.277-2.612-7.941-3.864
				c-0.413-0.196-0.827-0.387-1.24-0.582l-6.861-13.016c-0.061-0.115-0.203-0.163-0.322-0.106c-0.121,0.059-0.172,0.204-0.113,0.326
				l5.857,12.122c-9.772-4.564-19.693-8.798-29.818-12.514c-0.124-0.045-0.262,0.016-0.31,0.139
				c-0.05,0.125,0.011,0.267,0.136,0.316l0.004,0.001c5.453,2.166,10.833,4.532,16.18,6.953c4.503,2.037,8.968,4.155,13.398,6.341
				l-14.2,4.411c-0.125,0.039-0.198,0.17-0.163,0.297c0.036,0.13,0.17,0.206,0.3,0.17l15.366-4.234
				c0.397,0.197,0.796,0.392,1.192,0.59c2.629,1.303,5.227,2.666,7.83,4.017c2.582,1.391,5.178,2.756,7.73,4.2
				c2.422,1.326,4.804,2.721,7.192,4.104l-26.668,12.627c-0.117,0.056-0.171,0.195-0.12,0.315c0.052,0.124,0.196,0.182,0.319,0.13
				l28.335-11.965c2.029,1.218,4.037,2.467,5.997,3.796c4.855,3.242,9.501,6.794,14.069,10.461c0.726,0.582,1.45,1.169,2.173,1.757
				l-26.276,7.665c-0.122,0.036-0.198,0.161-0.17,0.287c0.029,0.131,0.159,0.215,0.291,0.185l28.412-6.297
				c3.076,2.512,6.162,5.033,9.354,7.455c4.721,3.564,9.738,6.939,15.369,9.225c2.806,1.141,5.746,1.999,8.748,2.507
				c3.002,0.513,6.059,0.676,9.089,0.546l0.011,0c0.8-0.041,1.416-0.722,1.375-1.523
				C224.493,437.261,223.811,436.645,223.011,436.686z"/>
			<path style="opacity:0.6;fill:#FFFFFF;" d="M134.724,400.854c0.206-1.256,3.984-1.905,4.551-0.886
				C139.842,400.987,134.487,402.3,134.724,400.854z"/>
			<path style="opacity:0.6;fill:#FFFFFF;" d="M174.552,426.317c0.206-1.256,3.984-1.905,4.551-0.886
				C179.67,426.45,174.315,427.763,174.552,426.317z"/>
			<path style="opacity:0.6;fill:#FFFFFF;" d="M171.449,403.874c-1.269-0.097-2.239-3.807-1.272-4.459
				C171.144,398.764,172.91,403.986,171.449,403.874z"/>
			<path style="opacity:0.6;fill:#FFFFFF;" d="M144.3,389.72c-1.235,0.309-3.328-2.903-2.617-3.827
				C142.393,384.969,145.721,389.364,144.3,389.72z"/>
			<path style="opacity:0.6;fill:#FFFFFF;" d="M118.51,377.94c-0.611,0.153-1.789-1.594-1.296-1.895
				C117.886,375.635,119.213,377.763,118.51,377.94z"/>
			<path style="opacity:0.6;fill:#FFFFFF;" d="M121.003,379.133c-0.627,0.063-1.539-1.836-1.008-2.062
				C120.72,376.762,121.725,379.061,121.003,379.133z"/>
			<path style="opacity:0.6;fill:#FFFFFF;" d="M113.082,385.588c0.214-1.113,3.593-1.596,4.072-0.675
				C117.633,385.834,112.835,386.869,113.082,385.588z"/>
		</g>
		<g>
			<path style="fill:#3D486C;" d="M443.901,397.062c11.279,15.903,52.691-8.213,51.28-43.47
				c-10.345,9.633-26.95,7.487-40.246,15.399C442.987,376.102,437.639,388.233,443.901,397.062z"/>
			<path style="fill:#3D486C;" d="M409.118,403.083c-14.054,3.823-27.922-25.691,16.557-50.112
				C427.873,366.119,427.868,397.982,409.118,403.083z"/>
			<path style="fill:#3D486C;" d="M419.827,432.387c2.813,16.991,27.446,26.761,51.185,9.291
				c-10.471-8.02-15.058-21.519-29.94-24.401C430.312,415.193,417.907,420.788,419.827,432.387z"/>
			<path style="fill:#3D486C;" d="M380.915,439.54c-5.939,1.708-16.49-5.543-12.995-20.204
				c2.847-11.944,12.319-13.672,15.622-22.861c4.185,0.015,15.272,9.043,12.037,24.86
				C393.509,431.454,386.952,437.805,380.915,439.54z"/>
			<path style="fill:#3D486C;" d="M395.69,458.851c-0.303,12.124,18.195,27.949,40.589,6.359
				C419.471,439.099,396.093,442.689,395.69,458.851z"/>
			<path style="fill:#526795;" d="M434.453,464.888c-0.025-0.135-0.154-0.225-0.289-0.2c-4.253,0.76-8.571,1.119-12.872,0.971
				c-4.298-0.134-8.579-0.739-12.707-1.882c-2.064-0.57-4.087-1.277-6.048-2.121c-1.967-0.829-3.868-1.811-5.678-2.934
				c-3.62-2.243-6.865-5.082-9.495-8.415c-0.788-1.002-1.521-2.05-2.201-3.129c3.774-4.917,7.913-9.559,12.322-13.936
				c0.417-0.414,0.839-0.823,1.26-1.233c2.389,1.208,4.982,2.059,7.643,2.406c2.874,0.391,5.775,0.234,8.575-0.215
				c5.609-0.928,10.86-2.842,16.278-3.83c2.702-0.508,5.443-0.777,8.179-0.673c2.734,0.098,5.453,0.577,8.072,1.403
				c2.617,0.84,5.114,2.039,7.495,3.432l1.768,1.081l1.703,1.185c0.282,0.2,0.573,0.389,0.848,0.599l0.818,0.64l1.637,1.281
				l0.011,0.008c0.106,0.083,0.259,0.066,0.345-0.038c0.087-0.106,0.072-0.263-0.035-0.35l-1.621-1.33l-0.811-0.665
				c-0.273-0.218-0.562-0.416-0.843-0.625l-1.696-1.239l-1.768-1.138c-2.386-1.47-4.906-2.754-7.575-3.679
				c-2.671-0.911-5.471-1.473-8.297-1.639c-2.827-0.173-5.668,0.041-8.446,0.498c-5.566,0.889-10.896,2.686-16.308,3.446
				c-2.7,0.37-5.419,0.446-8.06,0.025c-2.22-0.342-4.363-1.058-6.374-2.061c9.035-8.552,19.044-16.066,29.326-23.131
				c11.356-7.823,23.121-15.073,34.471-22.978c5.66-3.967,11.235-8.089,16.421-12.683c5.172-4.595,9.981-9.664,13.858-15.423
				c0.076-0.113,0.047-0.266-0.065-0.344c-0.113-0.078-0.268-0.049-0.346,0.064l-0.002,0.003
				c-3.904,5.669-8.726,10.649-13.914,15.163c-5.202,4.512-10.795,8.559-16.479,12.455c-11.398,7.764-23.236,14.89-34.708,22.617
				c-5.003,3.362-9.951,6.833-14.768,10.482c-1.132-2.178-2.11-4.439-2.823-6.798c-0.771-2.663-1.308-5.4-1.553-8.177
				c-0.214-2.779-0.191-5.58,0.043-8.371c0.264-2.79,0.741-5.561,1.375-8.3c1.293-5.477,3.268-10.794,5.663-15.91
				c1.204-2.556,2.521-5.061,3.941-7.507c1.422-2.442,2.929-4.85,4.586-7.129l0.005-0.006c0.079-0.109,0.057-0.262-0.051-0.344
				c-0.109-0.083-0.265-0.062-0.348,0.047c-1.731,2.275-3.29,4.654-4.777,7.084c-1.483,2.431-2.864,4.926-4.133,7.478
				c-2.527,5.108-4.643,10.444-6.08,15.991c-0.706,2.775-1.255,5.596-1.587,8.453c-0.303,2.86-0.39,5.747-0.229,8.633
				c0.192,2.885,0.687,5.75,1.436,8.555c0.723,2.595,1.754,5.093,2.962,7.504c-5.666,4.367-11.137,8.994-16.279,14.002
				c-4.316,4.196-8.396,8.649-12.148,13.372c-1.069-1.976-1.925-4.055-2.467-6.221c-0.508-2.037-0.747-4.139-0.71-6.246
				c0.032-2.109,0.342-4.215,0.801-6.296c0.901-4.178,2.524-8.209,3.69-12.438c0.578-2.112,0.982-4.314,0.944-6.545
				c-0.013-2.23-0.662-4.455-1.795-6.35c-0.066-0.109-0.205-0.153-0.322-0.096c-0.124,0.06-0.175,0.208-0.115,0.332l0.005,0.01
				c0.463,0.957,0.892,1.932,1.098,2.971c0.148,0.507,0.187,1.037,0.267,1.556c0.032,0.261,0.029,0.527,0.045,0.789
				c0.012,0.263,0.03,0.526,0.01,0.79c-0.045,2.115-0.534,4.204-1.157,6.253c-1.241,4.106-2.979,8.121-4.021,12.413
				c-0.525,2.14-0.865,4.347-0.933,6.577c-0.069,2.229,0.153,4.479,0.693,6.65c0.533,2.174,1.36,4.263,2.382,6.239
				c0.169,0.327,0.353,0.643,0.534,0.962c-0.217,0.281-0.438,0.559-0.653,0.842c-4.21,5.541-7.957,11.447-11.14,17.655l-0.005,0.01
				c-0.274,0.549-0.052,1.217,0.497,1.491c0.549,0.274,1.217,0.052,1.491-0.497l0.004-0.007c3.057-6.116,6.673-11.951,10.758-17.446
				c0.054-0.072,0.109-0.143,0.163-0.215c0.626,0.948,1.298,1.865,2.006,2.753c2.77,3.461,6.174,6.394,9.943,8.693
				c1.884,1.151,3.858,2.153,5.894,2.995c2.04,0.833,4.138,1.513,6.267,2.055c4.26,1.075,8.642,1.628,13.019,1.632
				c4.375-0.012,8.744-0.483,12.99-1.47C434.393,465.145,434.477,465.019,434.453,464.888z"/>
		</g>
		<g>
			<path style="fill:#3D486C;" d="M144.777,501.129c-9.289,13.097-43.395-6.764-42.233-35.801
				c8.52,7.934,22.195,6.166,33.145,12.682C145.53,483.866,149.935,493.857,144.777,501.129z"/>
			<path style="fill:#3D486C;" d="M173.424,506.087c11.574,3.149,22.995-21.159-13.636-41.271
				C157.977,475.645,157.982,501.886,173.424,506.087z"/>
			<path style="fill:#3D486C;" d="M164.604,530.221c-2.316,13.994-22.604,22.04-42.154,7.652
				c8.624-6.605,12.401-17.722,24.657-20.096C155.969,516.061,166.185,520.668,164.604,530.221z"/>
			<path style="fill:#3D486C;" d="M196.651,536.113c4.891,1.407,13.581-4.565,10.703-16.64c-2.345-9.836-10.146-11.26-12.866-18.828
				c-3.447,0.013-12.578,7.448-9.913,20.474C186.279,529.453,191.679,534.683,196.651,536.113z"/>
			<path style="fill:#3D486C;" d="M184.483,552.016c0.249,9.985-14.985,23.018-33.428,5.237
				C164.898,535.749,184.151,538.706,184.483,552.016z"/>
			<path style="fill:#526795;" d="M152.559,556.988c0.02-0.111,0.127-0.185,0.238-0.164c3.503,0.626,7.059,0.921,10.601,0.8
				c3.54-0.11,7.065-0.609,10.465-1.55c1.7-0.47,3.366-1.052,4.981-1.746c1.62-0.683,3.186-1.492,4.676-2.417
				c2.981-1.847,5.654-4.185,7.82-6.93c0.649-0.826,1.253-1.688,1.812-2.577c-3.108-4.05-6.517-7.873-10.148-11.477
				c-0.343-0.341-0.691-0.678-1.038-1.015c-1.967,0.995-4.103,1.695-6.294,1.981c-2.367,0.322-4.756,0.193-7.062-0.177
				c-4.619-0.765-8.944-2.341-13.406-3.154c-2.225-0.419-4.483-0.64-6.736-0.554c-2.252,0.081-4.491,0.475-6.648,1.156
				c-2.155,0.692-4.212,1.679-6.173,2.826l-1.456,0.89l-1.403,0.976c-0.232,0.165-0.472,0.32-0.698,0.493l-0.674,0.527l-1.348,1.055
				l-0.009,0.007c-0.087,0.068-0.214,0.055-0.284-0.031c-0.072-0.087-0.059-0.216,0.028-0.288l1.335-1.095l0.668-0.548
				c0.225-0.18,0.463-0.343,0.694-0.515l1.397-1.02l1.456-0.937c1.965-1.211,4.041-2.268,6.239-3.03
				c2.2-0.751,4.506-1.213,6.834-1.35c2.329-0.143,4.668,0.034,6.956,0.41c4.584,0.732,8.974,2.212,13.431,2.838
				c2.224,0.304,4.463,0.367,6.638,0.021c1.828-0.282,3.593-0.871,5.25-1.697c-7.441-7.043-15.684-13.232-24.152-19.051
				c-9.352-6.443-19.042-12.414-28.389-18.924c-4.662-3.267-9.253-6.662-13.524-10.445c-4.26-3.784-8.22-7.959-11.413-12.702
				c-0.063-0.093-0.039-0.219,0.054-0.283c0.093-0.064,0.221-0.041,0.285,0.052l0.002,0.003c3.215,4.669,7.186,8.77,11.459,12.488
				c4.284,3.716,8.89,7.049,13.572,10.258c9.387,6.394,19.137,12.263,28.584,18.627c4.12,2.769,8.195,5.627,12.162,8.633
				c0.932-1.794,1.737-3.656,2.325-5.599c0.635-2.193,1.077-4.447,1.279-6.735c0.177-2.289,0.158-4.595-0.035-6.895
				c-0.217-2.297-0.61-4.58-1.133-6.836c-1.065-4.51-2.692-8.89-4.664-13.103c-0.991-2.105-2.076-4.168-3.246-6.183
				c-1.171-2.011-2.412-3.994-3.777-5.871l-0.004-0.005c-0.065-0.09-0.047-0.216,0.042-0.283c0.09-0.068,0.218-0.051,0.287,0.039
				c1.426,1.874,2.709,3.833,3.934,5.834c1.221,2.002,2.358,4.057,3.404,6.159c2.081,4.207,3.824,8.601,5.007,13.17
				c0.581,2.285,1.034,4.609,1.307,6.962c0.249,2.355,0.321,4.733,0.188,7.11c-0.158,2.376-0.566,4.736-1.183,7.046
				c-0.596,2.137-1.444,4.194-2.44,6.18c4.667,3.597,9.172,7.407,13.407,11.532c3.554,3.456,6.915,7.123,10.005,11.013
				c0.881-1.627,1.585-3.339,2.032-5.124c0.419-1.678,0.615-3.409,0.585-5.144c-0.026-1.737-0.282-3.471-0.66-5.185
				c-0.742-3.441-2.078-6.761-3.039-10.243c-0.476-1.739-0.809-3.553-0.778-5.391c0.011-1.837,0.545-3.669,1.479-5.23
				c0.054-0.09,0.169-0.126,0.265-0.079c0.102,0.049,0.144,0.172,0.095,0.273l-0.004,0.008c-0.381,0.788-0.735,1.592-0.904,2.447
				c-0.122,0.417-0.154,0.854-0.22,1.281c-0.026,0.215-0.024,0.434-0.037,0.65c-0.01,0.217-0.025,0.433-0.008,0.651
				c0.037,1.742,0.439,3.463,0.953,5.15c1.022,3.381,2.453,6.688,3.312,10.223c0.433,1.763,0.713,3.58,0.768,5.417
				c0.057,1.835-0.126,3.689-0.571,5.477c-0.439,1.79-1.12,3.511-1.961,5.138c-0.139,0.269-0.291,0.53-0.44,0.792
				c0.179,0.232,0.361,0.46,0.538,0.694c3.467,4.564,6.553,9.427,9.174,14.54l0.004,0.008c0.226,0.452,0.043,1.002-0.41,1.228
				c-0.452,0.226-1.002,0.043-1.228-0.41l-0.003-0.006c-2.517-5.037-5.495-9.843-8.86-14.368c-0.044-0.059-0.09-0.118-0.134-0.177
				c-0.516,0.781-1.069,1.536-1.652,2.268c-2.282,2.851-5.085,5.266-8.189,7.159c-1.552,0.948-3.177,1.773-4.854,2.466
				c-1.68,0.686-3.408,1.246-5.161,1.692c-3.508,0.885-7.117,1.341-10.722,1.344c-3.603-0.01-7.201-0.398-10.698-1.211
				C152.608,557.2,152.539,557.096,152.559,556.988z"/>
		</g>
		<g>
			<g>
				<g>
					<path style="fill:#F9B132;" d="M350.2,372.136c0,0,13.063-20.895,37.496-21.12c37.649-0.347,55.548-22.499,23.917-23.397
						c55.611-2.992,44.495-28.523,27.851-25.999c54.636-23.097,35.205-49.494-9.312-18.812c6.382-28.852-24.845-15.245-35.936,7.214
						C382.837,275.834,361.047,294.869,350.2,372.136z"/>
					<path style="opacity:0.6;fill:#FFFFFF;" d="M347.273,384.916l0.009-0.029c2.022-6.252,4.607-12.319,7.665-18.16
						c1.897-3.505,3.984-6.906,6.191-10.231c2.688-2.167,5.476-4.228,8.475-5.981c3.333-1.978,6.783-3.789,10.368-5.308
						c3.572-1.545,7.231-2.903,10.958-4.057c3.725-1.143,7.521-2.127,11.346-2.818l0.014-0.003c0.181-0.033,0.305-0.204,0.276-0.388
						c-0.029-0.186-0.203-0.314-0.39-0.286c-3.904,0.6-7.733,1.488-11.526,2.544c-3.789,1.065-7.52,2.34-11.179,3.81
						c-3.671,1.444-7.223,3.19-10.676,5.12c-1.54,0.848-3.03,1.783-4.49,2.765c0.438-0.61,0.864-1.227,1.309-1.831
						c3.977-5.286,8.321-10.295,12.877-15.108c1.198-1.252,2.417-2.483,3.651-3.7l1.61-1.23l1.443-1.103
						c0.494-0.35,1.004-0.677,1.505-1.017l3.021-2.022l3.13-1.854l1.568-0.924l1.614-0.841c1.079-0.555,2.146-1.135,3.236-1.671
						c2.206-1.015,4.395-2.073,6.662-2.955c4.5-1.837,9.11-3.427,13.809-4.702c4.694-1.28,9.472-2.318,14.296-2.941l0.008-0.001
						c0.085-0.011,0.146-0.088,0.136-0.173c-0.009-0.087-0.087-0.149-0.174-0.14c-4.869,0.533-9.674,1.481-14.418,2.676
						c-4.747,1.189-9.413,2.698-13.983,4.46c-2.301,0.845-4.529,1.868-6.776,2.85c-1.11,0.519-2.199,1.084-3.301,1.624l-1.648,0.819
						l-1.604,0.904l-3.204,1.816l-0.345,0.221c1.172-1.061,2.355-2.111,3.547-3.151c0.103-0.047,0.199-0.112,0.277-0.204
						c0.04-0.048,0.08-0.098,0.12-0.146c0.096-0.084,0.19-0.169,0.286-0.252c10.077-8.649,20.88-16.46,32.131-23.554
						c5.632-3.539,11.371-6.911,17.219-10.087c5.852-3.163,11.788-6.198,17.868-8.888l0.005-0.002
						c0.112-0.05,0.164-0.181,0.116-0.294c-0.049-0.115-0.181-0.168-0.296-0.119c-6.147,2.612-12.129,5.562-18.044,8.648
						c-5.908,3.097-11.712,6.394-17.415,9.862c-9.445,5.764-18.591,12.041-27.299,18.894c0.715-0.969,1.416-1.946,2.085-2.947
						c2.091-3.078,4.063-6.234,5.863-9.483c1.815-3.241,3.514-6.544,5.081-9.908c1.562-3.368,3.016-6.776,4.29-10.275
						c0.062-0.17-0.023-0.359-0.193-0.425c-0.172-0.067-0.365,0.019-0.431,0.19l-0.004,0.009c-1.328,3.429-2.848,6.804-4.466,10.116
						c-1.625,3.312-3.379,6.559-5.244,9.737c-1.851,3.187-3.867,6.273-5.995,9.272c-1.967,2.819-4.144,5.476-6.382,8.07
						c-5.092,4.29-10.046,8.757-14.729,13.51c-1.547,1.587-3.062,3.208-4.559,4.844c0.629-1.569,1.23-3.147,1.799-4.735
						c1.248-3.605,2.384-7.242,3.41-10.907c2.017-7.34,3.705-14.753,5.003-22.247c0.029-0.169-0.081-0.332-0.25-0.366
						c-0.172-0.035-0.34,0.076-0.375,0.249l-0.001,0.007c-1.5,7.418-3.391,14.768-5.598,22c-1.121,3.612-2.348,7.186-3.681,10.715
						c-1.308,3.351-2.737,6.648-4.338,9.847c-1.595,1.867-3.163,3.757-4.67,5.7c-4.066,5.341-7.824,10.928-11.116,16.806
						c-3.212,5.92-5.956,12.1-8.129,18.504c-0.001,0.004-0.005,0.015-0.006,0.019c-0.237,0.734,0.165,1.521,0.899,1.758
						C346.249,386.052,347.036,385.65,347.273,384.916z"/>
				</g>
			</g>
		</g>
	</g>
	<g>
		<path style="opacity:0.35;fill:#45577F;" d="M144.676,616.207c3.38,4.346,225.734,25.959,233.88,24.432
			s73.481-40.037,72.408-46.531c-1.074-6.494-206.255-31.221-225.808-28.277S139.332,609.336,144.676,616.207z"/>
		<path style="fill:#45577F;" d="M163.928,566.198c4.696,0.865,9.499,0.088,14.173,0.675c8.972,1.129,18.065,0.234,26.986,1.866
			c0.169,0.031,0.345,0.044,0.516,0.035c9.836-0.524,19.615,0.804,29.391,1.36c8.639,0.491,17.386-0.006,25.954,1.701
			c0.252,0.05,0.517,0.067,0.773,0.054c10.176-0.509,20.316,0.722,30.409,1.416c8.293,0.571,16.718-0.28,24.919,1.65
			c0.166,0.039,0.344,0.044,0.515,0.034c10.525-0.571,20.958,1.506,31.478,1.092c0.945-0.037,1.867-0.011,2.776-0.436
			c11.176-5.224,22.384-10.382,33.545-15.637c10.36-4.878,20.809-9.567,31.032-14.738c1.923-0.972,3.065-2.686,4.709-3.88
			c4.202,0.099,8.406,0.2,12.61,0.294c0.837,0.019,1.528,0.246,1.803,1.142c-0.385,0.871-1.216,1.183-1.982,1.571
			c-15.83,8.005-31.675,15.981-47.484,24.027c-5.223,2.658-10.333,5.535-15.541,8.224c-1.291,0.666-1.935,1.695-2.329,2.936
			c-2.308,7.264-3.694,14.686-3.221,22.335c0.33,5.345,1.378,10.582,3.831,15.398c1.138,2.234,2.853,4.104,5.08,5.366
			c0.505,0.286,0.841,0.54,0.905,1.107c-1.584,1.305-3.48,1.426-5.381,1.275c-16.6-1.323-33.199-2.657-49.794-4.032
			c-22.015-1.824-44.028-3.659-66.038-5.544c-18.829-1.612-37.651-3.309-56.477-4.952c-10.917-0.953-21.824-2.232-32.763-2.644
			c-4.95-0.187-7.702-2.271-9.69-6.244c-3.143-6.282-4.053-12.979-3.396-19.899c0.544-5.727,1.707-11.273,5.795-15.716
			C159.348,565.458,161.632,565.776,163.928,566.198z M293.032,580.731c4.812,0.291,9.637,0.372,14.453,0.601
			c1.971,0.094,3.935,0.344,5.905,0.487c1.501,0.109,1.269,1.003,1.033,2.018c-2.407,10.326-1.698,20.489,1.693,30.492
			c0.413,1.218,0.984,2.389,1.562,3.542c0.883,1.762,2.459,2.651,4.216,1.851c1.858-0.846,2.005-2.673,1.181-4.461
			c-1.481-3.215-2.647-6.524-3.444-9.981c-1.547-6.703-1.481-13.499-1.303-20.304c0.051-1.946,0.941-2.822,3.106-2.699
			c10.909,0.622,21.825,1.135,32.742,1.582c1.111,0.046,3.137,0.84,3.247-0.796c0.096-1.427-1.998-0.749-3.051-0.981
			c-3.192-0.703-6.499-0.394-9.761-0.69c-7.277-0.661-14.6-0.827-21.906-1.161c-1.711-0.078-3.193-0.183-2.378-2.59
			c0.217-0.642,0.103-1.496-0.674-1.778c-0.945-0.343-1.883,0.224-2.159,0.976c-1.155,3.151-3.33,2.892-6.068,2.502
			c-3.299-0.469-6.69-0.396-10.04-0.578c-10.989-0.595-21.967-1.302-32.947-2.041c-3.942-0.265-7.904-0.444-11.86-0.598
			c-1.32-0.052-1.996-0.268-2.09-1.836c-0.114-1.902-1.544-2.491-2.414-1.046c-2.157,3.583-5.51,2.496-8.312,2.165
			c-3.684-0.436-7.379-0.398-11.058-0.734c-7.791-0.711-15.637-0.817-23.458-1.206c-1.196-0.06-2.379-0.377-3.575-0.442
			c-1.479-0.082-3.025,0.445-2.583-2.255c0.268-1.637-1.458-2.207-2.985-1.783c-0.792,0.22-1.764,0.715-2.133,1.377
			c-1.673,3-4.429,2.113-6.874,2.005c-4.547-0.2-9.086-0.61-13.627-0.948c-4.111-0.306-8.219-0.644-12.33-0.943
			c-1.032-0.075-2.07-0.071-3.106-0.076c-0.843-0.004-1.632,0.236-1.692,1.208c-0.071,1.146,0.78,1.369,1.727,1.437
			c4.369,0.316,8.733,0.734,13.106,0.961c5.332,0.276,10.672,0.398,16.008,0.586c0.173,0.006,0.347-0.003,0.518,0.014
			c3.687,0.375,3.674,0.461,2.996,4.123c-0.794,4.287-0.46,8.638,0.345,12.842c1.083,5.653,2.693,11.192,6.031,16.066
			c1.143,1.668,2.529,2.154,4.172,1.273c1.684-0.903,2.117-2.467,1.129-4.199c-3.695-6.478-5.336-13.549-6.169-20.875
			c-0.268-2.358,0.238-4.629,0.5-6.93c0.125-1.098,0.931-1.328,1.884-1.326c5.856,0.01,11.686,0.519,17.524,0.884
			c4.723,0.295,9.466,0.343,14.178,0.748c4.363,0.375,8.755,0.241,13.106,0.886c1.412,0.209,1.781,0.426,1.532,2.002
			c-1.325,8.381-1.247,16.746,0.951,25.005c0.691,2.595,1.812,5.037,3.178,7.332c0.96,1.613,2.364,2.605,4.304,1.359
			c1.85-1.189,1.853-3.069,0.859-4.537c-2.745-4.055-3.766-8.698-4.58-13.309c-0.848-4.805-1.039-9.707-0.28-14.645
			c0.34-2.214,1.111-2.808,3.095-2.632c1.114,0.099,2.244,0.018,3.366,0.018c0.003-0.036,0.005-0.073,0.008-0.109
			C270.899,579.303,281.963,580.062,293.032,580.731z"/>
		<path style="fill:#DDDAD3;" d="M158.408,529.417c23.806,0.206,47.614,0.298,71.417,0.69c22.597,0.372,45.195,0.313,67.792,0.504
			c17.249,0.146,34.498,0.329,51.746,0.496c1.035,4.018,0.694,8.172,0.917,12.236c0.45,8.19,1.424,16.368,1.174,24.594
			c-0.016,0.521,0.021,1.034,0.458,1.412c-2.533,2.046-5.486,1.021-8.197,0.884c-13.26-0.673-26.508-1.595-39.762-2.379
			c-16.958-1.002-33.917-1.982-50.878-2.923c-14.553-0.808-29.111-1.509-43.663-2.328c-16.185-0.911-32.365-1.911-48.549-2.846
			c-2.821-0.163-5.688-0.604-8.372,0.783c0.877-1.171,1.708-2.265,2.131-3.799c1.748-6.346,0.991-12.792,0.742-19.159
			c-0.117-2.983-0.022-6.458-2.567-8.936C154.626,529.192,156.496,529.4,158.408,529.417z M343.701,549.695
			c-4.043-0.057-8.095-0.397-12.113-0.408c-9.14-0.024-18.261-0.534-27.389-0.755c-10.923-0.264-21.856-0.555-32.768-1.063
			c-6.378-0.296-12.751-0.058-19.109-0.426c-11.09-0.641-22.202-0.618-33.285-1.14c-7.991-0.376-16.012,0.096-23.975-0.877
			c-0.594-0.073-1.209-0.025-1.809,0.028c-0.639,0.057-1.233,0.291-1.19,1.067c0.034,0.606,0.542,0.834,1.079,0.914
			c0.339,0.051,0.688,0.041,1.033,0.049c8.094,0.178,16.193,0.243,24.283,0.559c12.561,0.49,25.129,0.715,37.688,1.148
			c5.247,0.181,10.5,0.135,15.743,0.388c12.557,0.607,25.124,0.838,37.689,1.169c4.722,0.124,9.472,0.041,14.185,0.414
			c6.712,0.531,13.426,0.458,20.144,0.462c0.834,0.001,1.716,0.232,2.769-0.435C345.708,549.894,344.724,549.709,343.701,549.695z
			 M293.84,562.068c0.422,0.065,0.862,0.036,1.293,0.027c0.697-0.014,1.635-0.036,1.6-0.88c-0.041-0.982-1.063-0.616-1.678-0.637
			c-7.475-0.254-14.927-0.899-22.406-1.158c-6.691-0.232-13.387-0.649-20.079-1.006c-10.039-0.536-20.078-1.054-30.119-1.544
			c-10.299-0.503-20.593-1.103-30.896-1.574c-7.988-0.365-15.963-0.938-23.967-1.013c-2.04-0.019-4.077-0.602-6.154-0.439
			c-0.528,0.041-1.089,0.101-1.077,0.808c0.009,0.538,0.453,0.65,0.9,0.721c1.016,0.162,2.026,0.448,3.046,0.492
			c5.071,0.221,10.156,0.223,15.215,0.593c10.806,0.79,21.637,1.013,32.445,1.632c6.089,0.349,12.185,0.57,18.275,0.866
			c12.538,0.61,25.066,1.45,37.623,1.724c2.288,0.05,4.615,0.363,6.941,0.275C281.11,562.039,287.525,561.091,293.84,562.068z
			 M333.504,538.35c-8.061-0.543-16.153-0.621-24.214-1.167c-8.674-0.587-17.345-1.006-26.037-0.989
			c-7.148,0.015-14.274-0.773-21.434-0.506c-10.747,0.401-21.499,0.692-32.248,1.023c-0.704,0.022-1.37,0.106-2.01,0.688
			c1.43,0.875,2.964,0.932,4.514,0.877c20.087-0.711,40.183-0.705,60.272-0.437c11.166,0.149,22.343,0.727,33.474,1.622
			c4.624,0.372,9.298-0.176,13.88,0.847c0.838,0.187,1.829,0.234,3.172-0.526C339.569,538.337,336.456,538.549,333.504,538.35z
			 M162.642,541.378c5.762,0.181,11.523,0.402,17.286,0.517c10.594,0.213,21.206,0.06,31.777,0.654
			c6.206,0.348,12.412-0.027,18.579,0.486c4.133,0.344,8.248,0.372,12.375,0.414c0.696,0.007,1.86,0.338,1.834-0.784
			c-0.025-1.091-1.183-0.761-1.881-0.739c-10.604,0.337-21.184-0.711-31.783-0.531c-12.068,0.204-24.115-0.655-36.184-0.665
			c-4.345-0.004-8.707-0.288-13.299-0.393C161.774,541.447,162.242,541.365,162.642,541.378z M345.312,559.45
			c-0.003-1.599-1.901-0.882-2.974-0.93c-9.103-0.403-18.218-0.582-27.311-1.133c-7.982-0.484-15.956-0.978-23.955-0.987
			c-2.148-0.003-4.238-0.778-6.411-0.5c-0.566,0.072-1.394-0.152-1.445,0.682c-0.064,1.065,0.888,0.866,1.513,0.854
			c3.273-0.063,6.523,0.369,9.778,0.466c6.45,0.193,12.921,0.345,19.342,0.745c9.517,0.593,19.063,0.482,28.701,1.402
			C343.413,559.742,345.315,560.603,345.312,559.45z"/>
		<path style="fill:#EEEFEB;" d="M403.836,413.184c-49.546,0.226-99.091,0.41-148.637,0.654c-3.092,0.015-6.181,0.519-9.287,0.204
			c-1.451-0.283-1.22-1.419-1.221-2.426c-0.005-3.256-0.125-6.518,0.027-9.767c0.274-5.826-0.619-11.604-0.544-17.417
			c0.695-0.044,1.391-0.088,2.086-0.132l-0.039,0.184c0.353,0.404,0.705,0.441,1.054-0.005c1.276-0.185,2.548-0.501,3.828-0.535
			c15.699-0.421,31.4-0.79,47.1-1.193c20.875-0.535,41.75-1.068,62.625-1.639c16.386-0.448,50.146-0.833,49.297-0.911
			c-1.712-0.157-2.485,0.568-2.775,2.252c-0.219,1.271-0.493,2.51-0.462,3.814c0.112,4.692-1.075,9.38-0.02,14.085
			c0.162,0.724-0.06,1.535-0.107,2.306c-0.234,3.832,0.165,7.5,2.733,10.611C407.603,413.842,405.725,413.176,403.836,413.184z
			 M397.524,387.597c-2.896,0.795-5.864,0.563-8.743,0.31c-10.766-0.947-21.548-0.533-32.302-0.31
			c-8.928,0.185-17.886,0.444-26.789,1.051c-9.235,0.63-18.489,1.056-27.723,1.821c-11.847,0.981-23.765,0.737-35.655,0.606
			c-3.583-0.04-7.147,1.305-10.753,0.092c-0.572-0.192-1.261,0.177-1.309,0.913c-0.049,0.757,0.57,1.051,1.208,1.049
			c3.099-0.009,6.204,0.266,9.296-0.162c0.932-0.129,1.881-0.35,2.805-0.287c7.468,0.509,14.944,0.067,22.395-0.137
			c9.763-0.267,19.521-1.048,29.269-1.846c3.324-0.272,6.671-0.731,10.024-0.624c7.671,0.244,15.362-0.161,22.962-0.745
			c7.743-0.595,15.478-1.137,23.18-0.69c6.724,0.39,13.429,0.174,20.137,0.393c1.536,0.05,2.982-0.218,4.644-1.002
			C399.16,387.263,398.294,387.386,397.524,387.597z M396.015,401.997c-7.168-0.023-14.336-0.014-21.504-0.014
			c-16.366,0-32.746-0.416-49.095,0.119c-16.568,0.542-33.125,0.14-49.684,0.423c-0.93,0.016-1.866,0.255-2.781,0.469
			c-0.569,0.133-1.659-0.333-1.512,0.794c0.106,0.816,1.033,0.909,1.705,0.681c2.2-0.743,4.455-0.305,6.682-0.41
			c4.295-0.203,8.611,0.377,12.895-0.488c2.142-0.432,4.272,0.292,6.406,0.493c3.121,0.295,6.164-0.635,9.264-0.521
			c12.653,0.463,25.319,0.21,37.954-0.147c12.249-0.346,24.489-0.346,36.73-0.304c5.352,0.018,10.695,0.494,16.096-0.321
			C398.272,401.691,397.086,402,396.015,401.997z M289.172,395.885c-5.063,0.089-10.101-0.087-15.15-0.141
			c-3.62-0.039-7.233,1.17-10.796,0.463c-3.648-0.724-7.177,0.359-10.763,0.098c-0.729-0.053-1.822-0.111-1.733,0.966
			c0.077,0.93,1.131,0.583,1.728,0.54c15.419-1.113,30.864-0.028,46.282-0.549c12.654-0.428,25.291,0.233,37.937,0.207
			c4.078-0.009,8.244,0.085,12.35,0.512c0.476,0.049,1.112,0.472,1.215-0.322c0.118-0.898-0.681-0.806-1.262-0.848
			c-2.996-0.215-5.968-0.854-8.7-0.483C323.051,395.638,306.106,395.586,289.172,395.885z M249.196,409
			c29.304-0.245,58.59,1.093,87.895,0.716C307.801,408.636,278.507,407.742,249.196,409z M386.394,408.703
			c-12.857,0.051-25.714,0.021-38.571,0.02c-0.604,0-1.209-0.015-1.812,0.016c-0.409,0.021-0.957-0.033-0.999,0.547
			c-0.047,0.648,0.486,0.856,1.01,0.926c0.51,0.068,1.033,0.055,1.55,0.055c14.497,0.003,28.993,0.007,43.49-0.004
			c0.821-0.001,1.716,0.213,2.777-0.76C391.159,409.001,388.812,408.693,386.394,408.703z"/>
		<path style="fill:#DDDAD3;" d="M201.834,481.66c9.494,0.169,18.992,0.069,28.488,0.162c16.393,0.162,32.792,0.17,49.176,0.656
			c12.426,0.368,24.856,0.032,37.27,0.493c8.282,0.308,16.558,0.348,24.838,0.375c0.471,0.498,1.089,0.427,1.683,0.427
			c9.082,0,18.164-0.004,27.247-0.007c1.942,6.003,3.357,12.042,2.276,18.454c-0.365,2.168-0.063,4.445-0.11,6.671
			c-0.035,1.656,1.213,1.31,2.159,1.459c-1.327,0.881-2.833,0.257-4.235,0.507c-12.422-0.213-24.85-0.253-37.263-0.715
			c-5.952-0.222-11.898-0.258-17.846-0.341c-17.343-0.242-34.694-0.204-52.029-0.692c-15.447-0.435-30.899-0.015-46.334-0.521
			c-10.526-0.345-21.05-0.176-31.571-0.445c0.617-0.942,2.292,0.195,2.642-1.499c0.945-4.574,0.428-9.217,0.716-13.819
			c0.227-3.632-0.469-7.322-0.755-10.987C192.726,480.988,197.277,481.578,201.834,481.66z M193.943,496.837
			c1.171,0.289,2.335,0.506,3.563,0.501c6.817-0.027,13.647-0.261,20.448,0.08c8.354,0.419,16.727,0.037,25.049,0.569
			c7.158,0.458,14.308-0.041,21.432,0.455c7.492,0.521,15.004,0.021,22.462,0.56c8.536,0.618,17.055,0.179,25.577,0.414
			c1.124,0.031,2.223,0.077,3.318,0.395c0.514,0.149,1.112-0.125,1.18-0.721c0.088-0.77-0.604-0.699-1.085-0.701
			c-3.097-0.009-6.197-0.443-9.261-0.434c-12.586,0.038-25.159-0.526-37.735-0.748c-14.371-0.253-28.745-0.657-43.115-1.053
			c-6.02-0.166-12.067,0.053-18.059-0.468c-4.307-0.374-8.595-0.338-12.893-0.409c-0.687-0.011-1.632-0.324-1.824,0.805
			C193.087,496.673,193.521,496.733,193.943,496.837z M321.627,505.795c7.144,0.189,14.307-0.081,21.427,0.446
			c4.564,0.338,9.11,0.374,13.668,0.404c0.606,0.004,1.63,0.368,1.679-0.619c0.042-0.852-0.897-0.857-1.587-0.895
			c-0.172-0.009-0.345-0.014-0.517-0.008c-8.362,0.317-16.699-0.635-25.053-0.507c-10.258,0.157-20.501-0.463-30.746-0.708
			c-6.796-0.163-13.623,0.134-20.389-0.444c-6.55-0.561-13.094-0.114-19.619-0.513c-2.742-0.168-5.479-0.469-8.23-0.406
			c-0.839,0.019-2.222-0.509-2.258,0.935c-0.042,1.687,1.478,1.033,2.367,1.081c1.807,0.097,3.625,0.092,5.435,0.026
			c9.484-0.348,18.938,0.8,29.893,0.46C298.026,505.274,309.833,505.482,321.627,505.795z M356.229,490.647
			c-9.579-0.096-19.168,0.198-28.738-0.111c-15.171-0.491-30.352-0.101-45.51-0.599c-7.927-0.26-15.852-0.053-23.765-0.437
			c-2.74-0.133-5.472-0.541-8.23-0.441c-0.655,0.024-1.532-0.152-1.536,0.882c-0.004,0.863,0.693,1.12,1.434,1.16
			c0.689,0.038,1.38,0.02,2.071,0.02c13.378,0.004,26.768-0.359,40.13,0.106c15.867,0.553,31.737-0.062,47.583,0.546
			c7.757,0.298,15.502,0.162,23.25,0.379c0.901,0.025,1.804,0.003,2.706,0.003c0-0.277,0.001-0.555,0.001-0.832
			C362.493,491.087,359.363,490.678,356.229,490.647z"/>
		<path style="fill:#C27F20;" d="M417.359,465.102c-10.867,0.891-21.776,1.309-32.623,2.376c-7.436,0.731-14.909,1.199-22.303,2.108
			c-8.716,1.072-17.491,0.821-26.176,1.955c-0.641,0.084-1.217,0.115-1.304,0.919c-3.279,0.021-6.67-0.489-9.818,0.166
			c-8.295,1.726-16.642,1.03-24.902,0.642c-5.535-0.26-11.186-0.148-16.614-1.056c-4.288-0.717-8.634,0.008-12.708-0.991
			c-4.291-1.053-8.504-0.601-12.749-0.833c-0.568-0.581-1.264-0.907-2.071-0.922c-4.808-0.087-9.583-0.567-14.372-0.95
			c-8.818-0.705-17.657-1.12-26.461-2.105c-3.326-0.372-6.724-0.105-10.09-0.133c-3.594-0.03-4.07-0.518-3.957-4.032
			c0.343-0.609,0.871-1.004,1.492-1.294c0.183,0.06,0.365,0.121,0.548,0.181c-0.135,1.173,0.167,1.797,1.524,2.146
			c3.216,0.827,6.53,0.58,9.735,0.72c6.697,0.293,13.368,0.959,20.054,1.333c10.274,0.575,20.549,1.306,30.814,2.064
			c7.013,0.518,14.04,0.854,21.046,1.461c6.422,0.556,12.842,1.062,19.293,1.002c0.902-0.008,1.92,0.373,2.674-0.504
			c3.449,0.103,4.038-2.885,4.457-5.009c1.988-10.075,2.274-20.223-0.714-30.181c-1.597-5.322-1.809-5.254-7.327-5.259
			c-31.415-0.03-62.83-0.062-94.246-0.092c-2.068-0.002-4.135,0.007-6.202,0.012c-1.437-0.796-2.308-1.919-2.109-3.658
			c2.603-1.692,5.538-1.394,8.421-1.401c11.34-0.026,22.681-0.05,34.021-0.075c11.939,0.073,23.878,0.133,35.817,0.246
			c0.928,0.009,2.113-0.561,2.748,0.72c-2.512,0.563-4.957-0.338-7.443-0.34c-22.616-0.017-45.232-0.039-67.848-0.015
			c-1.017,0.001-2.879-0.587-2.878,0.69c0.001,1.336,1.887,1.328,3.146,1.331c10.013,0.016,20.027,0.013,30.04,0.013
			c23.22,0.001,46.443,0.166,69.659-0.141c4.575-0.06,6.661,1.726,8.262,5.449c5.25,12.203,4.971,24.202-0.96,36.096
			c-0.446,0.895-1.859,2.253-0.608,2.876c1.477,0.736,2.01-1.113,2.524-2.243c2.848-6.266,4.423-12.816,4.236-19.732
			c-0.214-7.897-2.19-15.269-6.614-21.9c-0.429-0.642-0.79-1.329-1.183-1.996c13.45,0,26.9-0.018,40.35,0.006
			c16.904,0.03,33.809,0.083,50.713,0.163c1.847,0.009,3.72-0.299,5.53,0.655c0.714,0.376,1.878,0.446,2.521-0.582
			c3.44,0.157,6.884,0.339,10.33,0.457c1.991,0.068,3.298,0.87,4.176,2.77c2.218,4.801,3.018,9.9,3.093,15.073
			c0.1,6.914-0.585,13.743-4.34,19.854C423.307,464.706,420.269,464.863,417.359,465.102z M323.78,432.324
			c2.674,10.391,4.149,20.853,1.332,31.507c-0.301,1.139-1.083,1.946-1.401,3.005c-0.478,1.593-0.517,2.996,1.741,3.042
			c6.71,0.137,13.361-0.717,20.036-1.175c3.366-0.231,4.387-2.916,5.306-5.186c2.591-6.396,2.747-13.144,2.022-19.953
			c-0.357-3.357-1.312-6.534-2.407-9.686c-1.224-3.523-2.562-4.151-6.28-4.489c-5.733-0.522-11.508-0.113-17.133-0.967
			C323.286,428.399,322.932,429.026,323.78,432.324z M401.466,455.764c-0.633,2.138,0.014,3.254,2.204,3.204
			c4.728-0.108,9.456-0.305,14.18-0.534c1.717-0.083,2.528-1.399,3.019-2.815c2.313-6.667,1.876-13.346-0.054-20.011
			c-0.481-1.661-1.898-1.864-3.273-1.989c-4.313-0.392-8.582,0.529-12.885,0.501c-1.189-0.008-1.407,0.709-1.396,1.693
			c0.022,1.899,0.006,3.798,0.006,6.432C403.656,446.386,402.84,451.122,401.466,455.764z M362.652,466.037
			c4.234-12.612,3.157-24.66-3.938-36.039c-0.395-0.633-0.827-1.66-1.666-1.248c-0.859,0.422-0.299,1.354,0.012,2.047
			c4.857,10.823,5.027,21.706,0.467,32.669c-1.254,3.016-0.395,4.911,2.198,4.854C361.355,468.507,362.19,467.413,362.652,466.037z"
			/>
		<path style="fill:#DDDAD3;" d="M306.614,468.449c-3.468,0.136-6.829-0.828-10.268-0.986c-11.772-0.54-23.493-1.805-35.264-2.452
			c-8.998-0.494-17.997-1.297-26.986-2.035c-9.414-0.773-18.831-1.474-28.255-2.104c-0.768-0.051-1.542,0.001-2.314,0.006
			c-0.111-0.127-0.224-0.252-0.339-0.376c0.725-0.993,0.538-2.142,0.547-3.253c0.082-9.477-0.273-18.964,0.623-28.424
			c2.067-0.004,4.135-0.013,6.202-0.012c31.415,0.03,62.831,0.062,94.246,0.092c5.518,0.005,5.73-0.062,7.327,5.259
			c2.988,9.958,2.702,20.106,0.714,30.181c-0.419,2.124-1.008,5.112-4.457,5.009C307.915,468.823,307.363,468.42,306.614,468.449z
			 M216.414,433.135c-0.421-0.07-0.864-0.055-1.292-0.024c-0.627,0.046-1.27,0.207-1.307,0.965
			c-0.037,0.773,0.592,0.964,1.222,1.049c1.359,0.182,2.716,0.446,4.082,0.51c4.726,0.221,9.456,0.545,14.183,0.512
			c9.564-0.068,19.074,0.962,28.627,1.2c8.592,0.214,17.198,0.561,25.776,1.065c4.965,0.292,9.986-0.181,14.918,0.815
			c0.996,0.201,2.066,0.055,3.101,0.033c0.542-0.011,1.068-0.159,0.991-0.867c-0.059-0.546-0.534-0.604-0.968-0.641
			c-2.051-0.178-4.103-0.488-6.155-0.498c-9.728-0.05-19.408-1.102-29.145-1.203c-6.77-0.07-13.564-0.585-20.338-0.996
			c-6.608-0.401-13.214-0.716-18.246-0.964C225.63,434.19,221.006,433.894,216.414,433.135z M286.056,456.966
			c-7.113-1.063-14.277-1.812-21.432-2.564c-4.692-0.493-9.409-0.753-14.116-1.105c-9.154-0.685-18.307-1.382-27.465-2.026
			c-1.89-0.133-3.796-0.069-5.694-0.059c-0.652,0.004-1.556-0.157-1.547,0.867c0.009,1.018,0.862,1.159,1.677,1.187
			c2.747,0.097,5.484,0.202,8.234,0.43c7.276,0.602,14.602,0.601,21.878,1.208c7.431,0.62,14.875,1.087,22.3,1.869
			c7.334,0.772,14.656,1.55,21.935,2.734c4.141,0.674,8.286,1.322,12.432,1.964c0.918,0.142,1.858,0.29,3.209-0.656
			C300.099,459.072,293.071,458.014,286.056,456.966z M286.526,448.789c-5.68-0.841-11.411-1.333-17.147-1.784
			c-10.984-0.865-21.989-1.06-32.984-1.564c-8.31-0.381-16.594-1.309-24.894-1.944c-0.768-0.059-2.135-0.538-2.212,0.516
			c-0.088,1.204,1.356,1.445,2.343,1.458c4.649,0.059,9.249,0.706,13.872,1.012c6.011,0.397,12.059,0.247,18.071,0.634
			c10.369,0.668,20.768,0.765,31.117,1.92c5.11,0.57,10.245,0.967,15.349,1.634c0.476,0.062,0.981-0.104,1.941-0.221
			C290.198,448.501,288.17,449.032,286.526,448.789z"/>
		<path style="fill:#4476C9;" d="M372.209,514.029c-0.181,3.119,0.259,6.268-0.458,9.364c-1.714,1.581-3.904,0.491-5.803,1.033
			c-0.515-0.046-1.03-0.122-1.547-0.134c-14.289-0.321-28.58-0.811-42.854-1.345c-13.787-0.516-27.608,0.029-41.339-1.017
			c-12.666-0.964-25.33-0.121-37.955-0.935c-16.965-1.094-33.944-0.627-50.913-1.015c-1.89-0.043-3.77-0.142-5.646,0.063
			c-1.502,0.165-2.596-0.332-3.301-1.668c-2.099-3.744-0.864-7.71,3.187-10.231c10.521,0.269,21.045,0.1,31.571,0.445
			c15.435,0.506,30.887,0.086,46.334,0.521c17.336,0.488,34.686,0.45,52.029,0.692c5.948,0.083,11.895,0.119,17.846,0.341
			c12.413,0.463,24.841,0.502,37.263,0.716C371.799,511.592,372.292,512.585,372.209,514.029z M364.566,511.895
			c-5.354-0.007-10.713,0.088-16.063-0.074c-19.155-0.58-38.325-0.091-57.471-0.629c-16.055-0.451-32.111,0.129-48.146-0.476
			c-17.607-0.664-35.21-0.172-52.811-0.471c-1.283-0.022-2.559-0.298-3.843-0.394c-0.768-0.057-1.816-0.123-1.915,0.835
			c-0.131,1.262,1.027,1.143,1.863,1.146c5.613,0.025,11.236-0.173,16.839,0.074c17.514,0.771,35.047-0.025,52.549,0.583
			c15.451,0.537,30.897-0.005,46.334,0.445c21.144,0.617,42.289,0.397,63.434,0.461c0.976,0.003,2.018,0.25,3.273-0.482
			C367.142,511.933,365.865,511.897,364.566,511.895z"/>
		<path style="fill:#4476C9;" d="M334.954,472.459c-3.28,0.021-6.671-0.489-9.82,0.166c-8.295,1.726-16.642,1.03-24.902,0.642
			c-5.535-0.26-11.186-0.148-16.614-1.056c-4.288-0.717-8.634,0.008-12.708-0.991c-4.291-1.053-8.504-0.601-12.749-0.833
			c-2.819-0.131-5.628-0.03-8.464-0.397c-2.492-0.323-5.142-0.559-7.652,0.355c-2.488,0.162-4.976,0.456-7.465,0.466
			c-14.932,0.058-29.865,0.029-44.798,0.097c-1.599,0.007-2.872-0.274-3.731-1.692c-4.646,2.786-5.47,6.588-2.46,10.992
			c1.171,1.713,2.89,1.574,4.592,1.632c4.541-0.85,9.092-0.26,13.65-0.179c9.494,0.169,18.992,0.069,28.488,0.162
			c16.393,0.162,32.792,0.17,49.176,0.656c12.426,0.368,24.856,0.032,37.27,0.493c8.282,0.308,16.558,0.348,24.838,0.375
			c6.991-0.004,13.982-0.013,20.972-0.012c6.484,0.001,6.484,0.005,5.962-6.429c-0.284-3.502-0.478-3.663-3.943-3.422
			c-0.687,0.048-1.381,0.035-2.071,0.01C353.336,473.153,344.145,472.805,334.954,472.459z"/>
		<path style="fill:#F97164;" d="M244.693,423.691c11.939,0.073,23.878,0.133,35.817,0.246c0.928,0.009,2.113-0.561,2.748,0.721
			c10.111,0.03,20.222,0.06,30.334,0.089c13.45,0,26.9-0.018,40.35,0.006c16.904,0.03,33.809,0.083,50.713,0.163
			c1.847,0.009,3.72-0.299,5.53,0.655c0.714,0.376,1.878,0.446,2.521-0.582c2.022-1.687,3.1-3.699,1.968-6.34
			c-1.042-2.429-1.852-5.129-5.178-5.38c-1.893,0.574-3.771-0.093-5.66-0.084c-49.546,0.226-99.091,0.41-148.637,0.654
			c-3.092,0.015-6.181,0.519-9.287,0.203c-0.642,0.663-1.54,0.379-2.295,0.621C243.18,417.767,243.745,420.752,244.693,423.691z"/>
		<path style="fill:#F97164;" d="M247.277,384.479c1.276-0.185,2.548-0.501,3.828-0.535c15.699-0.421,31.4-0.79,47.1-1.193
			c20.875-0.535,41.75-1.068,62.625-1.639c16.386-0.448,31.495-0.298,47.881-0.769c0.925-0.027,2.426-0.162,3.993-0.23
			c3.761,0.116,5.658-3.824,3.733-7.79c-0.256-0.528-0.627-1-0.943-1.497c-2.153-0.032-4.309-0.101-6.465-0.094
			c-15.971,0.05-31.941,0.114-47.912,0.174c-24.849,0.144-49.699,0.256-74.548,0.444c-13.193,0.1-26.385,0.329-39.577,0.508
			c-0.425,0.006-0.848,0.106-1.272,0.163c-0.577,0.575-1.74,0.86-1.486,1.887c0.851,3.433-0.02,7.2,2.027,10.392l-0.039,0.184
			C246.574,384.482,246.926,384.481,247.277,384.479z"/>
		<path style="fill:#D84F3A;" d="M246.262,384.3c-2.047-3.192-1.176-6.959-2.027-10.392c-0.255-1.027,0.909-1.312,1.486-1.887
			c-0.376-0.025-0.752-0.049-1.128-0.074c-0.438,0.003-0.876,0.006-1.314,0.008c-8.439-0.293-16.876-0.621-25.316-0.87
			c-8.548-0.253-17.155-0.047-25.432,2.001c-11.086,2.743-19.986,8.479-22.772,20.673c-1.015,4.444-0.145,8.859,0.989,12.991
			c3.14,11.448,10.076,15.656,21.723,17.631c3.214,0.545,6.473,1.136,9.781,0.787c2.603-1.692,5.538-1.394,8.421-1.401
			c11.34-0.026,22.681-0.05,34.021-0.075c-0.948-2.939-1.513-5.924-1.075-9.029c-4.904,0.109-9.831-0.045-14.708,0.383
			c-10.557,0.927-21.023,0.095-31.456-1.273c-2.579-0.338-5.518-0.391-7.618-2.117c-4.533-3.725-7.25-8.711-7.211-14.572
			c0.038-5.772,3.869-9.443,8.826-11.665c4.42-1.981,9.325-1.487,13.999-1.428c5.489,0.07,10.987,0.287,16.482,0.358
			c7.414,0.096,14.829,0.062,22.244,0.084C244.871,384.388,245.566,384.344,246.262,384.3z"/>
		<path style="fill:#E8AA29;" d="M351.912,569.348c-2.533,2.046-5.486,1.021-8.197,0.884c-13.26-0.673-26.508-1.595-39.762-2.379
			c-16.958-1.002-33.917-1.982-50.878-2.923c-14.553-0.808-29.111-1.509-43.663-2.328c-16.185-0.911-32.365-1.911-48.549-2.846
			c-2.821-0.163-5.688-0.604-8.372,0.783c-1.438,2.65-0.615,4.462,2.286,5.038c0.753,0.149,1.503,0.31,2.257,0.463
			c2.315-0.581,4.599-0.263,6.895,0.159c4.696,0.865,9.499,0.088,14.173,0.675c8.972,1.129,18.065,0.234,26.986,1.866
			c0.169,0.031,0.345,0.044,0.516,0.035c9.836-0.524,19.615,0.804,29.391,1.36c8.639,0.491,17.386-0.006,25.954,1.701
			c0.252,0.05,0.517,0.067,0.773,0.054c10.176-0.509,20.316,0.722,30.409,1.416c8.293,0.571,16.718-0.28,24.919,1.65
			c0.166,0.039,0.344,0.044,0.515,0.034c10.525-0.571,20.958,1.506,31.478,1.092c0.945-0.037,1.867-0.011,2.776-0.436
			c11.176-5.224,22.384-10.382,33.545-15.637c10.36-4.878,20.809-9.567,31.032-14.738c1.923-0.972,3.065-2.686,4.709-3.88
			c1.418-4.231,2.904-8.441,3.404-12.917c0.828-7.406,0.108-14.616-2.655-21.579c-1.824,0.788-3.649,1.577-5.475,2.365
			c0.072,0.424,0.183,0.846,0.213,1.274c0.653,9.165-0.082,18.296-0.882,27.407c-0.195,2.222-1.143,4.47-3.94,5.113
			c-1.322,0.304-2.546,1.042-3.809,1.598C389.279,552.884,370.596,561.116,351.912,569.348z"/>
		<path style="fill:#569BDF;" d="M416.383,509.262c1.824-0.789,3.649-1.578,5.473-2.366c8.645-2.673,13.608-8.646,15.824-17.279
			c2.042-7.957,0.03-14.912-4.761-21.266c-0.597-0.792-1.548-1.342-2.398-1.911c-1.56-1.044-3.295-1.839-4.554-3.298
			c-2.659,1.563-5.696,1.72-8.606,1.959c-10.867,0.891-21.776,1.309-32.623,2.376c-7.436,0.731-14.909,1.199-22.303,2.108
			c-8.716,1.072-17.491,0.821-26.176,1.955c-0.641,0.084-1.217,0.115-1.304,0.919c9.192,0.346,18.383,0.694,27.574,1.034
			c0.689,0.026,1.384,0.038,2.071-0.01c3.465-0.241,3.659-0.081,3.943,3.422c0.522,6.434,0.522,6.43-5.962,6.429
			c-6.991-0.001-13.982,0.008-20.972,0.012c0.471,0.498,1.089,0.427,1.683,0.427c9.082,0,18.164-0.004,27.247-0.006
			c0.496-0.701,1.234-0.818,2.025-0.954c8.733-1.494,17.26-3.885,25.829-6.075c7.082-1.81,14.166-3.389,21.503-3.887
			c5.464-0.371,8.733,4.542,8.76,8.725c0.021,3.313-0.596,6.489-1.468,9.657c-0.5,1.817-1.588,3.117-3.26,3.761
			c-4.804,1.85-9.602,3.748-14.504,5.307c-6.786,2.158-13.639,4.124-20.515,5.983c-4.709,1.273-9.019,3.922-14.049,4.068
			c-1.327,0.881-2.833,0.257-4.235,0.507c1.175,0.735,1.668,1.727,1.584,3.171c-0.181,3.119,0.259,6.268-0.459,9.363
			c0.588-0.115,1.24-0.104,1.756-0.363c7.567-3.805,15.671-6.104,23.73-8.541C403.571,512.573,410.137,511.506,416.383,509.262z"/>
		<path style="fill:#E8AA29;" d="M349.364,531.106c-17.249-0.166-34.498-0.349-51.747-0.495
			c-22.597-0.191-45.195-0.132-67.792-0.504c-23.803-0.392-47.611-0.484-71.417-0.69c-1.912-0.016-3.781-0.225-5.613-0.773
			c0,0-0.163-0.047-0.163-0.047c-0.138-0.12-0.276-0.241-0.413-0.362c0.002-0.001-0.05-0.05-0.05-0.05
			c-0.207-0.462-0.415-0.923-0.622-1.384c0.161-1.907,1.286-2.828,3.085-3.246c2.757-0.64,5.489-1.365,8.32-1.634
			c6.58-0.626,12.842-3.011,19.44-3.546c0.705,1.336,1.799,1.832,3.301,1.668c1.876-0.206,3.756-0.107,5.646-0.063
			c16.969,0.389,33.948-0.079,50.913,1.015c12.625,0.814,25.289-0.029,37.955,0.935c13.731,1.046,27.552,0.501,41.339,1.017
			c14.274,0.534,28.565,1.024,42.854,1.345c0.516,0.012,1.031,0.088,1.547,0.134C360.55,526.976,355.005,529.16,349.364,531.106z
			 M334.773,524.309c-20.549-0.078-41.108,0.317-61.646-0.172c-21.226-0.505-42.457,0.147-63.664-0.529
			c-15.704-0.5-31.396-0.106-47.091-0.385c-0.69-0.012-1.382-0.004-2.072,0.023c-0.563,0.022-1.03,0.226-1.029,0.886
			c0.001,0.6,0.401,1.004,0.931,1.079c0.848,0.12,1.717,0.124,2.577,0.125c24.607,0.015,49.223-0.359,73.821,0.124
			c35.385,0.696,70.766,0.162,106.148,0.399c1.063,0.007,2.211,0.35,3.897-0.831C342.234,524.75,338.504,524.324,334.773,524.309z"
			/>
		<path style="fill:#6277AB;" d="M435.519,542.829c-0.385,0.871-1.216,1.183-1.982,1.571c-15.83,8.005-31.675,15.981-47.484,24.027
			c-5.223,2.658-10.333,5.535-15.541,8.224c-1.291,0.666-1.935,1.695-2.329,2.936c-2.308,7.264-3.694,14.686-3.221,22.335
			c0.33,5.345,1.378,10.582,3.831,15.398c1.138,2.234,2.853,4.104,5.08,5.366c0.505,0.286,0.841,0.54,0.905,1.107
			c14.597-7.989,28.992-16.327,43.216-24.964c5.677-3.447,11.395-6.825,17.081-10.256c3.688-2.225,4.036-6.166,0.86-9.365
			c-4.993,2.99-9.937,6.065-14.989,8.952c-13.862,7.922-27.669,15.947-41.93,23.145c-2.807,1.417-3.138,1.225-3.703-2.003
			c-0.728-0.299-0.894-0.98-1.151-1.624c-2.209-5.518-2.392-11.261-1.822-17.064c0.478-4.867,2.453-8.694,7.515-10.277
			c0.973-0.304,1.852-0.917,2.764-1.407c16.403-8.826,32.805-17.654,49.207-26.483c0.726-0.448,1.439-0.919,2.18-1.34
			C438.096,548.782,438.505,546.564,435.519,542.829z"/>
		<path style="fill:#DDDAD3;" d="M430.747,559.291c-1.157,6.373-0.077,12.616,1.022,18.861
			c-13.158,7.111-26.345,14.171-39.462,21.356c-5.733,3.14-11.527,6.188-16.994,9.794c-0.727-0.299-0.893-0.98-1.151-1.624
			c-2.209-5.518-2.392-11.261-1.822-17.064c0.478-4.867,2.453-8.694,7.515-10.277c0.973-0.304,1.852-0.917,2.764-1.407
			c16.403-8.826,32.805-17.654,49.207-26.483C431.469,554.729,431.159,557.02,430.747,559.291z M420.036,578.973
			c-7.241,3.771-14.347,7.801-21.534,11.676c-4.612,2.487-9.273,4.883-13.92,7.304c-0.808,0.421-1.264,0.991-0.756,1.846
			c0.493,0.829,1.083,0.404,1.741,0.039c13.451-7.468,26.918-14.907,40.376-22.36c0.635-0.352,1.501-0.524,1.51-1.893
			C424.59,576.085,422.37,577.758,420.036,578.973z M406.895,580.282c-9.095,4.859-18.17,9.755-27.249,14.643
			c-1.589,0.856-3.165,1.737-4.739,2.621c-0.58,0.326-1.476,0.632-0.955,1.483c0.421,0.687,1.205,0.423,1.85,0.066
			c4.514-2.497,9.033-4.982,13.545-7.482c7.82-4.332,15.64-8.666,23.45-13.018c0.773-0.431,1.819-0.601,2.128-2.367
			C412.013,577.694,409.423,578.931,406.895,580.282z M415.91,567.022c-8.927,4.828-17.758,9.832-26.609,14.799
			c-0.956,0.536-2.885,0.914-2.153,2.219c0.558,0.996,1.877-0.46,2.802-0.971c10.013-5.537,20.013-11.097,30.044-16.601
			c1.942-1.065,3.759-2.26,5.354-3.87C421.811,563.29,418.953,565.376,415.91,567.022z M373.392,589.107
			c5.355-2.899,10.289-6.466,15.452-9.669C383.029,581.608,377.99,585.008,373.392,589.107z"/>
		<path style="fill:#45577F;" d="M431.769,578.152c-13.158,7.111-26.345,14.171-39.462,21.356
			c-5.733,3.14-11.527,6.188-16.994,9.794c0.565,3.229,0.897,3.42,3.704,2.003c14.261-7.199,28.068-15.223,41.93-23.145
			c5.052-2.887,9.996-5.963,14.989-8.952C435.117,576.603,433.294,577.965,431.769,578.152z"/>
		<path style="fill:#569BDF;" d="M242.046,470.344c2.51-0.914,5.16-0.678,7.652-0.355c2.836,0.367,5.645,0.266,8.464,0.397
			c-0.568-0.581-1.264-0.907-2.071-0.922c-4.808-0.087-9.583-0.567-14.372-0.95c-8.818-0.705-17.657-1.12-26.461-2.105
			c-3.326-0.372-6.724-0.105-10.09-0.133c-3.594-0.03-4.07-0.518-3.957-4.032c-4.308,1.88-8.615,3.76-12.923,5.639
			c0.387,0.145,0.781,0.434,1.16,0.415c5.945-0.288,11.856,0.521,17.791,0.532c10.933,0.021,21.871-0.163,32.792,0.541
			C240.807,469.422,241.874,468.993,242.046,470.344z"/>
		<path style="fill:#81CDFC;" d="M242.046,470.344c-0.172-1.351-1.239-0.922-2.013-0.972c-10.922-0.704-21.859-0.52-32.792-0.541
			c-5.935-0.011-11.846-0.82-17.791-0.532c-0.379,0.018-0.773-0.27-1.16-0.415c-0.815,0.326-1.873,0.245-2.236,1.332
			c0.858,1.418,2.132,1.699,3.731,1.692c14.932-0.068,29.865-0.039,44.798-0.097C237.07,470.8,239.558,470.506,242.046,470.344z"/>
		<path style="fill:#DDDAD3;" d="M152.17,528.185c-0.207-0.462-0.415-0.923-0.622-1.384
			C151.477,527.388,151.137,528.095,152.17,528.185z"/>
		<path style="fill:#6FBEBD;" d="M243.279,371.955c0.438-0.003,0.876-0.006,1.314-0.008
			C244.153,371.716,243.715,371.723,243.279,371.955z"/>
		<path style="fill:#DDDAD3;" d="M202.704,460.95c0.183,0.06,0.365,0.121,0.548,0.181c0.079-0.099,0.171-0.184,0.277-0.253
			c-0.111-0.127-0.224-0.252-0.339-0.376C203.027,460.651,202.865,460.801,202.704,460.95z"/>
		<path style="fill:#DDDAD3;" d="M152.632,528.597c-0.138-0.12-0.276-0.241-0.413-0.362
			C152.127,528.617,152.252,528.752,152.632,528.597z"/>
		<path style="fill:#6277AB;" d="M259.832,578.581c11.066,0.723,22.13,1.481,33.2,2.151c4.812,0.291,9.637,0.372,14.453,0.601
			c1.971,0.094,3.935,0.344,5.905,0.487c1.501,0.109,1.269,1.003,1.033,2.018c-2.407,10.326-1.698,20.489,1.693,30.492
			c0.413,1.218,0.984,2.389,1.562,3.542c0.883,1.762,2.459,2.651,4.216,1.851c1.858-0.846,2.005-2.673,1.181-4.461
			c-1.481-3.215-2.647-6.524-3.444-9.981c-1.547-6.703-1.481-13.499-1.303-20.304c0.051-1.946,0.941-2.822,3.106-2.699
			c10.909,0.622,21.825,1.135,32.742,1.582c1.111,0.046,3.137,0.84,3.247-0.796c0.096-1.427-1.998-0.749-3.051-0.981
			c-3.192-0.703-6.499-0.394-9.761-0.69c-7.277-0.661-14.6-0.827-21.906-1.161c-1.711-0.078-3.193-0.183-2.378-2.59
			c0.217-0.642,0.103-1.496-0.674-1.778c-0.945-0.343-1.883,0.224-2.159,0.976c-1.155,3.151-3.33,2.892-6.068,2.502
			c-3.299-0.469-6.69-0.396-10.04-0.578c-10.989-0.595-21.967-1.302-32.947-2.041c-3.942-0.265-7.904-0.444-11.86-0.598
			c-1.32-0.052-1.996-0.268-2.09-1.836c-0.114-1.902-1.544-2.491-2.414-1.046c-2.157,3.583-5.51,2.496-8.312,2.165
			c-3.684-0.436-7.379-0.398-11.058-0.734c-7.791-0.711-15.637-0.817-23.458-1.206c-1.196-0.06-2.379-0.377-3.575-0.442
			c-1.479-0.082-3.025,0.445-2.583-2.255c0.268-1.637-1.458-2.207-2.985-1.783c-0.792,0.22-1.764,0.715-2.133,1.377
			c-1.673,3-4.429,2.113-6.874,2.005c-4.547-0.2-9.086-0.61-13.627-0.948c-4.111-0.306-8.219-0.644-12.33-0.943
			c-1.032-0.075-2.07-0.071-3.106-0.076c-0.843-0.004-1.632,0.236-1.692,1.208c-0.071,1.146,0.78,1.369,1.727,1.437
			c4.369,0.316,8.733,0.734,13.106,0.961c5.332,0.276,10.672,0.398,16.008,0.586c0.173,0.006,0.347-0.003,0.518,0.014
			c3.687,0.375,3.674,0.461,2.996,4.123c-0.794,4.287-0.46,8.638,0.345,12.842c1.083,5.653,2.693,11.192,6.031,16.066
			c1.143,1.668,2.529,2.154,4.172,1.273c1.684-0.903,2.117-2.467,1.129-4.199c-3.695-6.478-5.336-13.549-6.169-20.875
			c-0.268-2.358,0.238-4.629,0.5-6.93c0.125-1.098,0.931-1.328,1.884-1.326c5.856,0.01,11.686,0.519,17.524,0.884
			c4.723,0.295,9.466,0.343,14.178,0.748c4.363,0.375,8.755,0.241,13.106,0.886c1.412,0.209,1.781,0.426,1.532,2.002
			c-1.325,8.381-1.247,16.746,0.951,25.005c0.691,2.595,1.812,5.037,3.178,7.332c0.96,1.613,2.364,2.605,4.304,1.359
			c1.85-1.189,1.853-3.069,0.859-4.537c-2.745-4.055-3.766-8.698-4.58-13.309c-0.848-4.805-1.039-9.707-0.28-14.645
			c0.34-2.214,1.111-2.808,3.095-2.632c1.114,0.099,2.244,0.018,3.366,0.018C259.827,578.653,259.83,578.617,259.832,578.581z"/>
		<path style="fill:#EEEFEB;" d="M371.75,523.392c0.588-0.115,1.24-0.104,1.756-0.363c7.567-3.805,15.671-6.104,23.73-8.541
			c6.336-1.916,12.902-2.983,19.145-5.228c0.072,0.424,0.183,0.846,0.213,1.274c0.653,9.165-0.082,18.296-0.882,27.407
			c-0.195,2.222-1.143,4.47-3.94,5.113c-1.322,0.304-2.546,1.042-3.809,1.598c-18.684,8.23-37.368,16.463-56.051,24.695
			c-0.437-0.378-0.474-0.891-0.458-1.412c0.25-8.226-0.724-16.403-1.174-24.594c-0.223-4.064,0.118-8.219-0.917-12.237
			c5.641-1.946,11.186-4.13,16.583-6.68C367.846,523.884,370.036,524.974,371.75,523.392z M361.809,559.524
			c15.804-7.034,31.61-14.062,47.386-21.157c1.151-0.518,3.518-0.951,2.951-2.168c-0.599-1.284-2.421,0.332-3.526,0.829
			c-13.403,6.028-26.752,12.177-40.111,18.304c-4.787,2.196-9.562,4.419-14.342,6.629c0.1,0.243,0.199,0.486,0.299,0.728
			C356.914,561.635,359.374,560.607,361.809,559.524z M355.963,537.569c15.76-8.001,32.325-14.237,48.25-21.874
			C399.335,516.139,358.906,534.591,355.963,537.569z"/>
		<path style="fill:#C3C0B0;" d="M346.676,550.789c-0.968-0.895-1.952-1.08-2.975-1.094c-4.043-0.057-8.095-0.397-12.113-0.408
			c-9.14-0.024-18.261-0.534-27.389-0.755c-10.923-0.264-21.856-0.555-32.768-1.063c-6.378-0.296-12.751-0.058-19.109-0.426
			c-11.09-0.641-22.202-0.618-33.285-1.14c-7.991-0.376-16.012,0.096-23.975-0.877c-0.594-0.073-1.209-0.025-1.809,0.028
			c-0.639,0.057-1.233,0.291-1.19,1.067c0.034,0.606,0.542,0.834,1.079,0.914c0.339,0.051,0.688,0.041,1.033,0.049
			c8.094,0.178,16.193,0.243,24.283,0.559c12.561,0.49,25.129,0.715,37.688,1.148c5.247,0.181,10.5,0.135,15.743,0.388
			c12.557,0.607,25.124,0.838,37.689,1.169c4.722,0.124,9.472,0.041,14.185,0.414c6.712,0.531,13.426,0.458,20.144,0.462
			C344.741,551.225,345.624,551.456,346.676,550.789z"/>
		<path style="fill:#C3C0B0;" d="M274.801,560.956c6.309,1.083,12.723,0.135,19.038,1.112c0.422,0.065,0.862,0.036,1.293,0.027
			c0.697-0.014,1.635-0.036,1.6-0.88c-0.041-0.982-1.063-0.616-1.678-0.637c-7.475-0.254-14.927-0.899-22.406-1.158
			c-6.691-0.232-13.387-0.649-20.079-1.006c-10.039-0.536-20.078-1.054-30.119-1.544c-10.299-0.503-20.593-1.103-30.896-1.574
			c-7.988-0.365-15.963-0.938-23.967-1.013c-2.04-0.019-4.077-0.602-6.154-0.439c-0.528,0.041-1.089,0.101-1.077,0.808
			c0.009,0.538,0.453,0.65,0.9,0.721c1.016,0.162,2.026,0.448,3.046,0.492c5.071,0.221,10.156,0.223,15.215,0.593
			c10.806,0.79,21.637,1.013,32.445,1.632c6.089,0.349,12.185,0.57,18.275,0.866c12.538,0.61,25.066,1.45,37.623,1.724
			C270.149,560.731,272.475,561.044,274.801,560.956z"/>
		<path style="fill:#C3C0B0;" d="M342.874,539.783c-3.304-1.446-6.417-1.234-9.369-1.433c-8.061-0.543-16.153-0.621-24.214-1.167
			c-8.674-0.587-17.345-1.006-26.037-0.989c-7.148,0.015-14.274-0.773-21.434-0.506c-10.747,0.401-21.499,0.692-32.248,1.023
			c-0.704,0.022-1.37,0.106-2.01,0.688c1.43,0.875,2.964,0.932,4.514,0.877c20.087-0.711,40.183-0.705,60.272-0.437
			c11.166,0.149,22.343,0.727,33.474,1.622c4.624,0.372,9.298-0.176,13.88,0.847C340.54,540.496,341.531,540.542,342.874,539.783z"
			/>
		<path style="fill:#C3C0B0;" d="M161.345,540.338c0.428,1.109,0.897,1.027,1.297,1.04c5.762,0.181,11.523,0.402,17.286,0.517
			c10.594,0.213,21.206,0.06,31.777,0.654c6.206,0.348,12.412-0.027,18.579,0.486c4.133,0.344,8.248,0.372,12.375,0.414
			c0.696,0.007,1.86,0.338,1.834-0.784c-0.025-1.091-1.183-0.761-1.881-0.739c-10.604,0.337-21.184-0.711-31.783-0.531
			c-12.068,0.204-24.115-0.655-36.184-0.665C170.3,540.727,165.938,540.443,161.345,540.338z"/>
		<path style="fill:#C3C0B0;" d="M342.552,560.05c0.861-0.309,2.763,0.552,2.761-0.6c-0.003-1.599-1.901-0.882-2.974-0.93
			c-9.103-0.403-18.218-0.582-27.311-1.133c-7.982-0.484-15.956-0.978-23.955-0.987c-2.148-0.003-4.238-0.778-6.411-0.5
			c-0.566,0.072-1.394-0.152-1.445,0.682c-0.064,1.065,0.888,0.866,1.513,0.854c3.273-0.063,6.523,0.369,9.778,0.466
			c6.45,0.193,12.921,0.345,19.342,0.745C323.368,559.241,332.914,559.13,342.552,560.05z"/>
		<path style="fill:#DDDAD3;" d="M244.719,401.848c-0.153,3.249-0.032,6.511-0.027,9.767c0.001,1.007-0.23,2.144,1.22,2.425
			c-0.642,0.663-1.54,0.379-2.295,0.621c-4.904,0.109-9.831-0.045-14.708,0.383c-10.557,0.927-21.023,0.095-31.456-1.273
			c-2.579-0.338-5.518-0.391-7.618-2.117c-4.533-3.725-7.25-8.711-7.211-14.572c0.038-5.772,3.869-9.443,8.826-11.665
			c4.42-1.981,9.325-1.487,13.999-1.428c5.489,0.07,10.987,0.287,16.482,0.358c7.414,0.096,14.829,0.062,22.244,0.084
			C244.1,390.244,244.994,396.023,244.719,401.848z M230.81,395.274c-9.987-0.401-19.951,0.532-29.933,0.554
			c-2.715,0.006-5.431,0.623-8.142,0.993c-0.712,0.097-1.447,0.368-1.149,1.303c0.217,0.682,0.855,0.707,1.514,0.606
			c12.094-1.855,24.283-1.934,36.476-1.941c2.05-0.001,2.05-0.008,3.852-0.91C232.725,394.905,231.696,395.31,230.81,395.274z
			 M243.343,407.112c-1.72-0.534-3.459-0.976-5.3-0.974c-4.575,0.006-9.151,0.071-13.724-0.032
			c-4.125-0.092-8.235,0.123-12.382-0.375c-5.882-0.707-11.77,0.542-17.674,0.939C210.622,406.699,226.966,407.334,243.343,407.112z
			 M240.948,389.808c-13.488,0-26.976,0-40.464,0c0.002,0.264,0.003,0.528,0.005,0.792
			C213.976,390.395,227.467,391.051,240.948,389.808z M214.488,401.159c0,0.174,0,0.347,0,0.521c8.172,0,16.343,0,24.514,0
			c0.018-0.174,0.036-0.347,0.054-0.521C230.868,401.159,222.678,401.159,214.488,401.159z M204.638,401.539
			c-5.033,0.829-10.1,0.183-15.135,0.589c-0.415,0.033-0.92-0.166-1.05,0.383c-0.122,0.515,0.33,0.742,0.742,0.886
			c0.238,0.083,0.514,0.141,0.759,0.108c6.527-0.879,13.179,0.028,19.674-1.55C207.995,401.212,206.246,401.274,204.638,401.539z"/>
		<path style="fill:#DDDAD3;" d="M400.17,388.03c-1.01-0.767-1.876-0.645-2.647-0.433c-2.896,0.795-5.864,0.563-8.743,0.31
			c-10.766-0.947-21.548-0.533-32.302-0.31c-8.928,0.185-17.886,0.444-26.789,1.051c-9.235,0.63-18.489,1.056-27.723,1.821
			c-11.847,0.981-23.765,0.737-35.655,0.606c-3.583-0.04-7.147,1.305-10.753,0.092c-0.572-0.192-1.261,0.177-1.309,0.913
			c-0.049,0.757,0.57,1.051,1.208,1.049c3.099-0.009,6.204,0.266,9.296-0.162c0.932-0.129,1.881-0.35,2.805-0.287
			c7.468,0.509,14.944,0.067,22.395-0.137c9.763-0.267,19.521-1.048,29.269-1.846c3.324-0.272,6.671-0.731,10.024-0.624
			c7.671,0.244,15.362-0.161,22.962-0.745c7.743-0.595,15.478-1.137,23.18-0.69c6.724,0.39,13.429,0.174,20.137,0.393
			C397.063,389.082,398.508,388.814,400.17,388.03z"/>
		<path style="fill:#DDDAD3;" d="M399.17,402.771c-0.898-1.08-2.084-0.771-3.155-0.774c-7.168-0.023-14.336-0.014-21.504-0.014
			c-16.366,0-32.746-0.416-49.095,0.119c-16.568,0.542-33.125,0.14-49.684,0.423c-0.93,0.016-1.866,0.255-2.781,0.469
			c-0.569,0.133-1.659-0.333-1.512,0.794c0.106,0.816,1.033,0.909,1.705,0.681c2.2-0.743,4.455-0.305,6.682-0.41
			c4.295-0.203,8.611,0.377,12.895-0.488c2.142-0.432,4.272,0.292,6.406,0.493c3.121,0.295,6.164-0.635,9.264-0.521
			c12.653,0.463,25.319,0.21,37.954-0.147c12.249-0.346,24.489-0.346,36.73-0.304C388.426,403.111,393.77,403.586,399.17,402.771z"
			/>
		<path style="fill:#DDDAD3;" d="M340.282,396.327c-17.23-0.69-34.175-0.741-51.11-0.442c-5.063,0.089-10.101-0.087-15.15-0.141
			c-3.62-0.039-7.233,1.17-10.796,0.463c-3.648-0.724-7.177,0.359-10.763,0.098c-0.729-0.053-1.822-0.111-1.733,0.966
			c0.077,0.93,1.131,0.583,1.728,0.54c15.419-1.113,30.864-0.028,46.282-0.549c12.654-0.428,25.291,0.233,37.937,0.207
			c4.078-0.009,8.244,0.085,12.35,0.512c0.476,0.049,1.112,0.472,1.215-0.322c0.118-0.898-0.681-0.806-1.262-0.848
			C345.985,396.596,343.013,395.956,340.282,396.327z"/>
		<path style="fill:#DDDAD3;" d="M337.091,409.716c-29.29-1.08-58.584-1.974-87.895-0.716
			C278.5,408.755,307.786,410.093,337.091,409.716z"/>
		<path style="fill:#DDDAD3;" d="M393.838,409.503c-2.679-0.502-5.026-0.81-7.444-0.8c-12.857,0.051-25.714,0.021-38.571,0.02
			c-0.604,0-1.209-0.015-1.812,0.016c-0.409,0.021-0.957-0.033-0.999,0.547c-0.047,0.648,0.486,0.856,1.01,0.926
			c0.51,0.068,1.033,0.055,1.55,0.055c14.497,0.003,28.993,0.007,43.49-0.004C391.882,410.262,392.777,410.476,393.838,409.503z"/>
		<path style="fill:#DDDAD3;" d="M247.277,384.479c-0.351,0.002-0.703,0.004-1.054,0.005
			C246.576,384.888,246.928,384.925,247.277,384.479z"/>
		<path style="fill:#EEEFEB;" d="M372.701,508.892c0.048-2.226-0.255-4.503,0.11-6.671c1.081-6.412-0.334-12.45-2.275-18.453
			c0.496-0.701,1.234-0.818,2.025-0.954c8.733-1.494,17.26-3.885,25.829-6.075c7.082-1.81,14.166-3.389,21.503-3.887
			c5.464-0.371,8.733,4.542,8.76,8.725c0.021,3.313-0.596,6.489-1.468,9.657c-0.5,1.817-1.588,3.117-3.26,3.761
			c-4.804,1.85-9.602,3.748-14.504,5.307c-6.786,2.158-13.639,4.124-20.515,5.983c-4.709,1.273-9.019,3.922-14.049,4.068
			C373.914,510.202,372.665,510.548,372.701,508.892z M382.872,500.555c13.664-2.506,26.979-6.224,39.831-11.549
			C409.364,492.645,396.157,496.737,382.872,500.555z M378.557,501.203c0.06,0.216,0.119,0.433,0.179,0.649
			c0.859-0.218,1.719-0.437,3.058-0.777C380.097,500.127,379.47,501.181,378.557,501.203z"/>
		<path style="fill:#C3C0B0;" d="M192.998,496.082c0.089,0.592,0.523,0.652,0.944,0.756c1.171,0.289,2.335,0.506,3.563,0.501
			c6.817-0.027,13.647-0.261,20.448,0.08c8.354,0.419,16.727,0.037,25.049,0.569c7.158,0.458,14.308-0.041,21.432,0.455
			c7.492,0.521,15.004,0.021,22.462,0.56c8.536,0.618,17.055,0.179,25.577,0.414c1.124,0.031,2.223,0.077,3.318,0.395
			c0.514,0.149,1.112-0.125,1.18-0.721c0.088-0.77-0.604-0.699-1.085-0.701c-3.097-0.009-6.197-0.443-9.261-0.434
			c-12.586,0.038-25.159-0.526-37.735-0.748c-14.371-0.253-28.745-0.657-43.115-1.053c-6.02-0.166-12.067,0.053-18.059-0.468
			c-4.307-0.374-8.595-0.338-12.893-0.409C194.135,495.265,193.19,494.952,192.998,496.082z"/>
		<path style="fill:#C3C0B0;" d="M287.696,505.046c10.33,0.228,22.137,0.437,33.931,0.749c7.144,0.189,14.307-0.081,21.427,0.446
			c4.564,0.338,9.11,0.374,13.668,0.404c0.606,0.004,1.63,0.368,1.679-0.619c0.042-0.852-0.897-0.857-1.587-0.895
			c-0.172-0.009-0.345-0.014-0.517-0.008c-8.362,0.317-16.699-0.635-25.053-0.507c-10.258,0.157-20.501-0.463-30.746-0.708
			c-6.796-0.163-13.623,0.134-20.389-0.444c-6.55-0.561-13.094-0.114-19.619-0.513c-2.742-0.168-5.479-0.469-8.23-0.406
			c-0.839,0.019-2.222-0.509-2.258,0.935c-0.042,1.687,1.478,1.033,2.367,1.081c1.807,0.097,3.625,0.092,5.435,0.026
			C267.287,504.238,276.742,505.385,287.696,505.046z"/>
		<path style="fill:#C3C0B0;" d="M365.625,491.323c-3.132-0.236-6.262-0.645-9.395-0.676c-9.579-0.096-19.168,0.198-28.738-0.111
			c-15.171-0.491-30.352-0.101-45.51-0.599c-7.927-0.26-15.852-0.053-23.765-0.437c-2.74-0.133-5.472-0.541-8.23-0.441
			c-0.655,0.024-1.532-0.152-1.536,0.882c-0.004,0.863,0.693,1.12,1.434,1.16c0.689,0.038,1.38,0.02,2.071,0.02
			c13.378,0.004,26.768-0.359,40.13,0.106c15.867,0.553,31.737-0.062,47.583,0.546c7.757,0.298,15.502,0.162,23.25,0.379
			c0.901,0.025,1.804,0.003,2.706,0.003C365.624,491.878,365.624,491.601,365.625,491.323z"/>
		<path style="fill:#DE9926;" d="M326.997,428.421c-3.71-0.022-4.065,0.605-3.217,3.903c2.674,10.391,4.149,20.853,1.332,31.507
			c-0.301,1.139-1.083,1.946-1.401,3.005c-0.478,1.593-0.517,2.996,1.741,3.042c6.71,0.137,13.361-0.717,20.036-1.175
			c3.366-0.231,4.387-2.916,5.306-5.186c2.591-6.396,2.747-13.144,2.022-19.953c-0.357-3.357-1.312-6.534-2.407-9.686
			c-1.224-3.523-2.562-4.151-6.28-4.489C338.397,428.867,332.621,429.275,326.997,428.421z"/>
		<path style="fill:#DE9926;" d="M403.267,442.244c0.389,4.142-0.427,8.878-1.801,13.52c-0.633,2.138,0.014,3.254,2.204,3.204
			c4.728-0.108,9.456-0.305,14.18-0.534c1.717-0.083,2.528-1.399,3.019-2.815c2.313-6.667,1.876-13.346-0.054-20.011
			c-0.481-1.661-1.898-1.864-3.273-1.989c-4.313-0.392-8.582,0.529-12.885,0.501c-1.189-0.008-1.407,0.709-1.396,1.693
			C403.282,437.711,403.267,439.611,403.267,442.244z"/>
		<path style="fill:#DE9926;" d="M313.591,424.747c-10.112-0.03-20.223-0.059-30.334-0.089c-2.511,0.562-4.957-0.338-7.442-0.34
			c-22.616-0.017-45.232-0.039-67.848-0.015c-1.017,0.001-2.879-0.587-2.878,0.69c0.001,1.336,1.887,1.328,3.146,1.331
			c10.013,0.016,20.027,0.013,30.04,0.013c23.22,0.001,46.443,0.166,69.659-0.141c4.575-0.06,6.661,1.726,8.262,5.449
			c5.25,12.203,4.971,24.202-0.96,36.096c-0.446,0.895-1.859,2.253-0.608,2.876c1.477,0.736,2.01-1.113,2.524-2.243
			c2.848-6.266,4.423-12.816,4.236-19.732c-0.214-7.897-2.19-15.269-6.614-21.9C314.346,426.1,313.984,425.413,313.591,424.747z"/>
		<path style="fill:#DE9926;" d="M203.528,460.878c-0.106,0.07-0.198,0.154-0.277,0.253c-0.135,1.173,0.167,1.797,1.524,2.146
			c3.216,0.827,6.53,0.58,9.735,0.72c6.697,0.293,13.368,0.959,20.054,1.333c10.274,0.575,20.549,1.306,30.814,2.064
			c7.013,0.518,14.04,0.854,21.046,1.461c6.422,0.556,12.842,1.062,19.293,1.002c0.902-0.008,1.92,0.373,2.674-0.504
			c-0.476-0.531-1.028-0.935-1.777-0.905c-3.468,0.136-6.829-0.828-10.268-0.986c-11.772-0.54-23.493-1.805-35.264-2.452
			c-8.998-0.494-17.997-1.297-26.986-2.035c-9.414-0.773-18.831-1.474-28.255-2.104C205.074,460.821,204.3,460.874,203.528,460.878z
			"/>
		<path style="fill:#DE9926;" d="M359.724,468.321c1.631,0.186,2.465-0.908,2.927-2.284c4.234-12.612,3.157-24.66-3.938-36.039
			c-0.395-0.633-0.827-1.66-1.666-1.248c-0.859,0.422-0.299,1.354,0.012,2.047c4.857,10.823,5.027,21.706,0.467,32.669
			C356.272,466.483,357.132,468.378,359.724,468.321z"/>
		<path style="fill:#C3C0B0;" d="M231.863,434.091c-6.233,0.099-10.856-0.198-15.449-0.956c-0.421-0.07-0.864-0.055-1.292-0.024
			c-0.627,0.046-1.27,0.207-1.307,0.965c-0.037,0.773,0.592,0.964,1.222,1.049c1.359,0.182,2.716,0.446,4.082,0.51
			c4.726,0.221,9.456,0.545,14.183,0.512c9.564-0.068,19.074,0.962,28.627,1.2c8.592,0.214,17.198,0.561,25.776,1.065
			c4.965,0.292,9.986-0.181,14.918,0.815c0.996,0.201,2.066,0.055,3.101,0.033c0.542-0.011,1.068-0.159,0.991-0.867
			c-0.059-0.546-0.534-0.604-0.968-0.641c-2.051-0.178-4.103-0.488-6.155-0.498c-9.728-0.05-19.408-1.102-29.145-1.203
			c-6.77-0.07-13.564-0.585-20.338-0.996C243.501,434.654,236.895,434.339,231.863,434.091z"/>
		<path style="fill:#C3C0B0;" d="M307.467,460.815c-7.368-1.743-14.396-2.802-21.411-3.85c-7.113-1.063-14.277-1.812-21.432-2.564
			c-4.692-0.493-9.409-0.753-14.116-1.105c-9.154-0.685-18.307-1.382-27.465-2.026c-1.89-0.133-3.796-0.069-5.694-0.059
			c-0.652,0.004-1.556-0.157-1.547,0.867c0.009,1.018,0.862,1.159,1.677,1.187c2.747,0.097,5.484,0.202,8.234,0.43
			c7.276,0.602,14.602,0.601,21.878,1.208c7.431,0.62,14.875,1.087,22.3,1.869c7.334,0.772,14.656,1.55,21.935,2.734
			c4.141,0.674,8.286,1.322,12.432,1.964C305.175,461.614,306.116,461.761,307.467,460.815z"/>
		<path style="fill:#C3C0B0;" d="M291.983,450.449c-1.785-1.948-3.813-1.417-5.456-1.66c-5.68-0.841-11.411-1.333-17.147-1.784
			c-10.984-0.865-21.989-1.06-32.984-1.564c-8.31-0.381-16.594-1.309-24.894-1.944c-0.768-0.059-2.135-0.538-2.212,0.516
			c-0.088,1.204,1.356,1.445,2.343,1.458c4.649,0.059,9.249,0.706,13.872,1.012c6.011,0.397,12.059,0.247,18.071,0.634
			c10.369,0.668,20.768,0.765,31.117,1.92c5.11,0.57,10.245,0.967,15.349,1.634C290.517,450.732,291.022,450.566,291.983,450.449z"
			/>
		<path style="fill:#569BDF;" d="M368.609,512.914c-1.467-0.981-2.744-1.017-4.043-1.019c-5.354-0.007-10.713,0.088-16.063-0.074
			c-19.155-0.58-38.325-0.091-57.471-0.629c-16.055-0.451-32.111,0.129-48.146-0.476c-17.607-0.664-35.21-0.172-52.811-0.471
			c-1.283-0.022-2.559-0.298-3.843-0.394c-0.768-0.057-1.816-0.123-1.915,0.835c-0.131,1.262,1.027,1.143,1.863,1.146
			c5.613,0.025,11.236-0.173,16.839,0.074c17.514,0.771,35.047-0.025,52.549,0.583c15.451,0.537,30.897-0.005,46.334,0.445
			c21.144,0.617,42.289,0.397,63.434,0.461C366.311,513.399,367.354,513.646,368.609,512.914z"/>
		<path style="fill:#FFDF57;" d="M346.646,525.029c-4.412-0.279-8.142-0.706-11.873-0.72c-20.549-0.078-41.108,0.317-61.646-0.172
			c-21.226-0.505-42.457,0.147-63.664-0.529c-15.704-0.5-31.396-0.106-47.091-0.385c-0.69-0.012-1.382-0.004-2.072,0.023
			c-0.563,0.022-1.03,0.226-1.029,0.886c0.001,0.6,0.401,1.004,0.931,1.079c0.848,0.12,1.717,0.124,2.577,0.125
			c24.607,0.015,49.223-0.359,73.821,0.124c35.385,0.696,70.766,0.162,106.148,0.399
			C343.812,525.867,344.961,526.21,346.646,525.029z"/>
		<path style="fill:#C3C0B0;" d="M427.453,575.585c-2.863,0.5-5.084,2.172-7.418,3.387c-7.241,3.771-14.347,7.801-21.534,11.676
			c-4.612,2.487-9.273,4.883-13.92,7.304c-0.808,0.421-1.264,0.991-0.756,1.846c0.493,0.829,1.083,0.404,1.741,0.039
			c13.451-7.468,26.918-14.907,40.376-22.36C426.578,577.126,427.444,576.954,427.453,575.585z"/>
		<path style="fill:#C3C0B0;" d="M414.925,576.229c-2.912,1.466-5.502,2.703-8.03,4.054c-9.095,4.859-18.17,9.755-27.249,14.643
			c-1.589,0.856-3.165,1.737-4.739,2.621c-0.58,0.326-1.476,0.632-0.955,1.483c0.421,0.687,1.205,0.423,1.85,0.066
			c4.514-2.497,9.033-4.982,13.545-7.482c7.82-4.332,15.64-8.666,23.45-13.018C413.569,578.165,414.616,577.994,414.925,576.229z"/>
		<path style="fill:#C3C0B0;" d="M425.348,562.597c-3.537,0.693-6.395,2.78-9.438,4.425c-8.927,4.828-17.758,9.832-26.609,14.799
			c-0.956,0.536-2.885,0.914-2.153,2.219c0.558,0.996,1.877-0.46,2.802-0.971c10.013-5.537,20.013-11.097,30.044-16.601
			C421.935,565.402,423.753,564.207,425.348,562.597z"/>
		<path style="fill:#C3C0B0;" d="M388.844,579.438c-5.815,2.17-10.854,5.569-15.452,9.669
			C378.747,586.208,383.681,582.641,388.844,579.438z"/>
		<path style="fill:#DDDAD3;" d="M354.466,562.689c2.448-1.054,4.908-2.082,7.344-3.166c15.804-7.034,31.61-14.062,47.386-21.157
			c1.151-0.518,3.518-0.951,2.951-2.168c-0.599-1.284-2.421,0.332-3.526,0.829c-13.403,6.028-26.752,12.177-40.111,18.304
			c-4.787,2.196-9.562,4.419-14.342,6.629C354.266,562.204,354.366,562.446,354.466,562.689z"/>
		<path style="fill:#DDDAD3;" d="M404.213,515.695c-4.878,0.444-45.306,18.896-48.25,21.874
			C371.723,529.568,388.287,523.332,404.213,515.695z"/>
		<path style="fill:#C3C0B0;" d="M233.427,395.879c-0.702-0.974-1.732-0.569-2.617-0.605c-9.987-0.401-19.951,0.532-29.933,0.554
			c-2.715,0.006-5.431,0.623-8.142,0.993c-0.712,0.097-1.447,0.368-1.149,1.303c0.217,0.682,0.855,0.707,1.514,0.606
			c12.094-1.855,24.283-1.934,36.476-1.941C231.625,396.788,231.625,396.781,233.427,395.879z"/>
		<path style="fill:#C3C0B0;" d="M194.263,406.67c16.36,0.029,32.703,0.664,49.08,0.442c-1.72-0.534-3.459-0.976-5.3-0.974
			c-4.575,0.006-9.151,0.071-13.724-0.032c-4.125-0.092-8.235,0.123-12.382-0.375C206.055,405.024,200.166,406.272,194.263,406.67z"
			/>
		<path style="fill:#C3C0B0;" d="M200.489,390.599c13.487-0.204,26.978,0.452,40.459-0.792c-13.488,0-26.976,0-40.464,0
			C200.486,390.072,200.487,390.336,200.489,390.599z"/>
		<path style="fill:#C3C0B0;" d="M239.057,401.159c-8.19,0-16.38,0-24.569,0c0,0.174,0,0.347,0,0.521c8.172,0,16.343,0,24.514,0
			C239.021,401.506,239.039,401.333,239.057,401.159z"/>
		<path style="fill:#C3C0B0;" d="M209.629,401.954c-1.634-0.742-3.383-0.68-4.991-0.415c-5.033,0.829-10.1,0.183-15.135,0.589
			c-0.415,0.033-0.92-0.166-1.05,0.383c-0.122,0.515,0.33,0.742,0.742,0.886c0.238,0.083,0.514,0.141,0.759,0.108
			C196.482,402.625,203.134,403.532,209.629,401.954z"/>
		<path style="fill:#DDDAD3;" d="M422.702,489.007c-13.338,3.638-26.545,7.73-39.831,11.549
			C396.536,498.049,409.851,494.331,422.702,489.007z"/>
		<path style="fill:#DDDAD3;" d="M381.793,501.075c-1.696-0.948-2.323,0.106-3.237,0.128c0.06,0.216,0.119,0.433,0.179,0.649
			C379.595,501.634,380.454,501.416,381.793,501.075z"/>
		<g>
			<g>
				<path style="fill:#3D486C;" d="M417.158,373.811l-124.628-24.05l-123.13,24.05l106.275-2.716c0,0,8.588,4.431,17.604,4.123
					c9.695-0.33,18.402-4.596,18.402-4.596L417.158,373.811z"/>
			</g>
			<g>
				<path style="fill:#F0F0EB;" d="M182.399,352.803l22.621-19.641c0,0,25.598-5.034,42.239-14.105
					c21.46-11.694,40.03-1.675,44.433,6.289c12.191-16.191,48.204-4.61,60.57-0.63c12.363,3.982,28.261,9.564,28.261,9.564
					l22.143,18.522l-1.151,2.036l-108.985-5.078l-111.648,5.078L182.399,352.803z"/>
			</g>
			<g>
				<path style="fill:#AFAFAF;" d="M172.758,363.806L172.758,363.806l2.828-3.04l0,0l4.402-4.717l0,0l2.933-3.699
					c0,0,23.016,1.269,40.093-4.076c17.088-5.345,51.18-19.994,69.518,1.488c18.338-21.481,53.26-6.372,70.343-1.028
					c17.082,5.345,39.793,4.069,39.793,4.069l2.409,3.246l0,0l4.403,4.717l0,0l2.828,3.04l0,0l3.354,3.665
					c0,0-52.396-2.2-56.065-2.933c-3.667-0.732-26.68-5.434-35.691-5.183c-4.597,0.126-16.494,2.036-16.494,2.036l-14.873,2.655
					l-19.461-3.639c0,0-2.93-1.172-11.942-0.856c-9.013,0.314-32.003,4.256-35.668,4.988c-3.667,0.733-56.065,2.933-56.065,2.933
					L172.758,363.806z"/>
			</g>
			<g>
				<defs>
					<path id="SVGID_1_" d="M208.385,277.667c-0.654-0.091,28.815-9.117,28.815-9.117c57.164,11.16,55.33,81.212,55.33,81.212
						S260.886,284.896,208.385,277.667z"/>
				</defs>
				<clipPath id="SVGID_00000075881309518580533690000000226678483916289459_">
					<use xlink:href="#SVGID_1_"  style="overflow:visible;"/>
				</clipPath>
				<g style="clip-path:url(#SVGID_00000075881309518580533690000000226678483916289459_);">
					<path style="fill:#E8E8E8;" d="M285.403,285.315c0,0,7.128,61.197,7.128,64.446c0,0-8.173-61.93-38.72-75.658
						C226.966,262.039,285.403,285.315,285.403,285.315z"/>
				</g>
			</g>
			<g>
				<path style="fill:#DEDCD5;" d="M182.933,333.437c-0.604,0.274,19.561-23.044,19.561-23.044
					c54.353-20.939,90.042,39.368,90.042,39.368S231.249,311.647,182.933,333.437z"/>
			</g>
			<g>
				<path style="fill:#F0F0EB;" d="M188.635,311.263c-0.646,0.142,23.881-18.532,23.881-18.532
					c64.48-13.007,80.022,57.03,80.022,57.03S240.389,299.865,188.635,311.263z"/>
			</g>
			<g>
				<path style="fill:#DEDCD5;" d="M290.643,326.19l1.894,23.571c0,0,12.133-16.311,43.613-9.129l-7.179-22.292
					C328.971,318.34,302.781,310.025,290.643,326.19z"/>
			</g>
			<g>
				<path style="fill:#D3D2D2;" d="M292.537,349.761c0,0,10.064-21.893,57.914-5.133c0,0,23.848,9.391,52.216,8.175l6.092,7.192
					c0,0-23.168,2.694-61.307-7.05c0,0-39.486-11.142-54.919,5.9L292.537,349.761z"/>
			</g>
			<g>
				<path style="fill:#D3D2D2;" d="M292.906,349.382c0,0-10.103-22.676-58.137-5.316c0,0-23.369,9.543-51.848,8.283l-6.684,7.634
					c0,0,23.257,2.789,61.542-7.304c0,0,39.64-11.542,55.133,6.112L292.906,349.382z"/>
			</g>
			<g>
				<path style="fill:#3D486C;" d="M169.015,367.972l0.386-0.501l44.181-2.077l-43.652,8.331
					C169.072,373.864,168.485,368.661,169.015,367.972z"/>
			</g>
			<g>
				<polygon style="fill:#3D486C;" points="417.158,373.811 413.721,367.39 372.857,365.591 				"/>
			</g>
			<g>
				<path style="fill:#DEDCD5;" d="M208.385,277.667c-0.654-0.091,28.815-9.117,28.815-9.117
					c63.873,11.636,55.33,81.212,55.33,81.212S260.886,284.896,208.385,277.667z"/>
			</g>
			<g>
				<path style="fill:#3D486C;" d="M340.681,361.075v5.182l-28.999,4.365c0,0-18.291,10.372-36.007,0.473l-33.925-4.403v-4.874
					c0,0,20.782-3.383,31.325-1.412l19.461,9.267c0,0,29.36-10.335,31.367-10.319C325.912,359.37,339.37,360.864,340.681,361.075z"
					/>
			</g>
			<g>
				<path style="fill:#3964AF;" d="M241.422,351.642c4.831-1.021,10.891-1.842,10.891-1.842s-6.87,6.171-6.533,16.902l-5.24-7.327
					l-7.225,5.263C233.315,364.638,235.588,353.954,241.422,351.642z"/>
			</g>
		</g>
	</g>
	<g>
		<polygon style="fill:#3964B1;" points="392.228,99.599 202.405,99.599 211.735,80.141 202.405,57.188 392.228,57.188 
			382.898,78.394 		"/>
		<rect x="181.629" y="105.371" style="fill:none;" width="232.09" height="88.642"/>
		
			<text transform="matrix(1 0 0 1 182.475 190.5692)" style="fill:#3D486C; font-family:'YanoneKaffeesatz-Regular'; font-size:120px;">BOO</text>
		<rect x="228.273" y="67.224" style="fill:none;" width="138.088" height="28.722"/>
		<text transform="matrix(1 0 0 1 239.5194 92.7831)" style="fill:#FFFFFF; font-family:'BreeSerif-Regular'; font-size:36px;">WORLD</text>
		<g>
			<rect x="250.846" y="202.336" style="fill:none;" width="97.656" height="40.584"/>
			<text transform="matrix(1 0 0 1 256.0184 236.4154)" style="fill:#FFFFFF; font-family:'BreeSerif-Regular'; font-size:48px;">DAY</text>
		</g>
		<rect x="202.405" y="218.128" style="fill:#FFFFFF;" width="48.238" height="5.213"/>
		<rect x="344.549" y="218.128" style="fill:#FFFFFF;" width="48.238" height="5.213"/>
	</g>
</g>
</svg>
